<?xml version="1.0" standalone="no"?>
<!DOCTYPE svg PUBLIC "-//W3C//DTD SVG 1.1//EN" "http://www.w3.org/Graphics/SVG/1.1/DTD/svg11.dtd" >
<svg xmlns="http://www.w3.org/2000/svg">
<metadata></metadata>
<defs>
<font id="halohandletterregular" horiz-adv-x="0" >
<font-face units-per-em="2048" ascent="1638" descent="-410" />
<missing-glyph horiz-adv-x="286" />
<glyph horiz-adv-x="2048" />
<glyph horiz-adv-x="2048" />
<glyph horiz-adv-x="682" />
<glyph unicode="&#x9;" />
<glyph unicode="&#xa;" />
<glyph unicode="&#xd;" />
<glyph />
<glyph />
<glyph />
<glyph />
<glyph />
<glyph />
<glyph />
<glyph unicode=" "  horiz-adv-x="286" />
<glyph unicode="&#x09;" horiz-adv-x="286" />
<glyph unicode="&#xa0;" horiz-adv-x="286" />
<glyph unicode="!" horiz-adv-x="235" d="M23 63q2 23 18 44t41 20l-2 -2q27 -1 43 -21.5t16 -40.5q-2 -20 -18.5 -37t-40.5 -16q-30 2 -44 12.5t-13 40.5zM45 305q8 122 25 434q6 119 51 422q8 60 28.5 82.5t40.5 20.5q14 -3 20.5 -32.5t2.5 -66.5q-1 -6 -24.5 -156.5t-34.5 -244.5q-4 -39 -14 -115t-13.5 -112.5 t-7.5 -98t-4 -123.5v-2q0 -1 0.5 -11t0 -15.5t-2 -14.5t-5 -13.5t-10 -7.5t-16.5 -1q-40 9 -37 55z" />
<glyph unicode="&#x22;" horiz-adv-x="292" d="M68 1126q-3 33 2 37t39 -6q16 -4 24 -12t9 -14t1 -19q0 -10 -0.5 -41.5t-0.5 -60.5t1 -52v-10.5v-8.5t-1 -6.5t-1 -4.5t-2.5 -3.5t-3.5 -2t-5 -1.5t-5.5 -1t-7.5 -1t-8 -1q-6 -1 -10 2t-7 9t-4 10.5t-2.5 11t-1.5 7.5q0 4 -3.5 40t-7.5 76.5t-5 51.5zM166 1126 q-1 32 7 37.5t36 -6.5q35 -13 35 -55q-4 -76 -2 -135q1 -32 -4 -39t-29 -10q-9 -1 -14.5 5.5t-7 12t-1.5 10.5q-12 72 -20 180z" />
<glyph unicode="#" horiz-adv-x="763" d="M-16 434q0 67 64.5 112t123.5 40q223 -16 264 -236q22 92 80 217l2 -2q20 46 51 35q19 -6 20.5 -30t-9.5 -42q-64 -123 -95 -231q141 25 211 27q55 0 80 -23q17 -15 -2 -29q-10 -4 -15.5 -3.5t-20 3t-25.5 2.5q-46 -2 -85.5 -6.5t-92 -13t-62.5 -10.5q-15 -69 -33 -203 q-7 -40 -17 -46q-6 -4 -15 -3q-24 3 -24.5 53.5t7.5 91.5q1 8 3.5 41t2.5 49q-62 -7 -125 -4q-47 1 -95 13t-93 35.5t-73 66t-27 96.5zM51 440q-5 -56 40 -97t125.5 -58t176.5 -4v2q-16 123 -76 187.5t-124 68.5q-55 3 -96.5 -23.5t-45.5 -75.5z" />
<glyph unicode="$" horiz-adv-x="512" d="M39 662q-9 7 2 20q12 14 35 6q86 -31 176 -33q49 -2 92 23.5t47 62.5q4 34 -31 56t-87.5 34t-104.5 25.5t-86.5 41.5t-30.5 71q4 37 34.5 69.5t66 50.5t77.5 31q8 189 9 201q1 20 9.5 29.5t20.5 7.5q18 0 21 -21q4 -27 -2 -98q-3 -61 0 -100l36 9t28 5t31 2t44 0 q22 0 40.5 -8t14.5 -23q-9 -25 -43 -20q-89 10 -201.5 -30t-125.5 -103q-3 -13 0.5 -23.5t16.5 -19t22.5 -13.5t31.5 -11t29.5 -8t30.5 -7q112 -28 147 -48q59 -34 55 -98q-4 -55 -47 -88t-104 -39q0 -4 2 -8q-8 -27 -8 -164v-3q0 -9 -0.5 -12t-5.5 -6.5t-15 1.5 q-5 1 -9.5 5.5t-7 9t-4.5 12.5t-2.5 12t-1.5 12.5t-1 9.5q-2 14 -2 127q-126 0 -199 50z" />
<glyph unicode="%" horiz-adv-x="735" d="M92 240q68 121 219.5 360t212.5 342q-90 -52 -166 -59q-1 -4 -3 -11.5t-3 -11.5q-15 -63 -61.5 -114.5t-100.5 -45.5q-47 5 -72 41.5t-25 86.5t11.5 100t35 87t48.5 42q2 24 22.5 42t53.5 21q17 1 34.5 -6t36.5 -24.5t28.5 -57t3.5 -94.5q57 9 122.5 42t90.5 56 q11 17 19 25t13.5 6.5t8.5 -4.5t7.5 -10.5t6.5 -10.5q21 -23 -29 -98q-54 -84 -218 -351.5t-251 -395.5q-4 -6 -18 0t-23.5 19t-3.5 24zM151 825.5q2 -17.5 6.5 -34t17.5 -29.5t32 -14q32 -3 61 46.5t37 90.5q-71 10 -106 90q-4 -2 -12 -13.5t-19.5 -41t-15.5 -66.5 q-3 -11 -1 -28.5zM241.5 1026.5q-3.5 -34.5 18.5 -65.5q18 -24 55 -27q5 57 -8.5 93.5t-38.5 35.5q-23 -2 -26.5 -36.5zM392.5 244q-21.5 72 4.5 164q5 18 13 39t22.5 48t31 47.5t40 34t47.5 11.5q19 -1 38 -12t37.5 -38t22.5 -72.5t-6 -115.5q-14 -84 -60 -137t-104 -47 q-65 6 -86.5 78zM445.5 270q9.5 -52 48.5 -55q28 -3 58.5 40t43.5 107q14 62 2 115t-41 53q-65 3 -104 -147q-17 -61 -7.5 -113z" />
<glyph unicode="&#x26;" horiz-adv-x="1255" d="M4 264q5 192 379 389q-67 110 -61 224q5 78 50 145t109.5 108t138.5 61t138 13q92 -9 157.5 -64t61.5 -130q-2 -27 -11.5 -52.5t-22 -47t-36.5 -44.5t-42.5 -39.5t-54.5 -38.5t-57.5 -34.5t-65 -34t-65 -31.5t-70 -32t-67.5 -31q16 -19 35 -38t42.5 -40t39.5 -35 t47 -39.5t43 -36.5q39 -36 74 -61q95 15 229 22q196 14 201 -73q3 -66 -117 -152q13 -8 63.5 -37t78.5 -47h-2q25 -16 12 -38q-14 -25 -54 -15q-16 3 -32 12q-89 47 -135 78q-127 -75 -284 -123.5t-290 -42.5q-49 2 -92.5 8t-96.5 18.5t-94.5 35t-77 54t-54 80t-17.5 109.5z M72 246q-2 -42 10.5 -75.5t38.5 -55.5t56 -38t72.5 -25.5t77.5 -14.5t81 -8q86 -7 218 18t242 76q21 8 80 41q-2 1 -198 145q-53 -11 -113 -30.5t-70 -22.5h2q-2 -1 -12.5 -5.5t-16 -6t-10.5 1.5q-7 9 -0.5 31.5t15.5 27.5q54 28 143 53q-188 143 -264 240 q-341 -159 -352 -352zM393 891q-11 -112 53 -209h-2q39 19 95.5 45t94 43t83 40t75 43.5t57 45.5t42.5 53t18 60q6 58 -42 95t-122 42q-134 8 -238.5 -69t-113.5 -189zM836 324q66 -47 186 -117h-2q124 78 121 102q-9 36 -109 29q-93 -2 -196 -14z" />
<glyph unicode="'" horiz-adv-x="192" d="M8 938q91 228 115 258h2q2 2 7 8.5t6 7.5t4.5 5t4.5 4t4 1t5 -1t5.5 -4t6.5 -6t8 -9q12 -15 12.5 -29.5t-4.5 -22.5l-6 -7q-82 -172 -100 -213q-27 -62 -55 -41q-11 8 -14 23.5t-1 25.5z" />
<glyph unicode="(" horiz-adv-x="290" d="M18 596q4 215 64.5 439t126.5 331q11 19 37 12q14 -1 22 -37t0 -51q-56 -121 -113.5 -347.5t-60.5 -350.5q-3 -222 21 -370t104 -324q9 -15 -14 -31q-14 -11 -32.5 0t-27.5 27q-137 240 -127 702z" />
<glyph unicode=")" horiz-adv-x="243" d="M9 -80q1 5 3 10q58 141 87 290.5t38 344.5q19 404 -100 762q-11 38 8 55q17 14 40 2.5t28 -34.5q9 -37 30 -126.5t26 -113t19 -87.5t16.5 -88t9 -75t6 -86.5t-1 -85t-3.5 -106.5q-12 -187 -44.5 -350.5t-113.5 -327.5q-22 -45 -40 -29q-15 14 -8 45z" />
<glyph unicode="*" horiz-adv-x="389" d="M43.5 919.5q2.5 9.5 11 17t11.5 5.5q2 -1 108 -55q-4 110 -4 119q0 7 5 10.5t12 3.5t13.5 -1.5t11.5 -4t5 -4.5t1.5 -15.5t5 -41t5.5 -48.5q53 40 86 60q16 9 26.5 -2t10.5 -25t-2 -18q-18 -13 -96 -74q15 -8 29.5 -18.5t34.5 -26t28 -21.5q11 -9 9.5 -22t-14 -22 t-26.5 -3q-10 4 -75 47q4 -81 -2 -102q-4 -12 -18 -15.5t-27 1.5t-13 12q0 63 -2 110q-63 -52 -72 -55q-3 -2 -9 -6.5t-8 -5.5t-7 -2.5t-10.5 -0.5t-14.5 3q-27 9 -10 26q38 38 103 95q-59 41 -99 63q-10 7 -7.5 16.5z" />
<glyph unicode="+" horiz-adv-x="532" d="M25 447q2 8 7.5 11t10.5 3q122 24 205 28q-8 138 -6 146q0 5 -0.5 13t-0.5 11t1 8.5t4 9t7.5 8.5t12.5 11q13 10 21 8t11 -7.5t3 -10.5q25 -125 31 -192q108 0 129 -7l10.5 -3.5t8.5 -4.5t7 -4.5t5.5 -5t4 -5.5t3 -6t2 -5t2.5 -5.5t2 -5.5q5 -16 -4.5 -23.5t-38.5 -4.5 q-16 2 -131 -2q4 -117 -4 -144l-3.5 -10.5t-4.5 -8.5t-4.5 -7t-5 -5.5t-5.5 -4t-6 -3t-5 -2t-5.5 -2.5t-5.5 -2q-16 -5 -24 4.5t-5 38.5q2 19 -2 142q-152 -8 -158 -7q-4 0 -12.5 -0.5t-11.5 0t-8.5 1.5t-9 3.5t-8.5 7.5t-11 13q-10 13 -8 21z" />
<glyph unicode="," horiz-adv-x="159" d="M-104.5 -141.5q3.5 20.5 16.5 37.5q8 10 47.5 63.5t77.5 105.5t39 54h2q4 5 8 8.5t7.5 4.5t6 1.5t6 -2t5.5 -4t5 -6t4.5 -7l4.5 -7.5t4 -7q12 -20 -12 -59q-5 -7 -73 -97.5t-77 -103.5q-12 -20 -29 -23.5t-32 9.5q-14 12 -10.5 32.5z" />
<glyph unicode="-" horiz-adv-x="522" d="M33 426q-22 30 12 37q189 39 416 24q16 -5 26 -14t12 -14t7 -19q5 -15 -4.5 -22t-38.5 -4t-195.5 -5.5t-175.5 -7.5q-13 -1 -22 -1t-17.5 5.5t-19.5 20.5z" />
<glyph unicode="." horiz-adv-x="155" d="M20 72q0 26 19.5 42.5t44.5 14.5v-2q23 -2 38 -17t15 -38q0 -24 -21 -40t-48 -14q-21 0 -34.5 16t-13.5 38z" />
<glyph unicode="/" horiz-adv-x="860" d="M90 -31q1 21 29 78q27 52 277.5 655t262.5 625q6 11 13.5 28t11.5 24t11.5 18t16.5 19t23 16q27 18 30 -2.5t-7 -36.5q-39 -95 -175.5 -439t-231 -569.5t-163.5 -364.5v3q-17 -29 -32.5 -44t-23.5 -18t-23 -6q-20 -3 -19 14z" />
<glyph unicode="0" horiz-adv-x="1122" d="M6 590q11 147 63 271t132.5 210.5t179.5 143t209 79.5q16 4 36 -3.5t19 -26.5q1 -9 -6.5 -14.5t-15 -7.5t-19.5 -4l-12 -1q-127 -20 -244 -121.5t-187.5 -249.5t-68.5 -295q2 -102 23.5 -187t67 -158t125.5 -120.5t190 -62.5q64 -8 134 10t139 64.5t126 115.5t96.5 172 t48.5 224q4 66 -4.5 139t-33 147.5t-62 133t-96.5 95.5t-131 36q-46 0 -84.5 -10t-77 -34.5t-62 -43.5t-67.5 -58q-15 -14 -38.5 -7.5t-2.5 36.5q122 170 317 178q98 4 182 -50.5t137 -145t79.5 -204.5t17.5 -229q-8 -123 -48.5 -229.5t-102.5 -183t-139.5 -131 t-162.5 -79.5t-169 -22q-77 3 -150 28.5t-139 76.5t-113.5 122t-71.5 173.5t-14 222.5z" />
<glyph unicode="1" horiz-adv-x="253" d="M68 981q4 21 19.5 67t28.5 82l13 35q8 25 30.5 34.5t41.5 3.5t20 -21q-53 -245 -82 -641q-8 -102 -9.5 -229t0.5 -203l3 -76q0 -12 -20 -11q-29 0 -37 27q-2 8 -2 17t1.5 151t9.5 323.5t26 383.5q-4 3 -15.5 9.5t-17 10.5t-9.5 14t-1 23z" />
<glyph unicode="2" horiz-adv-x="966" d="M10 53h2q-2 25 6.5 42.5t34.5 34t83.5 23.5t146.5 5q8 1 41.5 24t86 67t113 101.5t122 133.5t112 157t85 178t40.5 191q2 52 -58 118.5t-153 65.5q-105 -2 -190.5 -34.5t-135.5 -78t-85 -100.5t-48.5 -94.5t-15.5 -67.5q-5 -94 92 -96q27 -1 57 13.5t53 36t42 42.5t29 36 l11 15q10 18 30 14q23 -5 14 -37q-2 -6 -5 -12q-1 -1 -11.5 -18.5t-16.5 -26.5t-21 -28.5t-27.5 -31t-32 -27t-39 -24.5t-45.5 -15t-53 -5q-52 1 -87.5 30.5t-48.5 66.5t-11 73q4 50 33 111t80 120.5t115.5 108.5t147 76.5t165.5 22.5q60 -4 108.5 -20t78 -37.5t51 -51.5 t31.5 -53.5t15 -52.5t5.5 -40.5t0.5 -23.5v-2q-5 -104 -52.5 -216t-113 -201.5t-148.5 -176.5t-146.5 -141t-118.5 -94q69 3 151.5 -11t151 -36t126.5 -45t91 -40l33 -16q23 -34 7.5 -51t-42.5 -2q-1 1 -48 20t-74 29t-75.5 27t-94 28.5t-89.5 18.5q-103 16 -233 16 q-191 -94 -252 -68q-20 8 -21 29z" />
<glyph unicode="3" horiz-adv-x="958" d="M5.5 166q11.5 24 25.5 24q4 0 6 -2t2.5 -5.5t4 -9.5t9.5 -13q6 -4 16.5 -11.5t45 -26.5t72.5 -33.5t95.5 -26.5t116.5 -13q84 -1 157 13t122.5 38t90 55t64 62t39 61.5t21.5 51t6 32.5q5 190 -190 273q-78 -47 -155 -71.5t-132 -22.5q-76 3 -110 39t-13 77q20 37 81 60 t155 22q90 0 184 -32q56 43 93 102t48 97t12 65q3 53 -9 92t-35.5 62.5t-57.5 38t-75.5 17t-88.5 -0.5q-105 -6 -193.5 -41.5t-155 -110t-85.5 -178.5q-1 -37 -24 -40q-19 -2 -28 20q-5 11 -3 26q11 71 39 130t63.5 98.5t82 71t88 49t88.5 29.5t76 16.5t58 6.5 q145 11 244 -62.5t98 -213.5q0 -161 -180 -301q100 -55 150.5 -143t44.5 -175q-8 -121 -85.5 -213.5t-194.5 -136.5t-249 -37q-50 3 -96 9.5t-83 15.5t-70 19.5t-58 22t-46 22.5t-35 21t-24 17.5t-15 11.5l-5 5q-14 23 -2.5 47zM400 648q-22 -19 3 -29q24 -11 82 -3 q87 11 158 43q-68 19 -129 19q-80 0 -114 -30z" />
<glyph unicode="4" horiz-adv-x="927" d="M31 502q102 169 196 284q144 172 422 418q59 47 105.5 41.5t74 -43.5t19.5 -80q-8 -41 -37.5 -178t-50 -243t-35.5 -209q-3 -22 -14 -111q78 -3 172 -12q43 -3 80.5 -22t33.5 -42q-3 -18 -30 -20.5t-72 4.5q-90 12 -195 18q-10 -104 -9.5 -169.5t11.5 -149.5 q2 -19 -20 -15q-29 5 -49 33q-10 14 -10 29q-1 13 -2 36.5t-3.5 99t0.5 142.5q-78 3 -237.5 7t-206.5 8q-93 7 -132 60.5t-11 113.5zM100 452q-1 -24 16 -33.5t52 -12.5q113 -10 457 -23q10 77 58.5 354t64.5 383q4 26 -5 32t-20.5 -0.5t-11.5 -8.5q-129 -84 -210 -161 t-194 -214q-41 -51 -94 -132t-84 -122q-28 -38 -29 -62z" />
<glyph unicode="5" horiz-adv-x="923" d="M16.5 78.5q10.5 26.5 32.5 13.5q105 -63 279 -61q53 1 108.5 11.5t120.5 39t117 72.5t91 118.5t48 169.5q3 7 1 24t-3 40t-10 50t-20 54.5t-33.5 53.5t-50 46.5t-69.5 33.5t-93 14q-177 4 -314 -113q-17 -12 -42 -13.5t-46 14.5t-20 48q2 60 16.5 152t32.5 179l18 87 q6 32 10 47t14 25t16 11t30 5.5t43 9.5q18 5 74 12.5t166.5 12.5t226.5 0q22 -1 32 -7t9.5 -14t-0.5 -16q-3 -12 -20.5 -24t-35.5 -13q-10 -2 -209 -8.5t-217 -9.5q-16 -2 -25.5 -4.5t-15.5 -8t-7.5 -8t-5 -15t-5.5 -17.5q-4 -11 -18.5 -66.5t-22.5 -99.5q-33 -181 -24 -202 q6 -14 38 13q144 96 297 90q90 -3 159.5 -37t106.5 -80t59.5 -101t28 -96.5t1.5 -70.5q-11 -89 -40.5 -162.5t-68 -123t-88 -87.5t-97 -59.5t-97.5 -34t-87 -16t-69 -2.5q-229 8 -318 86q-14 11 -3.5 37.5z" />
<glyph unicode="6" horiz-adv-x="1015" d="M25 430q4 127 40 241t116.5 224.5t201.5 194.5q29 20 69 41t98 45t116.5 38t124 19t122.5 -12q7 -2 13 -5t9.5 -5.5t5.5 -6.5t3 -7t0 -8l-1.5 -7.5t-3.5 -8.5l-4 -8t-4.5 -8.5t-4.5 -7.5q-11 -19 -29 -26t-39 3q-27 15 -74 17t-111 -10.5t-146.5 -53t-164.5 -104.5 q-109 -84 -172.5 -210.5t-78.5 -248.5q67 139 212.5 239t286.5 91q91 -6 163.5 -42t115 -89t63 -113t17.5 -119q-9 -139 -93 -260.5t-207.5 -188t-246.5 -57.5q-188 15 -295.5 142.5t-101.5 310.5zM109 342q19 -133 99 -216.5t230 -90.5q117 -6 221 56t166 167.5t64 224.5 q3 118 -62.5 199t-195.5 88q-121 6 -237 -49t-191 -150.5t-80 -201.5q0 -17 -14 -27z" />
<glyph unicode="7" horiz-adv-x="868" d="M0.5 995.5q1.5 22.5 6.5 48.5t14.5 55t17.5 51t15.5 41.5t8.5 22.5q6 21 18 5q15 -21 17 -76q127 84 346 84h2q61 0 162 -4t146.5 -5.5t97.5 3.5q6 1 17.5 4.5t17.5 4t13.5 -4.5t12.5 -17q5 -15 -1.5 -31t-21.5 -34t-16 -19q-24 -28 -48 -59.5t-53 -74t-48.5 -71.5 t-54.5 -86t-50.5 -82.5t-58 -95.5t-55.5 -92q-173 -295 -230 -545q7 -17 -15 -22q-27 -6 -46 16q-7 9 -10 21q-10 48 62 228t167 353q74 134 171 284t145 214q13 20 7.5 25.5t-28.5 3.5q-3 0 -50.5 2.5t-111 4.5t-110.5 1q-75 -1 -115 -3t-85.5 -8.5t-72 -20t-53.5 -36.5 t-51 -59q-2 -7 -4.5 -19.5t-4 -17.5t-4.5 -13.5t-5.5 -11.5t-7 -7t-11 -5.5t-14.5 -1.5q-16 0 -23 13.5t-5.5 36z" />
<glyph unicode="8" horiz-adv-x="1050" d="M-8 303q-1 67 36 141.5t99 142.5t115.5 116.5t111.5 93.5q-235 127 -225 245q9 86 76.5 155t165.5 104t200 30q111 -6 213.5 -47.5t176.5 -120.5q131 58 200 68q34 5 43 -19q9 -26 -23 -48l-18 -9q-60 -21 -147 -55q14 -25 22 -43v-2q0 -18 -5.5 -26t-20.5 -17 q-34 -15 -51 2q-6 5 -2 12.5t7.5 16t-8.5 26.5l-4 6q-75 -32 -136 -64t-92.5 -52t-99 -66t-108.5 -72q54 -26 92 -46.5t85.5 -50t80 -56t66 -62.5t53.5 -72.5t32.5 -82.5t12.5 -97q-1 -71 -31.5 -133.5t-79 -105.5t-108 -77t-121 -52.5t-115 -26.5t-92.5 -4 q-200 21 -300.5 113.5t-100.5 234.5zM82 295q-3 -69 25.5 -121t80.5 -81.5t111 -44.5t127 -17q105 -4 208.5 41t170.5 119.5t72 152.5q7 111 -90.5 210.5t-241.5 156.5q-20 8 -59 24.5t-58 24.5q-59 -44 -114.5 -95t-109 -113t-87 -129.5t-35.5 -127.5zM217 1069 q-1 -36 15.5 -67.5t50.5 -57.5t69.5 -45t85.5 -41q242 172 457 279v-2q-77 72 -143 94.5t-193 30.5q-74 5 -154 -23.5t-133 -75t-55 -92.5z" />
<glyph unicode="9" horiz-adv-x="948" d="M2 778q23 236 176 367.5t400 122.5q173 -7 274 -43l2 12h2q0 1 0.5 3.5t3.5 8t7.5 8.5t14 3t21.5 -5q32 -14 36 -26.5t-7 -32.5q-21 -55 -32.5 -90.5t-21.5 -84t-15 -80.5t-18.5 -123.5t-25.5 -170.5q-35 -214 -45 -400t2 -235q4 -35 -15.5 -38.5t-35.5 8.5 q-20 9 -27.5 23.5t-9.5 41.5q0 258 23 459q-75 -43 -175.5 -75.5t-183.5 -27.5q-51 3 -102 19.5t-98.5 48t-83.5 74t-54.5 103.5t-11.5 130zM98 784q-7 -55 2 -107t35 -99.5t80 -76.5t129 -30q125 -1 220.5 38.5t156.5 92.5v-2q4 28 4 43q35 202 100 469q-74 69 -241 82 q-21 1 -39.5 1.5t-52.5 -1.5t-63 -8t-66.5 -19.5t-69 -33t-64.5 -51.5t-57.5 -72.5t-44.5 -98.5t-29 -127z" />
<glyph unicode=":" horiz-adv-x="163" d="M25 403q2 18 17 38t40 20h2q25 0 38 -17t13 -36q0 -18 -16 -38t-41 -20q-26 1 -39.5 18.5t-13.5 34.5zM29 80q0 18 17.5 42t45.5 23q51 -5 51 -67q-2 -15 -21.5 -29.5t-41.5 -13.5q-21 0 -35 15.5t-16 29.5z" />
<glyph unicode=";" horiz-adv-x="169" d="M-78 -170q-23 20 4 64q5 9 71 102.5t79 105.5q6 6 11 8t10 -0.5t7.5 -4.5t8.5 -8.5t8 -8.5q7 -8 7 -16.5t-2 -13.5t-9 -19q-7 -16 -71 -107.5t-77 -105.5q-11 -11 -20 -10.5t-27 14.5zM16 422q5 20 21 41t43 18h-2q29 -1 45 -19.5t16 -39.5q-2 -15 -22 -32t-41 -17 q-22 -1 -41 14.5t-19 34.5z" />
<glyph unicode="&#x3c;" horiz-adv-x="669" d="M66 350q166 134 401 242q7 1 13.5 1.5t12 -1t9 -2.5t8 -4l6 -4t6.5 -5.5t6 -5.5q25 -25 -24 -43q-27 -11 -295 -170q164 -14 354 -69q15 -8 23 -19.5t9 -17t3 -19.5q2 -16 -9 -20.5t-40 4.5q-21 7 -116.5 25t-193.5 35t-104 18q-45 9 -61 16q-32 15 -8 39z" />
<glyph unicode="=" horiz-adv-x="532" d="M33 426q-22 30 12 37q129 26 205 29q169 6 213 -5h-2q16 -5 26 -14t12 -14t7 -19q5 -15 -4.5 -22t-38.5 -4t-195.5 -5.5t-175.5 -7.5q-13 -1 -22 -1t-17.5 5.5t-19.5 20.5zM57 246q-20 32 15 39q2 0 26.5 3.5t67.5 8.5t84 8q182 7 215 -2h-2q25 -7 31.5 -12t11.5 -19 q5 -15 -7 -27t-40 -9q-30 2 -182.5 -8.5t-157.5 -10.5q-5 1 -14.5 1.5t-13.5 1.5t-10.5 3.5t-11.5 8t-12 14.5z" />
<glyph unicode="&#x3e;" horiz-adv-x="669" d="M75.5 582.5q-3.5 16.5 0.5 29.5q0 33 49 9q15 -9 77.5 -32.5t126 -46t125.5 -44t66 -23.5q52 -21 60 -26q28 -18 0 -39q-177 -103 -435 -172q-17 -1 -29.5 4t-16.5 9.5t-11 14.5q-21 28 31 39q26 6 319 119q-153 41 -340 127q-19 15 -22.5 31.5z" />
<glyph unicode="?" horiz-adv-x="919" d="M-11 880q4 34 27 60v-2q248 288 615 303q112 5 193.5 -69.5t80.5 -186.5q-1 -53 -25 -102t-55.5 -82.5t-83 -68t-84.5 -51.5t-82 -40q-22 -11 -65.5 -30.5t-65.5 -30.5t-54.5 -31.5t-50 -39.5t-33 -48.5t-21.5 -65.5q-3 -25 3.5 -40.5t13.5 -22.5t5 -13q-13 -21 -47 -6 q-18 9 -27 28.5t-8.5 40.5t0.5 44q3 38 22.5 73t44.5 59.5t70 52t78 43.5t90 42q52 23 101 53t97.5 70t78.5 90t31 101q1 78 -57 117.5t-138 37.5q-81 -2 -152 -17.5t-121.5 -36.5t-105.5 -59.5t-89 -68t-87 -80.5q-9 -9 -26.5 -31t-29.5 -32t-22 -6q-25 12 -21 46zM225 94 q1 20 24 34.5t36 12.5q23 -6 36.5 -24t12.5 -41q-3 -23 -17.5 -35t-35.5 -12q-22 0 -39.5 18.5t-16.5 46.5z" />
<glyph unicode="@" horiz-adv-x="1349" d="M57 403q-18 145 37 282t156 234.5t238 156.5t278 59q294 0 408 -178q83 -131 47 -316q-30 -157 -126 -266q-96 -107 -204 -101q-55 3 -85 61t-26 118q-37 -69 -85.5 -115.5t-98.5 -40.5q-14 1 -28.5 8t-32.5 23t-27 42.5t-12.5 67.5t10.5 97q15 67 47 120.5t68 82.5 t70.5 42.5t60.5 10.5q33 -4 55.5 -18.5t30.5 -30.5t11 -35t1.5 -28l-2.5 -15q-10 -23 -20.5 -31t-16.5 -6.5t-15 6.5q-2 1 -3 2q1 3 2 9t0.5 21t-4.5 27t-16 23t-32 14q-42 4 -86 -46.5t-69 -121.5q-24 -69 -19 -129.5t41 -64.5q34 -3 74.5 49t64.5 105t33 87q6 7 23.5 6 t35.5 -13.5t15 -27.5q-9 -22 -12 -60.5t1 -78.5t24 -69t53 -29q68 0 138 97q81 110 100 253q25 183 -78 289q-101 104 -312 104q-130 0 -252 -57t-208 -149.5t-131 -218.5t-29 -255q12 -93 59.5 -164.5t116 -112t145 -61t156.5 -20.5q94 0 188 24t178.5 68.5t152 116 t103.5 160.5q15 36 37 3t20 -71q0 -10 -3 -16q-37 -88 -119 -158.5t-181.5 -111t-199 -61t-187.5 -20.5q-108 0 -200.5 24.5t-168.5 74.5t-126 134t-64 195z" />
<glyph unicode="A" horiz-adv-x="1505" d="M-100 252v10t6.5 16.5t19.5 10.5q15 -1 24 -7t11 -12l2 -6q0 -4 1.5 -11t6.5 -27t12.5 -38t22.5 -40t34 -37.5t48 -26t64 -10.5q166 3 364 282q-39 -6 -84 -13.5t-64.5 -11t-21.5 -3.5q-13 -2 -24 -2q-34 0 -39 20q-2 7 -2 13t1 10t4.5 7.5l5.5 5.5t7.5 4t8.5 2.5t9.5 2 t8.5 2.5q116 23 247 43q22 33 58.5 91t48.5 77q21 33 45 74.5t47 85t47 90t45.5 90.5t41.5 85t36 75l28 59.5t18 39.5l7 14q3 5 6 21t7 25q6 9 24 17q17 8 43 8h6q62 -3 74.5 -20.5t13.5 -93.5v-21q5 -310 101 -670q96 0 116 -2q47 -4 26 -32q-18 -25 -53 -36q-7 -3 -13 -3 l-54 -4q87 -305 191 -486q4 -4 4 -8q0 -9 -19 -18q-21 -11 -40 -11q-15 0 -30 7q-10 5 -16 12q-85 96 -186 504q-48 -1 -161.5 -5.5t-141.5 -5.5q-90 -2 -260 -22q-31 -45 -64 -88t-85 -99t-102.5 -96.5t-111.5 -67.5q-55 -24 -105 -24h-11q-46 2 -85 17.5t-64 38t-45 49.5 t-31 53t-18 47.5t-9 34.5zM682 453q100 13 162 16q299 11 336 12q-33 143 -64 305.5t-46 253.5l-15 90z" />
<glyph unicode="B" horiz-adv-x="1419" d="M-272 1087q-1 6 -1 11q0 13 7 24q10 15 22 20l11 5q13 6 37 15.5t106 35.5t174 47t237 42.5t297 29.5q66 4 126 3.5t114 -3.5q109 -7 183.5 -26t130 -44.5t86.5 -57.5t45 -63q12 -27 13 -55q0 -4 -1 -8q-3 -58 -48 -111.5t-114.5 -93t-136 -66t-131.5 -44.5 q12 0 48.5 -5.5t95.5 -18t121.5 -37t119.5 -56.5t96 -83t45 -112q1 -7 1 -13q0 -87 -98 -171q-105 -90 -278 -156q-174 -64 -400 -104q-221 -39 -439 -39h-11q-55 0 -96.5 9t-63 22.5t-31.5 27.5t-9 27t9 23.5t15 15.5l8 4q1 -19 19 -25q6 -2 12.5 -3.5t17.5 -2t20 -1 t28.5 -1.5t34.5 0q0 313 18 594q-59 6 -59 20l3 9t18.5 21t43.5 28q10 144 27 291.5t18 175.5q-53 -8 -102.5 -17.5t-87.5 -18t-73 -18.5t-59 -17.5t-46.5 -15.5t-34 -13l-23 -10t-12.5 -5q-13 -4 -16.5 -10.5t-0.5 -10.5l3 -5q-1 1 -8 -0.5t-17 9t-14 31.5zM250 49 q272 0 450 41q73 17 126 30.5t119.5 34t113.5 40.5t96 48t80.5 58t54 69t27.5 83q1 6 1 12q0 49 -46 89q-52 45 -144.5 73.5t-205.5 45t-242 21.5q-199 -45 -350 -51q-27 -2 -72 -2q-14 -176 -14 -354q0 -119 6 -238zM266 750q24 5 68 8q125 12 242 12q65 0 129 -4 q84 24 164 51.5t172.5 67t146.5 85.5q48 41 48 78q0 4 -1 9q-8 54 -91 96.5t-216 62.5q-99 15 -207 15q-38 0 -78 -2q-148 -8 -299 -25q-49 -189 -78 -454z" />
<glyph unicode="C" horiz-adv-x="1447" d="M-8 430q3 103 47 209.5t117 200.5t174.5 176.5t215.5 141.5q114 58 246 90q113 27 226 27q18 0 35 -1q10 0 24.5 -0.5t47.5 -5t63.5 -11.5t65.5 -21.5t61 -34.5t43.5 -51.5t17.5 -73.5q0 -50 -30 -106q-32 -56 -73.5 -97.5t-93 -80t-79.5 -55.5t-45 -26 q-17 -10 -39 -17.5t-47.5 -6t-34.5 21.5q-4 8 -5.5 13.5t0 10l2.5 7.5t7.5 6t10.5 4.5t14 4.5t16 5q10 4 24 10t46 23t61 35.5t63.5 46.5t60 57t43 67t19.5 76v1q1 6 1 12q0 39 -46 68q-62 39 -194 44q-17 1 -34 1q-164 -1 -327 -61q-180 -66 -313.5 -176t-219 -252.5 t-89.5 -283.5v-8l-2 -40q0 -204 125 -314q110 -96 303 -103q16 0 31 -1q118 0 241 27q139 30 242.5 76.5t188.5 94t129 80.5l44 34q19 16 29 -4q0 -42 -66 -98q-13 -11 -54 -38.5t-125 -73t-177.5 -83.5t-217.5 -64q-107 -23 -208 -23q-15 0 -31 1q-119 5 -215.5 38t-171 96 t-113.5 167q-35 92 -35 208q0 15 1 30z" />
<glyph unicode="D" horiz-adv-x="1327" d="M-89 1042q1 8 9 18t16 18t21 16t22 12.5l19 9.5l12 6l5 3q235 122 520 169q143 24 281 23h50q106 -4 191.5 -23t139.5 -44.5t93.5 -63.5t59 -70.5t30 -74.5t12.5 -67q1 -17 1 -36v-20q-2 -93 -37.5 -187t-82 -161.5t-109.5 -133.5t-103 -99.5t-80 -62.5 q-98 -73 -205.5 -125.5t-215 -81.5t-201 -43.5t-199.5 -21.5h-7q-15 0 -27 6q-14 8 -18 17.5t-2 9.5l-1 -2q-6 3 -5 17q0 22 33 20q20 -1 39 -1q32 0 64 3q-23 97 -23 236q0 109 14 243q23 223 82 610q-88 -28 -161.5 -59t-105.5 -48.5t-42 -25.5q-7 -6 -18.5 -17.5t-17 -16 t-14 -7t-16.5 6t-18 26.5q-5 14 -5 22zM324 82q119 22 246.5 68.5t259.5 123.5t236.5 171.5t174.5 223t78 267.5v15q-1 89 -55 153q-60 69 -162.5 102.5t-241.5 36.5h-37q-213 0 -426 -53q-40 -100 -73 -467q-21 -242 -21 -402.5t21 -238.5z" />
<glyph unicode="E" horiz-adv-x="1515" d="M2 272q4 119 118.5 233t303.5 202q-71 4 -128 15t-106 31q-48 19 -74 53q-25 32 -24 76q0 91 120 181q116 88 286 148t366 95q167 30 306 30q24 0 47 -1q80 -4 137.5 -20t84.5 -39q27 -24 38 -44q10 -19 10 -35q1 -35 -29 -67q-28 -32 -73.5 -55t-75 -35t-58.5 -22 q-32 -9 -48.5 0t-31.5 33q-8 13 39 25q4 1 21 5q54 14 95.5 37.5t59 42t17.5 27.5t-2.5 15.5t-15 16t-35 16.5t-65.5 13t-103 8q-22 1 -45 1q-145 0 -307 -33q-188 -38 -331.5 -95.5t-240.5 -124.5q-98 -68 -98 -120q0 -34 30 -59q30 -26 85 -41.5t116.5 -23.5t136.5 -11 q204 77 412 104q109 15 173 15q91 0 91 -30q0 -36 -112 -72q-111 -35 -170 -40q-216 -19 -328 -22q-112 -34 -204 -83.5t-146.5 -98.5t-92 -100t-52 -87t-15.5 -60t8 -53.5t41 -69t83 -71.5t145.5 -55.5t216.5 -26.5h41q115 0 231 14q136 17 232.5 41.5t178 53.5t117.5 45.5 t43 21.5q42 28 45 14q2 -8 -18 -28q-12 -11 -36 -28.5t-107 -62t-177 -77.5q-96 -34 -248 -58q-122 -20 -251 -19q-32 0 -64 1q-68 3 -138.5 14t-150.5 37.5t-140 64t-98 99.5q-36 58 -36 128v11z" />
<glyph unicode="F" horiz-adv-x="933" d="M-92 1194q4 6 12 8t13.5 2.5t18 0t17.5 -0.5q131 3 488 37q13 45 36 45h3q23 -3 26 -41q266 25 361 29q27 1 70 0q112 0 335 -6q40 -2 66 -18t26 -38v-2q-1 -13 -25 -17.5t-47 -2.5l-24 2h-307q-49 0 -449 -23q0 -37 -17 -242t-22 -286q30 1 61.5 2t58.5 1t53 -0.5 t47.5 -1t40.5 -1t33.5 -1.5t25 -1.5t16.5 -0.5l6 -1h11t25 -2t32 -6t25 -12.5t10 -20.5q-2 -25 -88 -25q-236 -4 -359 -8q-7 -149 -10 -194q-5 -81 -5 -131q0 -18 1 -31q2 -52 16 -146q1 -6 6 -19.5t5.5 -18t-4.5 -13.5q-5 -6 -18 -6h-1q-13 0 -31 9t-33.5 30t-25.5 69 q-8 40 -8 92v21q3 83 10 334q-148 -10 -264 -22q-10 -1 -29 -3t-28 -2.5t-20.5 0.5t-17 6t-7.5 15q-7 35 34 39q40 6 89.5 14.5t73.5 12t69 8t106 8.5q22 216 47 526q-189 -13 -282 -22q-65 -5 -113 -5h-33q-58 2 -84 14q-26 10 -26 27q-1 11 4 19z" />
<glyph unicode="G" horiz-adv-x="1503" d="M14 487q4 112 61.5 226.5t150 211t214 181t250.5 143t262 89.5q119 28 222 28h26q72 -2 123.5 -21t75 -46.5t33 -52t8.5 -46.5q-2 -51 -23 -95.5t-53 -75.5t-70 -56.5t-76 -41t-69 -26t-51 -14.5l-19 -4q-2 -1 -6 -1.5t-13 -1.5t-16 0t-13 6.5t-5 14.5q0 13 13 21.5 t25 11.5l13 2l16.5 5.5t41 16t58 26.5t61.5 35.5t59 43.5t43 51q18 31 18 62q0 33 -17 56q-18 25 -49.5 36t-53.5 15t-46 5h-17q-76 0 -175 -22q-112 -26 -234.5 -73t-242.5 -120.5t-216.5 -160.5t-158.5 -200.5t-66 -232.5q-1 -16 -1 -30q0 -80 19 -142q21 -73 74 -128 t148 -81q85 -24 205 -24h28q117 2 219.5 23.5t175.5 55.5t133 78t98 89t64 91t37 82t11 64q-40 -6 -114.5 -17t-130.5 -18.5t-91 -11.5l-71.5 -6.5t-78 -7t-76.5 -6t-79 -5.5t-72 -4q-34 -2 -59 -2q-6 0 -11 1q-29 0 -59 1t-51.5 4.5t-36.5 8.5q-25 10 -31.5 22t5.5 19.5 t36 5.5q27 -1 53 -1q76 0 133 5q84 5 312.5 35.5t320.5 38.5q89 8 168 11q44 1 74 1q24 0 40 -1l34 -1h7t15 -0.5t19 -3t15 -7.5q5 -5 5 -12q0 -21 -27 -26q-25 -4 -92 -4q-20 0 -71 -7q-5 -69 -49.5 -149t-121 -156.5t-172 -139t-215.5 -98.5q-108 -32 -215 -32h-24 q-96 4 -183 25t-162 62t-129.5 97t-83.5 134q-26 70 -26 149v22z" />
<glyph unicode="H" horiz-adv-x="1103" d="M26 428q2 162 17 281q7 65 23.5 193.5t30 227.5t14.5 103q8 92 49 93q21 0 51 -23q7 -5 10 -10t2 -12.5t-1.5 -11t-4.5 -12.5t-4 -10q-8 -19 -37.5 -199t-42.5 -313q-5 -59 -12 -155q52 41 200 72.5t287.5 45t251.5 15.5q4 113 25 301t33 235q16 63 42 97q17 22 35 23 q10 0 21 -7q18 -7 21.5 -21t-1.5 -24l-6 -10q-18 -51 -43 -174q-23 -129 -37 -418q13 -1 52.5 -2.5t80.5 -3.5q36 0 43 -11q4 -6 4 -16q0 -9 -1 -14q-1 -4 -2 -7t-3.5 -5t-3.5 -3t-4.5 -1.5t-5 -0.5h-6h-6.5q-63 -2 -96 -2.5t-54 -1.5q0 -197 -8 -319q-8 -146 -62 -224 t-118 -81h-13q-171 0 -364 124q-101 63 -170 145.5t-98 158.5q-4 -57 -7 -118.5t-5.5 -107t-2.5 -55.5q-1 -27 3.5 -50t9.5 -40t6 -23q0 -17 -17 -17q-14 0 -39 11q-17 8 -25 20t-8 21l1 8q-3 38 -5 102q-1 36 -1 101q0 53 1 125zM174 501q0 -39 74 -130q77 -95 180 -164 q112 -75 216 -107q55 -17 97 -17q37 0 62 13q16 9 28 36t18 72.5t10 87t4 103v96t-1.5 91.5t-1.5 65q-86 -2 -172 -8t-216 -20t-212 -44q-86 -32 -86 -74z" />
<glyph unicode="I" horiz-adv-x="1253" d="M-55 272q0 17 4.5 33t11.5 28t13.5 21.5t11.5 15.5l4 5q1 1 2.5 3t6.5 6t10.5 6t13.5 1.5t16 -4.5t11 -9.5t1 -11.5t-4 -10.5t-6.5 -10.5t-5.5 -7q-4 -10 -7.5 -19t-7.5 -37.5t1.5 -51.5t27 -54t59.5 -52t109 -38t166 -20q14 0 28 -1q128 -1 245 41q130 46 227 126.5 t170.5 185.5t113 220t43.5 228v19q0 77 -22 141q-26 72 -66 114t-93 70.5t-97 39.5t-84 12q-14 1 -28 1q-100 1 -202 -31q-116 -36 -208 -94.5t-166 -126.5t-115 -132t-43 -107v-8q0 -98 92 -150q96 -54 283 -61q17 0 34 -1q51 0 101 5q68 6 116.5 16.5t87 21t58.5 18.5 l19 8q15 6 27 4t10 -14.5t-21 -26.5q-10 -7 -24.5 -16t-55 -27t-86 -30.5t-117.5 -21.5q-54 -7 -112 -7q-19 0 -39 1q-122 4 -219 37.5t-156 99.5q-55 62 -55 143v11q2 55 46.5 130t125 152t180.5 142.5t226 105.5q114 36 225 36q11 0 22 -1q192 -8 316 -142 q117 -127 116 -308v-21q-6 -171 -81 -333t-195 -283t-286 -192q-151 -65 -309 -65q-16 0 -32 1q-113 5 -198 30t-129 56t-71 71.5t-33.5 67.5t-6.5 51z" />
<glyph unicode="J" horiz-adv-x="1155" d="M-74 -104q0 46 23 97t78.5 103.5t134.5 93t204 62.5q94 18 204 18q34 0 69 -2q116 -5 238 -28q24 204 28 385q2 42 12.5 149t20.5 193l10 86l-28 -33q-14 -30 -29 -20q-18 11 -11 49q0 2 1 4q4 16 25.5 71.5t41.5 102.5l19 47q0 2 1 5t4.5 11.5t11 12t20.5 6.5q4 1 8 1 q11 0 26 -7q13 -4 22.5 -9.5t15 -11t8 -13t3.5 -12.5t-0.5 -14t-2.5 -12.5t-4.5 -13t-4.5 -11.5q-8 -20 -31 -150.5t-50 -349.5t-31 -397q0 -24 -7 -92q26 -8 49 -17t37.5 -16t25.5 -12.5t16 -8.5l6 -3q3 -2 6 -5.5t8 -16.5q2 -4 2 -9q0 -8 -6 -18q-7 -6 -15 -5t-15 5l-7 4 q-19 20 -115 47q-10 -78 -27 -155t-44.5 -168t-67.5 -167t-91 -139.5t-122 -98.5q-64 -32 -139 -32h-13q-41 1 -84.5 8.5t-95.5 24.5t-99 42t-91.5 64.5t-77 88.5t-51.5 117.5t-19 148.5zM-12 -178q-1 -5 -1 -11q0 -26 13 -59q14 -40 49 -85t84.5 -83.5t125.5 -67.5t165 -36 q11 -1 22 -1q73 0 138 41q75 48 125 125.5t87 174.5t54.5 188.5t19.5 167.5q-82 15 -206 27q-48 4 -95 4q-80 0 -155 -13q-120 -20 -212 -67.5t-149.5 -126.5t-64.5 -178z" />
<glyph unicode="K" horiz-adv-x="985" d="M-76 528q4 24 40 38q19 7 40 7q22 0 47 -6l4 62q7 116 32 263t45 232.5t24 96.5q1 8 2.5 14t3 9t5 4t6 1t7.5 -2.5t7.5 -4t9 -5.5t8.5 -6q8 -5 13.5 -10.5t7 -11t1.5 -11t-1 -9t-2 -6.5l-1 -3q-69 -309 -92 -613q134 67 280.5 162t260 182t207.5 164.5t145 124.5l51 47 h-2q2 1 4.5 3t10.5 6t15 6q6 2 12 3q1 -1 3 -1q8 0 12 -4q6 -7 7 -17v-6q0 -6 -1 -10l-3 -6q-24 -25 -68 -68.5t-172 -155t-248 -198.5q-250 -181 -452 -289q162 -71 297 -143t212 -124t130.5 -93.5t72.5 -62.5l19 -21l4.5 -4.5t8 -10t9 -14t4 -14t-5.5 -11.5t-13 -4 q-6 0 -12 2q-14 6 -26 16l-12 11q-18 13 -50 35.5t-125 82.5t-181 111t-201 104.5t-201 78.5q-3 -80 -3 -166q0 -110 5 -230q3 -34 -8 -40t-35 3q-20 5 -30.5 17.5t-10.5 23.5q-1 10 -3 28q-2 19 -5 77q-2 44 -2 90v31q4 116 10 180q-71 -1 -97 13q-22 11 -21 39q0 6 1 13z " />
<glyph unicode="L" horiz-adv-x="1406" d="M-8 160q1 30 15.5 61t46.5 63q32 31 92 50q52 16 119 16h22q154 -5 381 -88q34 74 51 202t19.5 229t2.5 284q0 105 34 189t90 134t122 76q61 24 125 23h10q84 -3 144 -51q60 -49 86 -115q24 -61 24 -125v-10q-2 -64 -17.5 -123.5t-38 -103.5t-50 -82.5t-53.5 -64t-48 -44 t-35 -26.5l-12 -9q-4 -3 -10.5 -6t-20 -2t-18.5 14q-4 11 -1.5 18.5t8.5 10.5l5 4q9 6 24 16.5t53.5 47t68.5 76.5t56 103t28 128q1 30 -2 59.5t-15 68t-32 67.5t-59.5 50t-92.5 23h-10q-60 1 -108 -21q-52 -24 -84.5 -62.5t-54.5 -100t-33 -117.5q-10 -58 -14 -136 q-3 -63 -3 -109v-23q1 -54 4 -127q1 -14 0 -29q0 -78 -17 -172q-21 -110 -55 -190q68 -26 186 -76t154 -62q213 -72 365 -92q3 0 9 0.5t9 0.5q4 1 6 -1q2 -1 2 -5q0 -6 -6 -17q-2 -4 -6 -9q-6 -5 -22 -13q-12 -6 -25 -6q-5 0 -10 1q-94 16 -194.5 42.5t-206 63t-156.5 55.5 t-139 54q-61 -90 -178 -154q-109 -60 -251 -59h-22q-65 3 -115.5 20.5t-77.5 40.5t-43.5 52t-21.5 50q-4 18 -4 32v6zM56 150v-6q0 -8 3 -17q4 -13 9.5 -27t21 -27.5t35.5 -24.5t54 -18.5t77 -9.5h17q111 0 201 48q96 52 155 133q-9 3 -41.5 16.5t-43 17t-39 13.5t-47 13.5 t-48.5 9.5t-61.5 8.5t-69.5 3.5h-20q-45 0 -79 -7q-42 -9 -64.5 -23t-36.5 -32.5t-18 -31.5t-4 -23q1 -6 -1 -16z" />
<glyph unicode="M" horiz-adv-x="1918" d="M-152 900.5q0 15.5 6 27.5l5 12q4 9 12 24.5t35 60t56.5 85t75.5 90t94.5 84t111.5 57.5q58 21 117 21h10q72 -2 130 -38.5t93 -92.5t60.5 -123t36.5 -133.5t17.5 -121.5t6.5 -89v-35q3 13 9 36t26 88t42.5 124.5t58 131.5t73 123.5t86.5 85.5q46 32 94 32h6 q51 -2 88.5 -33t57.5 -80t32 -107.5t14 -116.5t2 -106t-3 -78l-3 -30q3 11 8 30.5t24 75.5t40 106.5t55.5 112.5t70.5 106t86 74q46 28 95 27h6q58 -2 100.5 -36.5t62.5 -84.5q19 -48 27 -94q6 -33 6 -62q0 -11 -1 -20q-2 -39 -41 -334.5t-45 -355.5q-4 -40 -4 -74 q0 -46 7 -84q12 -66 25 -87t17 -21l5 -5t6 -12t-7 -18q-5 -5 -12 -5h-5q-10 2 -19 7l-9 4q-3 1 -8 4t-18 17t-23.5 34.5t-21 60t-13.5 89.5q-3 45 -3 92q0 146 28 316q39 235 39 380q0 231 -99 234h-3q-66 0 -134 -86q-68 -88 -115.5 -212t-77.5 -230.5t-38 -167.5 q-8 -59 -14.5 -154.5t-10.5 -166t-4 -73.5q0 -1 -2 -6.5t-3 -9t-4 -10.5t-5.5 -11t-7.5 -10t-9.5 -7t-11.5 -3t-14 2q-15 6 -24 14.5t-12 17.5t-3.5 16.5t0.5 12.5v5q22 243 26 436q0 22 2 72.5t3 87.5t1 93q0 9 1 18q-1 44 -3 79q-2 42 -6 90.5t-12.5 83.5t-20 65t-30 45.5 t-41.5 16.5h-3q-69 0 -150 -126q-83 -128 -148 -336.5t-84 -420.5q-6 -65 -10.5 -132t-7 -107.5t-1.5 -40.5q-2 -3 0.5 -19.5t-8 -35.5t-33.5 -17q-48 4 -56 14t-1 41q8 48 22 206q13 147 13 233v12q-3 190 -6 237q-31 498 -246 506h-9q-50 0 -102 -19q-56 -21 -102.5 -56 t-90.5 -78t-76.5 -86t-57.5 -79t-38 -58l-13 -23q-1 -4 -3 -8.5t-11 -12.5t-23 1q-11 6 -11 21.5z" />
<glyph unicode="N" horiz-adv-x="1388" d="M-268 902q1 34 24 81q9 14 33.5 48t77.5 94t110 110.5t133 87.5q72 35 135 35h7q125 -4 206 -92.5t108 -211.5q26 -124 35 -246q5 -65 5 -119q0 -48 -4 -88l-8 -85q2 11 6 29.5t18 76.5t30.5 113.5t44 131.5t57 140.5t70.5 130.5t84 112q44 44 99 72q51 26 105 26h8 q61 -2 106 -40t67.5 -96t30.5 -120q4 -33 5 -66q0 -28 -4 -55q-4 -37 -22.5 -183.5t-32.5 -261.5t-19 -180q-3 -33 -3 -63q0 -39 4 -71q8 -60 22 -91t29.5 -51.5t26.5 -26.5l11 -6q3 -1 6 -3t9 -11q3 -4 3 -8q0 -6 -5 -13q-2 -2 -12 -4q-5 -1 -10 -1q-6 1 -13 1q-14 2 -30 6 t-33 14.5t-29 26.5q-37 47 -49 172q-5 47 -5 100q0 90 13 201q4 29 13 85.5t15.5 101.5t14.5 107.5t11 111.5q4 50 4 105v7q0 51 -8 89q-8 41 -21 75.5t-38 54t-59 21.5h-10l-104 -36q-57 -40 -103.5 -108.5t-86.5 -147t-70.5 -162.5t-49.5 -143t-28 -99 q-24 -102 -50.5 -248.5t-27.5 -192.5q-5 -39 -19 -52.5t-28 -8.5q-21 6 -38.5 20.5t-17.5 36.5q17 99 43 352q6 63 7 151v14q-1 82 -11 188q-12 114 -36 209.5t-76.5 164.5t-126.5 76q-13 1 -26 1q-43 0 -87 -13q-58 -17 -104 -45.5t-92.5 -70.5t-77.5 -77t-61 -76 t-40 -56.5t-18 -28.5q-5 -7 -12.5 -19t-14.5 -18q-16 -8 -16 15z" />
<glyph unicode="O" horiz-adv-x="1462" d="M-25 559q3 96 44.5 197t107 188.5t152.5 165.5t180 133t191 85q86 26 161 26h20q14 -1 24 -6t13 -10.5t2 -8.5q0 -24 -45 -22h-7q-47 0 -117 -23q-75 -25 -160 -69.5t-170.5 -112.5t-155 -147t-115 -179.5t-49.5 -202.5v-24q1 -77 17 -141q20 -74 52 -122.5t80 -85.5 t93.5 -57t99.5 -32.5t89.5 -16t72.5 -4.5q16 -1 32 -1q139 -1 277 47q154 52 274 144.5t197 226t82 279.5q1 14 1 28q0 96 -25 170q-28 86 -70 132.5t-99.5 76.5t-101 39.5t-86.5 10.5q-18 1 -35 1q-73 0 -139 -10q-82 -12 -134 -33t-91 -42t-55 -36l-17 -15 q-3 -3 -7.5 -6.5t-16 -10t-15.5 0.5q-11 10 -9 22t10 22l8 11q8 7 23.5 18.5t67 40t106.5 50.5q54 22 136 38q70 14 140 14q13 0 26 -1q144 -5 252 -75.5t162 -185.5q49 -105 50 -230q0 -12 -1 -23q-5 -149 -84.5 -294t-206 -254.5t-300.5 -174.5q-157 -59 -320 -59 q-18 0 -35 1q-103 4 -189 27t-144.5 58t-104 82t-71.5 95.5t-42 102t-21 97.5q-4 36 -4 71v14z" />
<glyph unicode="P" horiz-adv-x="686" d="M-319 983q1 22 10 39.5t30 34t33.5 24.5t42.5 25q182 105 363 162q2 12 4.5 30t3.5 23q3 25 8.5 38.5t15.5 15.5q5 1 9 1q3 0 7 -1q8 -2 23 -9q2 -1 10.5 -3.5t11 -5t6 -9.5t2 -20.5t-6.5 -33.5q144 42 234 56q74 11 183 10h50q107 -2 213 -48q107 -44 172 -122 q51 -61 51 -125q0 -18 -4 -35q-21 -99 -78 -183t-133 -142t-167.5 -104t-182 -72.5t-178 -43t-153.5 -20.5q-33 -2 -60 -2t-49 2q0 -71 2.5 -159t5 -148t2.5 -64t2.5 -15.5t2 -16t-4.5 -10.5q-3 -5 -11 -5h-3q-12 1 -31 8q-13 4 -22.5 12t-15.5 17.5t-10 21t-5.5 22t-2 21.5 t0 18.5t0.5 14.5l1 6q0 5 2.5 50t6 118.5t6.5 130.5q-60 32 -60 68q0 12 6 18t15 -2q15 -15 43 -22q6 102 6 182q3 150 59 459q-134 -45 -257 -112t-158 -113q-9 -13 -6.5 -32t-6.5 -22q-16 -12 -27 18.5t-11 53.5zM152 535q27 -5 61 -5q17 0 37 1q58 4 124.5 10t140.5 27 t145 46.5t138.5 68.5t122 94t94.5 122t56 152q4 21 4 40q-1 35 -15 65q-22 46 -60 70.5t-94.5 40.5t-97.5 20.5t-85 6.5q-34 1 -67 1q-100 1 -180 -13q-108 -18 -247 -65q-14 -64 -35.5 -254.5t-29.5 -245.5q-9 -78 -12 -182z" />
<glyph unicode="Q" horiz-adv-x="1488" d="M-35 541q4 107 49 214t115.5 194t158.5 162.5t179 126t177 78.5q84 27 148 27h5q14 0 23.5 -1t19 -7.5t8.5 -17.5q-5 -31 -57 -31q-36 -1 -100.5 -22t-145.5 -59.5t-165 -101t-156 -137.5t-122 -177.5t-59 -213.5q-3 -31 -3 -61q0 -184 102 -293q119 -127 360 -147 q26 -2 52 -2q65 0 136 12q99 17 197.5 55t189.5 101t161.5 140.5t114 180.5t46.5 215v20q0 82 -15 149q-16 75 -41.5 122.5t-67 82t-74 50.5t-79 26t-66.5 11t-50 2h-19q-64 0 -128 -11q-74 -14 -127.5 -35t-97 -42.5t-65.5 -36.5l-22 -16q-2 -2 -5.5 -5t-12.5 -10t-12.5 -6 t-6.5 6q-3 23 40.5 61t112.5 74t167 60q85 21 165 21q14 0 27 -1q90 -5 169 -35t145 -87.5t105 -153.5q40 -99 40 -226q0 -122 -53 -244q-55 -125 -151.5 -226.5t-218 -179.5t-262.5 -118q-126 -37 -248 -37q-15 0 -30 1q-135 5 -243 51.5t-176 121.5t-103 171 q-31 87 -31 183v22zM323 180q2 7 7 12l4 5l4 3q3 2 9.5 6t17 9.5t24 11t32 10.5t41 9.5t49.5 7t59 2.5q5 1 9 1q28 0 60 -3q56 -4 100.5 -9.5t73.5 -12t45 -11t33 -11t20 -7.5q27 -12 -11 -35q-15 -8 -28 -12q-12 -3 -24.5 -2t-21.5 4l-9 2q-34 19 -192 35q-33 4 -63.5 5 t-53.5 -0.5t-42.5 -4t-34.5 -5.5t-24.5 -6t-16.5 -6l-7 -2q-10 -7 -28 -12.5t-29 2.5q-4 5 -4 10q0 2 1 4zM1036 89q0 4 4 8l4 5q15 13 46 25q16 4 23 4q1 0 1 -1q7 0 18 -6t13 -7q252 -84 266 -88q9 -3 20.5 -4.5t20 -3t16.5 -3t12.5 -5t4.5 -9.5q-2 -13 -21 -20 q-16 -7 -42 -7h-7q-97 0 -168 29q-166 68 -198 72q-13 2 -13 11z" />
<glyph unicode="R" horiz-adv-x="1226" d="M-233 993v56q2 18 22 28q209 104 442 164q7 28 7 29q6 22 14 32q6 10 12 12h2q5 0 15 -8q11 -10 15 -14.5t17 -21.5l-2 -10q212 45 424 45h10q88 1 162 -17q79 -18 131.5 -48t89 -67.5t50.5 -75.5q11 -28 11 -55q0 -9 -1 -18q-12 -84 -62.5 -157.5t-120.5 -124.5 t-152 -93.5t-161.5 -68t-145 -43t-105.5 -24.5l-40 -7q181 -144 377 -276t298.5 -192.5t107.5 -60.5q8 -3 8 -9q0 -7 -11 -19q-20 -20 -39 -20q-4 0 -8 1l-6 2q-30 15 -61.5 31t-140 79t-208 128.5t-237.5 169.5t-256 211q-3 7 -4 12t0 8t3 5.5t5 3l6 1t6 0.5t5 -1h2 q37 -4 83 -4h39q69 2 149.5 23t161 48.5t155.5 72t134 94.5q58 50 94 114q40 70 40 138q0 69 -86 113q-90 46 -246 46q-252 0 -477 -49q-35 -193 -82 -510q-13 -93 -22 -177.5t-13 -146.5q-4 -60 -6 -112q-2 -41 -1 -73q-1 -9 -1 -15q0 -36 1.5 -58.5t2.5 -36.5l2 -14 q0 -30 -38 -17q-35 12 -49 35q-3 6 -3 10q-1 26 -2 74v13q0 52 6 176q7 142 25 278q35 263 100 555q-56 -14 -110 -31t-95 -33t-77 -31.5t-61.5 -28.5t-43.5 -23t-28 -16l-9 -5q-24 -13 -24 4z" />
<glyph unicode="S" horiz-adv-x="1372" d="M-57 920q4 94 112.5 174t269 129t334.5 76.5t324 27.5h2q58 0 117 -8t118.5 -26.5t104.5 -46t72 -70.5q24 -39 24 -85v-10q-4 -68 -71 -127q-66 -60 -145 -86q-57 -19 -99 -19q-16 0 -29 3q-35 3 -35 31q1 21 18 30q9 4 17 0q17 -3 55.5 5t81.5 25.5t78 53t41 80.5 q2 15 -3 32.5t-28.5 43t-63.5 45t-119 34.5t-185 17h-26q-144 0 -300 -30q-170 -33 -296 -83t-208.5 -108t-83.5 -104q-1 -31 13.5 -61t47 -58.5t65.5 -52.5t90.5 -51t99 -46t113.5 -45t112 -40.5t115 -39.5q51 -18 76 -26q38 -13 105 -33.5t113 -35.5t105 -36.5t98.5 -42 t75.5 -45t53 -53.5t15 -61q-1 -19 -15 -42t-41 -49.5t-72.5 -50.5t-104 -43.5t-142.5 -29.5q-65 -8 -136 -8q-22 0 -44 1q-90 2 -175.5 17.5t-150.5 38t-122 49t-96.5 52.5t-68 47t-41.5 35l-14 13q1 4 4.5 9t17 12t34.5 -10q11 -7 30.5 -19t83.5 -43.5t131.5 -56 t168.5 -46.5t200 -26q9 0 19 -1q45 0 105 8q72 9 147 27t128 51t54 73q1 28 -26 54t-68.5 47t-105.5 43.5t-120.5 39t-131.5 39.5t-122 39q-263 92 -317 113q-281 113 -354 233q-29 48 -29 100v7z" />
<glyph unicode="T" horiz-adv-x="833" d="M-160 1126q-7 11 -7 19q0 12 16 16q4 2 10 1q184 17 258 26q5 1 127 16t236.5 28t260.5 23q112 8 191 8q24 0 45 -1l260 -15q3 -5 7 -13q4 -6 10 -22q4 -10 5 -18q0 -4 -2 -8q-4 -10 -20 -10q-83 5 -174 5q-194 0 -422 -22q-22 -163 -49 -467q-8 -96 -13 -185t-6 -157 q-1 -45 -1 -85v-39q0 -56 3.5 -98.5t5.5 -69t4.5 -47t2.5 -21.5q1 -13 -19 -13q-5 0 -11 1q-43 6 -64 37q-5 8 -7 16q-5 16 -5 95q0 50 2 124q5 193 18 358q11 136 57 545q-50 -6 -119 -14t-118.5 -13.5t-108.5 -12t-103 -10.5q-45 -5 -90 -7q-38 -2 -68 -2h-12q-36 0 -63 4 q-22 3 -37 28z" />
<glyph unicode="U" horiz-adv-x="868" d="M4 567v30q0 113 19 251q22 156 45 248l24 94q2 4 6.5 9t20.5 11t33 2q17 -5 27.5 -19t12.5 -25l1 -11q-3 -7 -9 -21.5t-21.5 -67.5t-28 -115t-25.5 -165t-19 -217q-3 -23 -3 -51q-1 -20 1 -42q4 -54 8.5 -112t23 -115t44 -103t71 -76t103.5 -33h9q71 0 133 43 q66 46 110.5 121t81 173t57.5 193.5t36 188t20 150.5t6 87q1 22 1 49q0 87 -10 218q-1 20 8 20t26 -17q32 -31 45 -57l1 -4q6 -28 6 -90q0 -79 -10 -213q-22 -263 -94 -476.5t-190 -339.5q-107 -113 -233 -113q-14 0 -28 1q-48 5 -87 19.5t-68.5 34t-52.5 51.5t-38.5 61.5 t-27 74.5t-17.5 80t-10 89t-5.5 90t-2.5 94z" />
<glyph unicode="V" horiz-adv-x="776" d="M-23 1192q0 30 36 21q39 -10 64 -46q14 -20 13 -39v-11q0 -39 10 -149q12 -128 36.5 -299.5t73.5 -345.5t109 -260q76 223 152 407t134.5 301.5t118.5 209.5t96.5 137.5t78.5 79t54 39t32 12.5q3 2 4 2q3 1 5 1q10 0 14 -12q3 -11 3 -23q0 -5 -1 -11l-2 -18q-4 0 -13 -4 t-39.5 -31.5t-67.5 -75t-99 -148t-132 -235.5q-108 -210 -181.5 -420.5t-86.5 -291.5q-3 -20 -17 -30q-13 -9 -27 -9h-3q-16 1 -31 5.5t-24 10.5q-61 43 -121.5 222t-99.5 386.5t-64 384t-25 240.5z" />
<glyph unicode="W" horiz-adv-x="1413" d="M-24 656q6 118 19.5 223.5t32 181t35.5 104.5q7 9 30.5 5t44.5 -21t12 -31q-25 -38 -45.5 -133t-31.5 -215q-7 -75 -7 -154q0 -47 2 -95q6 -129 29.5 -236.5t76 -178t127.5 -71.5q2 0 4 -1q150 0 264 228q-27 108 -27 224q0 80 13 163q8 60 23.5 130.5t36.5 143.5t49 119 q24 40 47 40q3 0 6 -1q57 -12 67 -104q2 -21 3 -47q0 -87 -27 -230q-52 -263 -135 -446q41 -197 176 -197q84 0 160.5 60t132.5 156t103 215.5t77.5 241t50.5 230.5q19 108 27 184q5 50 5 78q0 15 -1 25q5 7 25 7t41 -16q18 -14 18 -33v-5q-8 -54 -15 -100t-24.5 -139.5 t-36.5 -172.5t-49.5 -182.5t-63.5 -186t-78.5 -167.5t-95.5 -142t-114 -94t-134 -39h-3q-81 0 -140 56q-60 57 -96 157q-121 -216 -269 -216q-7 0 -14 1q-99 8 -168.5 71.5t-103.5 159.5t-49 214q-11 86 -11 172q0 32 1 64zM612 356q55 139 80 293q28 183 28 245q0 31 -7 32 q-6 0 -21.5 -37.5t-33.5 -100t-29 -122.5q-20 -113 -20 -226q0 -42 3 -84z" />
<glyph unicode="X" horiz-adv-x="872" d="M-18 16q9 28 52 106.5t140 227t213 299.5q-153 289 -237 537q-11 33 29 37q36 3 59 -13l4 -4q-3 -14 59.5 -158.5t149.5 -318.5q237 296 512 551q2 3 7 3q6 -1 14 -5q16 -8 26 -19q4 -6 4 -12.5t-4 -13.5q-28 -27 -76.5 -76.5t-185 -202t-256.5 -305.5q243 -472 434 -649 q34 -21 18 -39q-13 -14 -39 -14q-16 0 -37 5q-6 1 -12 3q-37 15 -166.5 197t-259.5 419q-241 -320 -393 -608q-7 1 -17 3t-26 16q-13 11 -12 28v6z" />
<glyph unicode="Y" horiz-adv-x="870" d="M-18 -506q-4 6 -4 12q0 8 7 15q13 13 31 19.5t19 2.5q3 -6 9 -16t29 -36t51.5 -45.5t78.5 -36t108 -17.5q29 0 49.5 1.5t60 11t69 27t66.5 54.5t62.5 87.5t46.5 130.5t29 181q8 109 27 523q-182 -441 -429 -441h-9q-90 2 -153 55t-92 139t-38 196q-4 45 -4 92q0 67 8 137 q13 120 38 236t60.5 217.5t75.5 172.5l9 12q7 6 15 6q25 0 60 -67q-48 -88 -87.5 -206t-64.5 -242.5t-30 -246.5v-50q0 -92 13 -168q17 -97 65.5 -157.5t124.5 -63.5h6q66 0 129 41q66 42 113 104.5t90 148t67.5 151t44.5 132.5q13 160 33 277q1 5 4.5 28t6 36.5t7.5 39.5 t10 43t12 40t15 37t18 28t21.5 19.5t24.5 4.5q10 -1 17.5 -9t11.5 -26q3 -16 3 -38q0 -3 -1 -6q0 -26 -7 -65.5t-20 -88.5q-60 -214 -101 -340q-2 -94 -3 -326.5t-3 -345.5q-2 -134 -42 -246t-105 -184.5t-149 -111.5q-76 -34 -158 -34h-17q-68 2 -126.5 19t-93.5 37.5 t-61.5 44.5t-36.5 37.5t-11 17.5z" />
<glyph unicode="Z" horiz-adv-x="1026" d="M-27 68q-1 9 -1 19q0 86 96 220q106 150 307 324q54 47 121 98t129 94t125.5 85.5t115 76t92 61t62.5 45t20 23.5q-3 9 -56 9q-56 -1 -172 -11q-222 -20 -458 -61.5t-268 -77.5q-8 -1 -13.5 19t-5 41t6.5 24q436 145 912 146q28 0 56 -1q19 -6 47 -35q29 -29 41 -63 q4 -10 3 -20q0 -22 -21 -40q-88 -52 -159.5 -98t-145 -100.5t-115.5 -88t-135.5 -109t-140.5 -113.5q-101 -80 -196 -185q-96 -106 -146 -190q-39 -65 -38 -96q0 -9 3 -15q12 -20 40 -24q9 -1 21 -1q23 0 55 5q48 8 102 20t136 24t160 15q26 1 55 2q68 0 147 -8 q113 -10 181 -19l68 -10q12 -4 8 -21t-11 -31t-10 -17q-7 3 -25 7q-20 3 -108 9q-51 3 -114 4q-46 0 -99 -2q-149 -4 -254.5 -14t-195.5 -25.5t-125 -19.5h-2q-18 -1 -42 29q-24 32 -38 64z" />
<glyph unicode="[" horiz-adv-x="757" />
<glyph unicode="\" horiz-adv-x="860" d="M71 1429.5q3 20.5 29 2.5q14 -8 23 -16t17 -19.5t12 -17.5t12.5 -24.5t13.5 -27.5q8 -17 259.5 -621t279.5 -659q45 -90 18 -92q-3 -1 -8 0q-14 3 -22 6t-24.5 18.5t-33.5 43.5l2 -3q-69 139 -163 362t-233.5 573.5t-174.5 437.5q-10 16 -7 36.5z" />
<glyph unicode="]" horiz-adv-x="591" />
<glyph unicode="^" horiz-adv-x="473" d="M121.5 536q-4.5 10 1.5 21q8 9 50.5 52.5t47.5 49.5q20 20 31 19.5t22 -19.5q6 -9 27 -47t23 -43q11 -21 -15 -47q-26 -29 -51 17q-12 23 -33 49q-42 -42 -69 -66q-7 -7 -18.5 -1.5t-16 15.5z" />
<glyph unicode="_" horiz-adv-x="1026" d="M10 -63q-16 22 26 27q22 3 62 1q61 -2 405.5 7t366.5 8q9 0 30 -0.5t27.5 -1t20.5 -3t24.5 -8t24.5 -14.5t15.5 -16.5t-6.5 -11.5t-16.5 -6t-18.5 -3q-255 -26 -424 -29q-363 -6 -445 4h2q-33 4 -54 12.5t-26 14.5t-14 19z" />
<glyph unicode="`" horiz-adv-x="440" d="M134 815.5q-1 15.5 11 30.5q13 16 21 20t15.5 -2t19.5 -24q6 -10 36 -79t37 -85q2 -7 -1 -24t-13 -25q-28 -21 -55 41l-60 118q-3 3 -6.5 8.5t-4.5 21z" />
<glyph unicode="a" horiz-adv-x="608" d="M4 260q9 68 35 124t59 88t66 49q31 16 56 16h3q33 -1 57 -12.5t33 -27.5t14.5 -33t3.5 -28.5t-1 -15.5q-2 -8 -5 -14t-5 -10.5t-5.5 -7t-5.5 -4.5t-5.5 -2.5t-5 -1t-5.5 1t-5 1.5t-5 2l-4 2q-2 3 0.5 22t-12.5 42t-46 24h-2q-42 1 -81 -53q-40 -54 -56 -127 q-11 -43 -11 -83q1 -25 5 -48q12 -60 47 -60q26 0 53 32t46 77t31.5 84.5t16.5 62.5q5 8 22.5 8.5t36.5 -10.5t17 -26q-1 0 -8 -22q-6 -24 -10 -56q-3 -22 -3 -43q0 -11 1 -21q2 -32 23 -54.5t59 -22.5q105 0 249 262q11 20 21 5q7 -10 7 -25q0 -21 -13 -53l-10 -21 q-17 -33 -39 -66t-57 -75.5t-78 -69t-85 -27.5q-34 -1 -61.5 11.5t-41.5 31t-23.5 36.5t-12.5 31l-2 13q-3 -5 -8.5 -14.5t-22 -32.5t-32.5 -41t-39 -32q-22 -14 -40 -13h-3q-18 0 -38 9t-42 31q-22 23 -32 71q-5 26 -5 56q0 28 4 60z" />
<glyph unicode="b" horiz-adv-x="466" d="M-4 172v8q0 59 7 102l7 46q45 275 92 774q12 25 32 29q5 1 9 1q14 0 26 -8q16 -12 26 -31.5t6 -35.5l-10 -41q-10 -42 -26.5 -121t-33.5 -174.5t-31.5 -221.5t-19.5 -243q0 3 8.5 31.5t27.5 73t45 85.5t67 68q34 22 70 22q8 0 17 -1q30 -4 50.5 -22t29 -46.5t12.5 -55.5 q3 -18 3 -39q0 -11 -1 -22q-2 -34 -3.5 -49t-4.5 -33q-10 -66 -38.5 -118.5t-62 -80.5t-63.5 -42q-28 -13 -48 -13h-3q-22 1 -46.5 10t-38 17t-13.5 10q0 -1 -5 -6t-13 -9t-17.5 -5t-20.5 9.5t-20 31.5q-16 36 -16 100zM106 139q0 -4 6 -17q6 -12 24 -26q17 -14 41 -14h3 q70 4 125 105q49 91 49 181q0 91 -50 97h-11q-34 -2 -65.5 -36t-52.5 -81.5t-37.5 -95t-23.5 -80.5z" />
<glyph unicode="c" horiz-adv-x="509" d="M0 248q2 70 30 141t86 122q54 48 122 48h8q51 -1 79.5 -30t28.5 -74q0 -29 -10.5 -54t-19 -35.5t-25.5 -27.5q-30 -30 -55 -12q-7 6 -4 24.5t12 30.5q16 20 24 46t1 46.5t-33 22.5h-5q-56 0 -104 -66q-50 -69 -53 -162v-16q0 -83 30 -121q32 -42 119 -43q34 0 66 9t57 22 t50.5 36.5t41.5 41.5t36 48.5t29.5 46t25.5 45t20 36.5q11 21 21 8q7 -9 7 -24q0 -20 -12 -50l-10 -24q-5 -12 -15.5 -32t-41.5 -61.5t-67.5 -74t-95 -59.5t-122.5 -29h-9q-92 0 -152 59q-60 58 -60 150v12z" />
<glyph unicode="d" horiz-adv-x="659" d="M-20 203q5 80 36 145t71 100.5t78 53.5q34 16 57 16h5q16 0 25 -6q17 159 53 299t89 229q49 83 100 82h8q50 -6 62 -72q4 -23 4 -53q0 -53 -14 -122q-22 -108 -57 -220.5t-83 -240.5q-42 -108 -84 -178q37 -117 112 -125h9q29 1 59 17q36 20 61 44.5t55.5 69t43.5 67 t35 62.5q11 20 22 8q7 -9 7 -25q0 -20 -12 -51q-4 -10 -9 -20q-9 -18 -20 -38.5t-39.5 -61.5t-58 -71t-72.5 -52q-39 -21 -78 -21h-7q-103 5 -155 123q-91 -125 -175 -125h-8q-16 1 -30.5 4t-33 14t-31.5 28t-21 48q-5 22 -5 49q0 11 1 23zM55 211q-1 -12 -1 -22 q0 -87 52 -89h3q66 0 149 146q-14 72 -14 156v30q-14 14 -35 17h-4q-43 0 -93 -78q-52 -82 -57 -160zM307 338q44 92 81.5 196t51.5 158q23 77 40 207q10 76 10 109q0 23 -5 24h-2q-6 0 -13 -6q-9 -6 -23.5 -27.5t-30 -56t-35.5 -96.5t-39 -141q-37 -162 -37 -299 q0 -35 2 -68z" />
<glyph unicode="e" horiz-adv-x="282" d="M-145 297q2 42 19.5 96t47.5 100q30 47 68 67q17 9 35 9q22 0 45 -14q36 -24 43 -65q3 -20 4 -36q-1 -18 -5 -32q-8 -26 -28 -78q-4 -11 -6 -16q-34 -86 -119 -189q32 -28 86 -28q24 0 46.5 5.5t43.5 18.5t38.5 25t36 34t31 36t29 40.5t24 37.5t22.5 37.5t18 31.5 q11 20 20 6q6 -9 6 -24q0 -22 -13 -55q-5 -11 -11 -23q-9 -18 -19.5 -37.5t-39 -60.5t-57.5 -71q-30 -28 -74 -52q-42 -23 -83 -23h-4q-204 5 -204 240v20zM-70 190q16 18 29.5 35.5t21 28.5t15 28t10 22.5t9 24.5t8.5 23q13 34 21 64q5 21 6 40q0 7 -1 14q-3 24 -20 28h-2 q-19 0 -47 -49q-28 -52 -46 -128q-10 -43 -9 -79q-1 -28 5 -52z" />
<glyph unicode="f" horiz-adv-x="466" d="M-59 -313q35 380 105.5 764t148.5 624q9 27 28 27q9 0 21 -7q29 -17 38 -49q3 -12 1 -20q-5 -12 -14.5 -36t-36.5 -106t-51.5 -174.5t-54.5 -241t-52 -306.5q16 3 32 3q31 0 64 -11q50 -16 84 -50q31 4 63.5 24t55.5 42t50.5 59t40 57t33.5 56t21 37q10 20 19 6 q7 -10 7 -26q0 -21 -13 -53q-5 -11 -11 -23l-4 -9q-5 -9 -9 -17t-12 -22.5t-16 -27.5t-19.5 -29.5t-24 -30.5t-28 -29t-32 -27t-36.5 -22t-40 -16q98 -136 98 -365q0 -37 -2 -75q-3 -62 -18 -131.5t-42 -140.5t-74 -117q-45 -43 -100 -43h-5q-114 3 -174 145 q-46 108 -46 257q0 50 5 104zM18 -454v-8q0 -67 8 -112q9 -47 23.5 -90.5t40.5 -65t62 -22.5v2h4q142 0 176 394q4 48 4 90q0 225 -107 307q-43 0 -91 15t-72 42q-11 -82 -18 -137.5t-16 -140.5t-11 -143.5t-3 -130.5z" />
<glyph unicode="g" horiz-adv-x="430" d="M-10 -672q18 163 99 329.5t179 274.5l-10 199q-3 -5 -8 -14t-21.5 -30.5t-34.5 -37t-44 -25.5t-52 -4q-42 10 -67.5 37t-32.5 65q-4 23 -4 47q0 18 2 37q5 44 22 93q33 100 84 161q44 51 97 51q9 0 18 -1q32 -4 56 -21t32 -32l8 -15l25 47q10 20 40 15q25 -5 26 -23 q0 -6 -3 -12q-11 -22 -61 -211q-11 -45 -11 -179q0 -38 1 -83q47 38 80 41q5 3 10 -10t5 -22q0 -7 -4 -11q-1 -2 -3 -2q-36 -20 -86 -70q1 -20 5 -132q4 -99 4 -124q0 -3 -1 -5v-118q-2 -63 -16.5 -132.5t-42 -137.5t-76.5 -113.5t-111 -48.5h-3q-49 0 -79 55 q-24 42 -24 114q0 22 2 48zM52 -738q1 -19 4 -42t13 -38t27 -18q5 -1 11 -1q34 0 66 43q37 51 59.5 133t27.5 172q10 146 10 337q-90 -119 -152.5 -273.5t-62.5 -238.5q0 -5 -1 -30q-2 -19 -2 -34v-10zM86 260q-13 -69 -13 -112q0 -72 36 -72h1q44 0 88 66q45 68 68 136 l23 68q-19 -8 -21 0q-1 3 -3 31t-11 50t-29 26q-4 1 -9 1q-37 0 -76 -62q-44 -68 -54 -132z" />
<glyph unicode="h" horiz-adv-x="610" d="M-12 120v19q0 19 1 39q2 30 5.5 60t8 57.5t8.5 49t7 35.5l2 13q2 127 27 371q12 123 36 212q25 88 57 136q32 47 69 47h2q11 0 27 -6.5t35 -20t29 -42.5q6 -18 5 -39q0 -14 -2 -29q-11 -68 -66 -230.5t-104 -291.5l-49 -129l-14 -205q4 11 11 30t28.5 67t42.5 84.5 t48.5 66.5t51.5 30q32 0 48.5 -9t18.5 -26.5t-1.5 -35t-10.5 -44.5t-8 -44q-2 -25 -2 -47q0 -146 86 -146q32 1 65.5 21t59 47.5t53.5 68.5t44 69t36 64q5 10 8 15q11 20 21 5q7 -10 7 -26q0 -22 -13 -55q-4 -10 -9 -20q-10 -20 -20 -39t-39.5 -63.5t-58.5 -75.5t-73 -57.5 t-87 -27.5h-5q-45 0 -76 17q-33 18 -47 47q-13 28 -21 64q-5 24 -6 49q0 11 2 23q4 36 5 66t5 48t-3 20h-1q-20 0 -84 -134q-66 -138 -66 -157q0 -36 -29 -36t-50 28q-7 10 -9 21q-5 18 -6 46zM102 598q5 13 14 36t32 85.5t40 118.5q16 54 31 112q15 56 15 92q0 38 -19 41 h-2q-14 0 -27 -23q-14 -25 -25 -68t-20.5 -95t-16.5 -104.5t-12 -96t-8 -70.5z" />
<glyph unicode="i" horiz-adv-x="395" d="M2 260l21 137q7 18 26 24t35 -2t16 -26l-5 -25q-5 -26 -9 -57q-4 -28 -4 -62v-8q0 -39 8 -69q6 -32 30 -52q21 -19 55 -18h7q31 1 64.5 23t59 49.5t55.5 71t44.5 69t34.5 62.5q11 21 21 7q7 -10 7 -26q0 -21 -12 -53l-10 -22q-8 -16 -20 -37.5t-40 -61.5t-57.5 -71 t-71.5 -54.5t-83 -23.5q-38 0 -68.5 13.5t-48.5 36t-30.5 48t-17.5 52t-7 45.5q-1 11 0 20v10zM6 563q0 19 18 43q15 21 38 21h8q45 -6 45 -57q0 -10 -2 -21q-3 -22 -21 -35q-15 -11 -33 -11q-4 0 -8 1q-27 4 -37 22q-9 15 -8 31v6z" />
<glyph unicode="j" horiz-adv-x="251" d="M-451 -496q4 64 49.5 131t113.5 121.5t143 97t147 68.5v75q-1 29 -1 49t1 32q0 23 1 72.5t4 77.5t8 67.5t13 71t19 59.5q6 7 24.5 7t36 -11.5t11.5 -26.5q-19 -44 -30.5 -102t-12.5 -93l-2 -36q2 -102 2 -221q33 7 58 7q8 0 16 -1l25 -19q14 -14 14 -23q0 -6 -7 -11 q-12 3 -27 3q-32 0 -79 -12q-4 -191 -17 -262q-17 -80 -48 -140t-63.5 -92.5t-72.5 -52t-68.5 -25t-56.5 -5.5q-92 2 -148 56q-53 50 -53 127v11zM-385 -500v-13q0 -115 135 -130q7 -1 13 -1q44 0 83 28q44 33 73 86t47.5 107.5t25.5 103.5q10 71 10 182 q-90 -36 -176.5 -94.5t-147.5 -132t-63 -136.5zM43 565q0 20 20 49q18 27 43 27h5q49 -5 49 -70q-1 -32 -26 -49q-20 -15 -38 -15q-4 0 -8 1q-26 4 -36 21q-9 14 -9 30v6z" />
<glyph unicode="k" horiz-adv-x="722" d="M0 231q6 107 123 818q2 10 3.5 25.5t3.5 19.5t4 10t6 6h2q6 -1 13 -1.5t21 -4.5q20 -5 26 -28t2 -44l-3 -20q-12 -46 -29.5 -125t-50.5 -285.5t-41 -368.5q7 7 36.5 61.5t61.5 109t80 99.5q45 42 86 42h6q60 -5 83 -43q16 -27 16 -58q0 -14 -3 -28q-9 -43 -33.5 -81.5 t-53.5 -62.5t-56.5 -42t-46.5 -26l-18 -7l5 -10t16.5 -21.5t31 -27.5t49 -22t68.5 -10q44 0 83 9t68 21t57.5 35t45.5 39.5t38 46.5t29.5 44t25 44t19.5 36q9 20 19 7q7 -10 7 -25q0 -21 -12 -53q-4 -11 -10 -23q-119 -246 -381 -250h-5q-165 0 -214 143q-5 14 -6 25 t1.5 18.5t5.5 12.5t9.5 8.5t10.5 5t10.5 3t7.5 1.5q66 14 115.5 65.5t56.5 98.5v25.5t-11.5 26.5t-33.5 11q-51 -2 -139 -131.5t-121 -259.5q-6 -27 -13 -44t-14 -22.5t-10 -6.5t-10 -1q-40 0 -40 135q0 36 3 80z" />
<glyph unicode="l" horiz-adv-x="385" d="M-131 442q0 20 -0.5 44.5t0.5 54.5q1 77 22.5 178.5t57 196.5t89.5 159q50 60 102 60h7q75 -3 103 -91q15 -48 14 -115q0 -56 -10 -124q-26 -181 -112 -360.5t-152 -256.5q60 -92 147 -92q51 0 96.5 25t87 78.5t58 79.5t47.5 84q2 3 3.5 5.5t2.5 4.5q12 20 22 5 q6 -9 6 -23q0 -22 -14 -56l-10 -20q-10 -20 -20 -39t-41.5 -61.5t-65 -71.5t-85.5 -52q-46 -20 -96 -20h-13q-50 2 -89.5 20.5t-65.5 44.5t-44 69t-27.5 81t-14 95t-5.5 97zM-70 537q-2 -23 -2 -48q0 -49 6 -108q10 -90 29 -143q80 116 119 211.5t94 312.5q10 36 16 100 q3 26 3 52q1 38 -5 78q-10 66 -45 67h-3q-36 0 -80 -69q-46 -72 -82.5 -195.5t-49.5 -257.5z" />
<glyph unicode="m" horiz-adv-x="970" d="M25 334q7 13 45 76q13 20 29.5 25t33.5 -9t29 -47q8 -22 8 -64q0 -13 -1 -28q-3 -64 -8 -103t5 -53q9 -4 26.5 21t36.5 66t36.5 81.5t32 76.5t17.5 42q15 27 43.5 33t51.5 -15.5t24 -64.5q0 -5 -4 -69q-4 -57 -4 -102v-11q0 -48 10 -50q4 -1 12 13t18 37.5t21.5 52 t23.5 60t22 58t18.5 49.5t11.5 31q14 33 46 33q1 -1 3 -1q34 -2 60 -32q4 -7 4 -34.5t-7 -64t-7 -77.5v-8q0 -36 4 -68q4 -35 26 -59.5t60 -26.5h6q30 0 61 17q34 19 59 44t55 68t44 67.5t35 63.5q2 3 2.5 4l1.5 3l2 4q11 20 20 6q6 -10 6 -25q0 -23 -14 -59q-3 -9 -8 -19 q-49 -90 -88 -135q-93 -110 -191 -110h-4q-61 2 -96 39t-42 89q-5 40 -5 81v23q2 52 6.5 88t1.5 36q-4 1 -21 -51.5t-38 -115.5q-21 -64 -55 -116t-69 -51h-1q-30 1 -44 31q-13 28 -13 67q-1 35 3 85q1 20 1.5 38t-1.5 32q-2 29 -16 30q-8 1 -29 -48t-45 -108 q-24 -58 -58 -106q-32 -45 -62 -45h-4q-31 3 -44 37q-11 29 -11 67v11q3 46 7 92q4 41 4 70v6q0 32 -14 32q-6 0 -41 -63q-11 -12 -25 5q-9 12 -9 25q0 11 6 23z" />
<glyph unicode="n" horiz-adv-x="708" d="M25 334q7 13 45 76q8 14 20 23t26 10.5t28 -10t24 -36.5q11 -32 11 -70q0 -41 -7 -81q-6 -36 -5 -62.5t15 -29.5q9 -2 24.5 23t34 66t34.5 80.5t31.5 78t19.5 47.5q14 33 42 33t54 -31q5 -8 3.5 -35t-10 -63.5t-11.5 -77.5q-1 -20 -1 -39.5t1 -36.5q2 -35 23.5 -59 t59.5 -27h10q37 1 72 19q40 22 78.5 73t53.5 75.5t47 82.5q4 7 6 10q11 20 20 5q7 -10 7 -26q0 -22 -14 -56q-4 -10 -9 -20q-8 -17 -19 -36.5t-38 -57t-56 -65.5t-72 -49q-39 -19 -79 -19h-7q-59 2 -94 29t-44 65t-11 76q-1 28 -1 51q1 8 1 15q0 28 -8 30q-4 1 -11.5 -17 t-16.5 -46t-23.5 -60.5t-31 -60t-39 -45t-46.5 -16.5q-17 1 -28.5 9t-17.5 23.5t-9.5 29.5t-3 39t1 39t3 42t3.5 37q2 20 2 35q0 38 -13 38q-2 0 -4.5 -3.5t-7 -11.5l-9 -16t-12 -23t-14.5 -27q-11 -12 -25 5q-9 12 -9 25q0 11 6 23z" />
<glyph unicode="o" horiz-adv-x="483" d="M-16 221q6 73 37.5 154t76.5 88q14 72 92 78h6q46 0 86 -58q35 -51 34 -142q0 -19 -1 -40q0 -13 -4 -37q35 -12 71 -13h4q34 0 67 21q35 22 57 66l20 35q10 19 21 6q9 -10 9 -27q0 -13 -5 -30q-9 -28 -28.5 -53t-52.5 -48q-32 -23 -76 -29q-15 -2 -33 -2q-32 0 -70 7 q-24 -77 -73 -125q-45 -45 -109 -45h-11q-46 3 -75 37t-37 75q-6 30 -7 61q0 10 1 21zM53 215q0 -9 -1 -18q0 -107 69 -111h5q33 0 63 38q32 40 47 93q-87 51 -123 145q-17 -12 -37.5 -63.5t-22.5 -83.5zM166 440q-3 -11 -3 -22q0 -17 7 -33q15 -51 78 -92v29q0 149 -48 149 h-3q-24 -1 -31 -31z" />
<glyph unicode="p" horiz-adv-x="577" d="M-88 -590q1 22 3 36q1 4 1 5q11 130 76.5 342t120.5 336q21 50 45 100q-4 33 -11 60q-7 32 -18.5 58t-22.5 26q-3 0 -9 -10.5t-21 -38.5t-23 -43q-11 -12 -25 5q-16 21 -3 48q59 107 73 112q8 3 17 3q24 0 44 -29q27 -39 42 -103q104 197 204 197h5q33 -2 59 -14.5 t40 -32.5t23 -38.5t12.5 -41t4 -30t0.5 -15.5q-1 -62 -32.5 -134.5t-85.5 -124.5q-50 -48 -101 -48h-8q-63 5 -91 45q6 -58 6 -155.5t-6 -235.5q-3 -55 -8.5 -105.5t-19.5 -119t-33.5 -117t-53.5 -81.5q-32 -30 -72 -30h-7q-41 3 -68 22t-38 45t-15 56q-4 25 -4 43v8z M-18 -539q-2 -31 -2 -55q0 -104 40 -106h2q34 0 60 40q28 40 43.5 108.5t23.5 125.5t13 119q6 88 6 183q0 109 -8 228q-19 -54 -31 -79q-41 -94 -88 -253.5t-59 -310.5zM215 225q6 -37 6 -73q16 16 27 16q4 -1 12 -16.5t24 -31t40 -16.5h3q37 0 67 24q30 26 47 67t25.5 74.5 t12.5 64.5q2 16 2 30q0 82 -71 91h-6q-49 0 -94 -61q-49 -64 -95 -169z" />
<glyph unicode="q" horiz-adv-x="671" d="M-2 221q1 32 13 72.5t37.5 84t59.5 79.5t84.5 59.5t106.5 24.5q43 0 78 -49q6 9 25 3t28 -18q6 -9 7 -19t-2.5 -20.5t-7.5 -20t-10 -22t-9 -22.5q-10 -30 -24.5 -76.5t-31.5 -115.5t-18 -101q-3 -48 28 -45q47 3 95.5 31.5t85.5 65.5t74.5 87.5t58 83.5t39.5 68 q11 20 21 6q7 -10 7 -26q0 -21 -12 -53q-4 -11 -10 -22q-9 -19 -17 -33.5t-35 -53.5t-57.5 -70t-82.5 -69.5t-111 -65.5q3 -6 8.5 -17.5t20 -48.5t25 -76t19.5 -97t9 -114q0 -34 -3.5 -70.5t-15 -81t-29 -78.5t-49 -57.5t-71.5 -23.5t-68.5 24.5t-40.5 62.5t-20 83 q-7 37 -7 71v13q1 24 1 44v26q3 64 36.5 261.5t53.5 287.5q-4 -5 -10 -13.5t-25.5 -29.5t-39 -37t-46.5 -28.5t-51 -10.5q-117 9 -117 134v13zM90 213v-13q0 -61 43 -65q5 -1 9 -1q36 0 74 35q44 39 72.5 90t41.5 97q3 8 4 28.5t0 37.5v16q-1 1 0.5 9t-6 17.5t-23.5 10.5h-3 q-59 0 -130 -72q-72 -74 -82 -190zM279 -399q-1 -19 -1 -37.5t1 -35.5q2 -36 8.5 -70.5t21 -55t35.5 -20.5h2q34 0 61 42q28 44 40.5 97t13.5 100v17q0 70 -22 160q-25 100 -62 163l-5 -1q-4 0 -9.5 -0.5t-13.5 0t-15 1.5q-16 -20 -34.5 -151.5t-20.5 -208.5z" />
<glyph unicode="r" horiz-adv-x="565" d="M27 334q29 55 39 72q3 4 3.5 5.5t1 5t0.5 6.5t-0.5 12.5t-0.5 19.5q0 54 16 96q14 39 38 39h3q21 -1 34 -26.5t11 -39.5q0 -7 -5 -18.5t-7 -17.5t2 -13q7 -9 28 -2q1 0 8.5 4.5t13.5 7.5t16.5 6.5t20 4t21.5 -2t23 -8.5q8 -4 13 -12.5t6 -18.5t1 -18t-1 -16l-1 -8 q-1 -16 -15.5 -49.5t-14.5 -83.5v-15q0 -67 16 -104q18 -41 74 -41q20 0 42 10.5t39.5 23.5t39 39t34 43t33 49.5t27.5 44.5t24 42q9 19 19 6q8 -10 8 -27q0 -19 -10 -48l-11 -26q-55 -100 -103 -150q-73 -75 -147 -75h-8q-43 2 -75.5 21t-48 42.5t-25 55.5t-11 50t-1.5 36 q-1 12 -1 23q0 27 5 51q7 34 12 48t0 19q-13 10 -25 -2t-24 -12q-9 0 -23.5 2.5t-21 1t-10.5 -9.5q-5 -11 -58 -101q-9 -13 -21 5q-9 13 -9 28q0 12 6 25z" />
<glyph unicode="s" horiz-adv-x="495" d="M-12 250q-1 29 28 37q25 7 36 -27q1 -1 1 -2q9 -33 37 -80q4 2 12 2q95 8 95 119q0 41 -7.5 74t-15 47.5t-22.5 37t-19 29.5q-5 -83 -70 -188q-6 -11 -25 0q-21 14 -11 35q1 3 13 26.5t21 43.5t20.5 59.5t18.5 83.5q5 39 17 60.5t39 21.5q17 0 29 -7t18 -16t9 -23.5 t3.5 -24t1 -25t0.5 -19.5q1 -21 29.5 -112t27.5 -115q-7 -73 -53 -117q-39 -37 -78 -36l-14 1q46 -43 113 -43q22 0 44 6t40 14t38 24.5t34 28.5t31.5 34.5t27.5 35.5t25.5 38.5t21 35t19.5 34t16 28.5q11 20 21 5q7 -10 7 -27q0 -22 -12 -54q-5 -10 -10 -21 q-62 -113 -132 -171q-84 -70 -181 -70h-15q-179 10 -229 217z" />
<glyph unicode="t" horiz-adv-x="395" d="M-299 788q1 15 11.5 22t21 7.5t26.5 -1.5l15 -1l313 2q3 21 7.5 42t6.5 31t2 11q7 30 15 40q5 6 15 6q7 0 16 -3q12 -4 21 -28t7 -39q-2 -21 -6 -62l324 2q2 0 5.5 0.5t11.5 0.5t14.5 -2t12 -8t5.5 -15q-1 -16 -18 -24.5t-33 -9.5l-17 -1h-315q-2 -18 -8 -59.5t-9 -63.5 q0 -1 -23.5 -123t-25.5 -156q-2 -25 1 -58.5t11.5 -71.5t29.5 -64.5t50 -28.5h12q35 0 67 15q37 18 70.5 61t49.5 68t43 76q7 12 10 18q11 20 21 6q7 -10 7 -26q0 -21 -12 -53q-4 -11 -10 -22q-9 -20 -17 -34.5t-34.5 -51.5t-52.5 -60q-26 -24 -70 -43q-39 -17 -81 -17h-9 q-43 2 -75 24.5t-48 54t-25 75.5q-8 42 -10 76q-1 20 -1 42v29q3 79 55 387h-318q-2 0 -6 0.5t-14.5 2t-18 4.5t-14 9t-6.5 14z" />
<glyph unicode="u" horiz-adv-x="612" d="M4 283q9 61 45 182q6 35 34 35q9 0 21 -4q11 -3 16 -8t5 -14.5t-1.5 -16t-7 -22.5t-7.5 -23q-10 -34 -17 -72q-8 -38 -12 -84q-1 -14 -1 -25q0 -30 8 -53q11 -32 38 -35h4q23 1 49 35q28 38 46.5 79.5t25.5 70.5q4 16 11 48t11 48q10 43 40 43q6 0 12 -2q16 -4 22 -11.5 t6 -12.5t-5 -20t-7 -22q0 -2 -8 -143q0 -119 69 -127q25 -3 48.5 3.5t41.5 16t38 29t32.5 34.5t29.5 42t24.5 40.5t22.5 41.5t19 35q11 20 22 5q8 -10 8 -27q0 -19 -10 -46q-5 -13 -13 -27q-18 -32 -41 -63t-55 -65t-70.5 -55.5t-75.5 -22.5h-4q-35 0 -64 15 q-30 16 -46 38.5t-27 45t-14 38.5l-3 16q-2 -6 -6 -16.5t-18.5 -37.5t-30.5 -47t-42.5 -35t-55.5 -13q-59 6 -88 72q-22 49 -22 101q0 18 3 36z" />
<glyph unicode="v" horiz-adv-x="493" d="M-3 350q1 40 3 60q0 21 22 31t42 -0.5t14 -37.5q-4 -17 -4 -63q0 -8 1 -15q-1 -39 1 -85q2 -56 16.5 -99.5t38.5 -46.5h4q44 0 96 164q-13 33 -13 81q0 35 7 79q7 45 27 84q19 37 32 37h1q29 -1 37 -34q6 -26 7 -71q0 -11 -1 -24q-5 -76 -29 -148q37 -16 70 -16 q11 0 21 2q42 6 74.5 29.5t55.5 62.5l19 31q10 20 24 5q10 -11 10 -30q0 -12 -4 -27q-21 -55 -74 -96t-111 -48q-10 -1 -18 -1q-47 0 -87 29q-19 -45 -41 -80q-3 -5 -15.5 -24t-17 -25.5t-16 -20t-19.5 -18.5t-20 -10t-25 -5q-40 0 -68 36t-40 86q-13 51 -17 110 q-4 48 -3 83v15z" />
<glyph unicode="w" horiz-adv-x="747" d="M0 270q-1 14 -1 26q0 35 5 60q5 44 14 70t21 34t22 8t23 -5t13 -18t-5.5 -23t-7.5 -10q-10 -76 -12 -121v-20q0 -21 -1 -47v-9q0 -35 15 -70q17 -39 51 -45q3 -1 7 -1q38 -1 70 71q33 71 32 151v13v17q0 41 12 59q15 22 37 20q38 -3 43 -68q0 -11 -6 -52t-10 -52 q-3 -9 -3 -28q1 -24 5 -60q8 -68 45 -68q53 0 118 154q-22 52 -22 114v15q1 29 13 67t29 66q16 27 31 27h1q32 -1 42 -54q5 -27 5 -58q0 -29 -4 -61q-10 -66 -29 -110q37 -16 70 -16q11 0 21 2q42 6 74.5 29.5t55.5 62.5l19 31q10 20 24 5q10 -11 10 -30q0 -12 -4 -27 q-16 -41 -51 -75q-34 -36 -76 -54q-37 -17 -78 -16h-9q-45 2 -77 29q-31 -71 -67 -111.5t-88 -40.5h-3q-34 1 -62 23q-30 24 -41 47l-11 24q-2 -4 -6 -11t-17.5 -24.5t-28 -31t-37 -24.5t-44.5 -11q-49 1 -79.5 37t-38 87t-9.5 103z" />
<glyph unicode="x" horiz-adv-x="593" d="M29 342q14 24 28 52t21.5 44t16.5 30t18.5 19.5t21.5 4.5q41 -4 62.5 -42.5t38.5 -107.5q28 54 63.5 120t58 106.5t23.5 41.5q11 11 24 11q7 0 13 -3q10 -4 12.5 -13.5t0 -16t-4.5 -8.5q-1 -2 -23 -38t-62.5 -107.5t-84.5 -158.5q16 -65 54.5 -114t95.5 -49q31 0 65 26 t67.5 73t53.5 80t45 79q11 20 21 6q7 -10 7 -26q0 -21 -12 -53q-4 -11 -10 -22q-9 -19 -28 -48.5t-52 -73t-76.5 -73t-85.5 -30.5h-3q-108 0 -185 139q-28 -62 -70 -155.5t-49 -108.5q-4 -9 -10 -9q-7 0 -16 10q-18 22 -11 38q70 154 129 281q-8 19 -17.5 59.5t-18.5 61 t-25 20.5q-20 0 -66 -96q-6 -11 -23 1q-15 10 -15 25q0 11 8 25z" />
<glyph unicode="y" horiz-adv-x="438" d="M-61 -510q14 100 52 188.5t89.5 152.5t93.5 103.5t86 71.5q5 78 16 203q-42 -78 -79 -119q-36 -39 -82 -39h-2q-57 2 -87 54q-25 42 -25 108q0 15 1 31q6 61 18.5 111t30 77.5t35.5 20.5q16 -5 20 -21.5t1 -30.5t-5 -14q-30 -113 -30 -172q0 -28 0.5 -44t3.5 -35.5 t10 -28t18 -7.5q90 5 183 250q8 58 23 96t32 50q12 9 24 9q4 0 9 -1q17 -6 25 -26q3 -8 3 -21q0 -18 -6 -43q0 -2 -16.5 -61.5t-25 -94.5t-18.5 -84t-11 -74q0 -17 -7 -57q27 11 56 -18q6 -7 1 -14t-14 -12l-10 -5q-16 -9 -41 -27q-4 -24 -4 -37q-5 -40 -6 -120t-2 -105 q-2 -50 -8.5 -100.5t-22.5 -110.5t-39.5 -104t-62.5 -74q-37 -27 -84 -27h-6q-72 3 -109 68q-30 52 -30 107q0 13 2 26zM6 -481q-1 -20 -1 -36q0 -61 14 -88q18 -32 55 -32q28 0 51 15.5t37 36t25.5 52.5t16 52t10.5 49l5 29q9 39 15.5 85.5t9 78.5t5.5 88t5 81 q-241 -183 -248 -411z" />
<glyph unicode="z" horiz-adv-x="362" d="M-62 -617q0 41 13 105q13 66 41 145q27 71 94.5 152t144.5 139q-20 81 -61 113q-12 -12 -34.5 -14t-37.5 6q-26 15 -20 36t31 35q28 17 59 9q23 29 46 96.5t28 118.5q1 10 1 20q0 94 -55 100h-3q-46 0 -105 -114q-11 -18 -27 -49q-11 -12 -25 5q-16 21 -3 48 q37 71 59 104q6 14 16 30q12 16 40 34q23 15 49 15q6 0 12 -1q113 -16 113 -149q0 -12 -1 -25q-7 -79 -35 -151t-63 -117q44 -34 68 -113q44 25 69 29t42 -26q7 -13 7 -21q0 -7 -6 -9h-4q-7 1 -14 1q-39 0 -80 -29q13 -66 12 -150q0 -103 -18 -233q-14 -88 -42 -156 t-61 -104q-32 -37 -62 -53q-25 -14 -46 -13h-8q-15 2 -28 6t-33.5 17t-35 31.5t-25.5 52.5q-12 34 -12 79zM-2 -664q14 -62 61 -67h6q31 -1 57 27q30 30 49 79.5t30.5 89.5t17.5 74q20 121 20 221q0 57 -6 107q-72 -65 -135 -164.5t-84 -177.5q-21 -88 -21 -145q1 -25 5 -44 z" />
<glyph unicode="{" horiz-adv-x="819" />
<glyph unicode="|" horiz-adv-x="329" d="M121 35q-2 24 7.5 676.5t6.5 711.5q-6 93 16 92q5 0 11 -4q12 -7 18.5 -12.5t15 -25.5t13.5 -54v2q7 -91 4.5 -314.5t-7 -387.5t-11.5 -408.5t-9 -376.5q0 -9 -2 -18t-6 -17t-11.5 -6.5t-16.5 15.5q-10 14 -15.5 24.5t-8.5 24.5t-3.5 20t-1 28t-0.5 30z" />
<glyph unicode="}" horiz-adv-x="819" />
<glyph unicode="~" horiz-adv-x="473" d="M78 588q11 14 34 26.5t50 12.5q28 -1 66 -18.5t48 -18.5q18 -3 32 2t20.5 10.5t23.5 22.5q13 10 22 2.5t13.5 -22.5t1.5 -17q-63 -63 -123 -47q-6 1 -26.5 10t-39 16t-42.5 9t-37 -11q-14 -10 -24 -5t-15.5 15.5t-3.5 12.5z" />
<glyph />
<glyph unicode="&#xa1;" horiz-adv-x="227" d="M4 39q1 6 24.5 156.5t34.5 244.5q4 39 14 115t13.5 112.5t7.5 98t4 123.5v2q0 1 -0.5 11t0 15.5t2 14.5t5 13.5t10 7.5t16.5 1q40 -9 37 -55q-8 -122 -25 -434q-6 -119 -51 -422q-8 -60 -28 -82t-41 -20q-14 3 -20.5 32t-2.5 66zM78 1141q2 20 18.5 37t40.5 16 q30 -2 44.5 -12.5t13.5 -40.5q-2 -23 -18.5 -44t-41.5 -20l2 2q-27 1 -43 21.5t-16 40.5z" />
<glyph unicode="&#xa2;" horiz-adv-x="550" d="M0 856q1 59 28.5 113t69.5 91t87 61.5t87 33.5q11 118 19 164q3 23 10.5 30.5t22.5 4.5q22 -4 22 -43q-20 -88 -24 -152q146 0 155 -117q-1 -15 0.5 -19.5t-1.5 -15.5t-3.5 -13t-5.5 -12t-6 -13q-5 -10 -20.5 -16t-22.5 1.5t6 38.5q6 12 9 27t-0.5 31.5t-15 29.5 t-37 20.5t-63.5 4.5q-116 -7 -183.5 -71t-76.5 -169q-10 -98 37 -140.5t139 -47.5q117 -9 218 53q10 5 14 -8q6 -17 -12 -35q-14 -16 -73 -39t-116 -24h2q-9 -92 -16 -138q-6 -56 -12 -59q-6 -2 -11.5 0t-11 12.5t-6.5 28.5q0 5 3 71.5t3 88.5q-106 17 -162 76t-53 151z" />
<glyph unicode="&#xa3;" horiz-adv-x="1050" d="M8 295q0 70 81 118t167 42q98 -6 147.5 -17.5t126.5 -42.5q20 88 19 157.5t-17 121.5l-4 12q-97 4 -131 6q-74 4 -128 0t-68 -10q-10 -5 -19.5 0.5t-3.5 19.5q5 18 41.5 32.5t95.5 17.5q31 2 187 2q-16 36 -59 114t-61 133t-13 113q10 101 80 163.5t153 59.5 q98 -6 146 -90q4 2 12 6.5t12 6.5q27 14 33 -3q2 -5 -2.5 -8.5t-12 -6.5t-10.5 -7l-18 -21q15 -38 18 -79q3 -76 -35.5 -143.5t-95.5 -71.5q-30 -3 -48.5 37t-10.5 75q33 119 108 182q-24 71 -92 74q-71 3 -117 -59.5t-49 -143.5q-2 -38 3 -71.5t20.5 -69.5t26.5 -58 t37 -67.5l38 -66.5q69 0 164.5 -1t101.5 -1q11 0 19.5 -1.5t13.5 -3.5t6.5 -6.5t2.5 -7t-1 -8.5t-2.5 -8t-3.5 -9l-4 -6q-8 -13 -19 -17t-40 -3q-46 4 -205 4q30 -77 30 -164.5t-26 -157.5q131 -61 225 -155q4 -5 13 -13.5t14 -14.5t10 -13.5t4 -13.5t-8 -11q-6 -7 -12 -7.5 t-13 4.5t-13 11t-13.5 14.5t-13.5 12.5q-73 60 -226 119q-44 -54 -132 -91.5t-183 -37.5q-243 -4 -246 129zM55 289q2 -51 176 -60q52 -2 134.5 24.5t128.5 68.5v2q-183 61 -271 65q-84 1 -127 -31t-41 -69zM665 1013q10 -2 26 36q2 7 5 14q13 37 13 78q-27 -42 -37 -76 q-18 -51 -7 -52z" />
<glyph unicode="&#xa4;" horiz-adv-x="819" />
<glyph unicode="&#xa5;" horiz-adv-x="581" />
<glyph unicode="&#xa6;" />
<glyph unicode="&#xa8;" horiz-adv-x="661" d="M63 569q0 23 18.5 39t41.5 13q22 -2 36.5 -17t14.5 -37q-1 -23 -22 -38t-46 -13q-20 1 -31.5 16.5t-11.5 36.5zM66 569q0 23 18 39t41 13q22 -2 36.5 -17t14.5 -37q-1 -23 -21.5 -38t-45.5 -13q-20 1 -31.5 16.5t-11.5 36.5zM291 569q2 23 21 39t42 13h-2q20 -2 34.5 -17 t14.5 -37q0 -23 -20 -38t-45 -13q-21 1 -33 16.5t-12 36.5zM293 569q2 23 21 39t42 13h-2q20 -2 34.5 -17t14.5 -37q0 -23 -20 -38t-45 -13q-21 1 -33 16.5t-12 36.5z" />
<glyph unicode="&#xaa;" horiz-adv-x="819" />
<glyph unicode="&#xab;" horiz-adv-x="571" />
<glyph unicode="&#xad;" horiz-adv-x="522" d="M33 426q-22 30 12 37q189 39 416 24q16 -5 26 -14t12 -14t7 -19q5 -15 -4.5 -22t-38.5 -4t-195.5 -5.5t-175.5 -7.5q-13 -1 -22 -1t-17.5 5.5t-19.5 20.5z" />
<glyph unicode="&#xae;" horiz-adv-x="819" />
<glyph unicode="&#xaf;" horiz-adv-x="819" />
<glyph unicode="&#xb0;" horiz-adv-x="294" d="M82 1165q5 29 30 52t62 20q59 -7 59 -84q-1 -41 -27 -62t-61 -16q-34 4 -51.5 31.5t-11.5 58.5zM127 1155q0 -31 27 -33q12 -3 21 5t11 20q5 38 -24 43q-15 3 -23.5 -9.5t-11.5 -25.5z" />
<glyph unicode="&#xb1;" horiz-adv-x="819" />
<glyph unicode="&#xb2;" />
<glyph unicode="&#xb3;" />
<glyph unicode="&#xb4;" horiz-adv-x="440" d="M217 676q6 15 37 84.5t37 79.5q17 27 26.5 28t28.5 -22q12 -15 12 -30t-6 -22l-6 -8q-41 -77 -59 -118q-28 -63 -56 -41q-10 8 -13 25t-1 24z" />
<glyph unicode="&#xb5;" horiz-adv-x="819" />
<glyph unicode="&#xb7;" horiz-adv-x="288" />
<glyph unicode="&#xb8;" horiz-adv-x="819" />
<glyph unicode="&#xb9;" />
<glyph unicode="&#xba;" horiz-adv-x="819" />
<glyph unicode="&#xbb;" horiz-adv-x="540" />
<glyph unicode="&#xbc;" />
<glyph unicode="&#xbd;" />
<glyph unicode="&#xbe;" />
<glyph unicode="&#xbf;" horiz-adv-x="823" d="M-25 -168q1 53 25 102t55.5 82.5t83 68t84.5 51.5t82 40q22 11 65.5 30.5t66 30.5t55 31.5t50 39.5t33 48.5t21.5 65.5q3 24 -4 39t-14 22t-5 13q13 21 48 6q18 -8 26.5 -27t8 -40t-0.5 -44q-3 -38 -22.5 -73t-44.5 -59.5t-70 -52t-78 -43.5t-90 -42q-52 -23 -100.5 -53 t-97.5 -70t-78.5 -90t-30.5 -101q-1 -78 57 -117.5t138 -37.5q100 1 182 21t150 60.5t113.5 78t109.5 100.5q11 10 27.5 31t28 31.5t21.5 7.5q25 -12 21 -45.5t-27 -59.5q-133 -155 -292 -226.5t-322 -76.5q-112 -5 -194 70.5t-81 187.5zM547 741q3 24 17.5 37t35.5 13 q22 -2 39 -22t16 -48q-1 -17 -23.5 -31t-35.5 -12q-23 4 -37 22t-12 41z" />
<glyph unicode="&#xc0;" horiz-adv-x="1505" d="M-100 252v10t6.5 16.5t19.5 10.5q15 -1 24 -7t11 -12l2 -6q0 -4 1.5 -11t6.5 -27t12.5 -38t22.5 -40t34 -37.5t48 -26t64 -10.5q166 3 364 282q-39 -6 -84 -13.5t-64.5 -11t-21.5 -3.5q-56 -8 -63 18q-2 7 -2 13t1 10t4.5 7.5l5.5 5.5t7.5 4t8.5 2.5t9.5 2t8.5 2.5 q116 23 247 43q22 33 58.5 91t48.5 77q21 33 45 74.5t47 85t47 90t45.5 90.5t41.5 85t36 75l28 59.5t18 39.5l7 14q3 5 6 21t7.5 25t23 17.5t49.5 7.5q62 -3 74.5 -20.5t13.5 -93.5v-21q5 -310 101 -670q96 0 116 -2q47 -4 26 -32q-18 -25 -53 -36q-7 -3 -13 -3l-54 -4 q87 -305 191 -486q12 -12 -15 -26q-38 -20 -70 -4q-10 5 -16 12q-85 96 -186 504q-48 -1 -161.5 -5.5t-141.5 -5.5q-90 -2 -260 -22q-31 -45 -64 -88t-85 -99t-102.5 -96.5t-111.5 -67.5t-116 -24q-46 2 -85 17.5t-64 38t-45 49.5t-31 53t-18 47.5t-9 34.5zM682 453 q100 13 162 16q299 11 336 12q-33 143 -64 305.5t-46 253.5l-15 90zM929 1602.5q-1 15.5 11 29.5q13 17 20.5 21t15 -1.5t19.5 -25.5q7 -9 38.5 -80.5t35.5 -83.5q2 -6 -1.5 -23t-12.5 -26q-30 -18 -56 41l-59 119q-3 3 -6.5 8.5t-4.5 21z" />
<glyph unicode="&#xc1;" horiz-adv-x="1505" d="M-100 252v10t6.5 16.5t19.5 10.5q15 -1 24 -7t11 -12l2 -6q0 -4 1.5 -11t6.5 -27t12.5 -38t22.5 -40t34 -37.5t48 -26t64 -10.5q166 3 364 282q-39 -6 -84 -13.5t-64.5 -11t-21.5 -3.5q-56 -8 -63 18q-2 7 -2 13t1 10t4.5 7.5l5.5 5.5t7.5 4t8.5 2.5t9.5 2t8.5 2.5 q116 23 247 43q22 33 58.5 91t48.5 77q21 33 45 74.5t47 85t47 90t45.5 90.5t41.5 85t36 75l28 59.5t18 39.5l7 14q3 5 6 21t7.5 25t23 17.5t49.5 7.5q62 -3 74.5 -20.5t13.5 -93.5v-21q5 -310 101 -670q96 0 116 -2q47 -4 26 -32q-18 -25 -53 -36q-7 -3 -13 -3l-54 -4 q87 -305 191 -486q12 -12 -15 -26q-38 -20 -70 -4q-10 5 -16 12q-85 96 -186 504q-48 -1 -161.5 -5.5t-141.5 -5.5q-90 -2 -260 -22q-31 -45 -64 -88t-85 -99t-102.5 -96.5t-111.5 -67.5t-116 -24q-46 2 -85 17.5t-64 38t-45 49.5t-31 53t-18 47.5t-9 34.5zM682 453 q100 13 162 16q299 11 336 12q-33 143 -64 305.5t-46 253.5l-15 90zM1118 1456q6 15 37 84.5t37 79.5q17 27 26.5 28t28.5 -22q12 -15 12 -29.5t-6 -22.5l-6 -7q-41 -78 -59 -119q-27 -62 -55 -41q-10 8 -13.5 25t-1.5 24z" />
<glyph unicode="&#xc2;" horiz-adv-x="1505" d="M-100 252v10t6.5 16.5t19.5 10.5q15 -1 24 -7t11 -12l2 -6q0 -4 1.5 -11t6.5 -27t12.5 -38t22.5 -40t34 -37.5t48 -26t64 -10.5q166 3 364 282q-39 -6 -84 -13.5t-64.5 -11t-21.5 -3.5q-56 -8 -63 18q-2 7 -2 13t1 10t4.5 7.5l5.5 5.5t7.5 4t8.5 2.5t9.5 2t8.5 2.5 q116 23 247 43q22 33 58.5 91t48.5 77q21 33 45 74.5t47 85t47 90t45.5 90.5t41.5 85t36 75l28 59.5t18 39.5l7 14q3 5 6 21t7.5 25t23 17.5t49.5 7.5q62 -3 74.5 -20.5t13.5 -93.5v-21q5 -310 101 -670q96 0 116 -2q47 -4 26 -32q-18 -25 -53 -36q-7 -3 -13 -3l-54 -4 q87 -305 191 -486q12 -12 -15 -26q-38 -20 -70 -4q-10 5 -16 12q-85 96 -186 504q-48 -1 -161.5 -5.5t-141.5 -5.5q-90 -2 -260 -22q-31 -45 -64 -88t-85 -99t-102.5 -96.5t-111.5 -67.5t-116 -24q-46 2 -85 17.5t-64 38t-45 49.5t-31 53t-18 47.5t-9 34.5zM682 453 q100 13 162 16q299 11 336 12q-33 143 -64 305.5t-46 253.5l-15 90zM1009 1378q-4 11 3 23q32 36 96 100q21 21 32.5 20.5t22.5 -20.5q3 -7 25 -47t24 -43q10 -20 -14 -47q-27 -27 -51 16q-2 3 -33 50q-7 -6 -34 -32t-36 -34q-8 -7 -19.5 -2t-15.5 16z" />
<glyph unicode="&#xc3;" horiz-adv-x="1505" d="M-100 252v10t6.5 16.5t19.5 10.5q15 -1 24 -7t11 -12l2 -6q0 -4 1.5 -11t6.5 -27t12.5 -38t22.5 -40t34 -37.5t48 -26t64 -10.5q166 3 364 282q-39 -6 -84 -13.5t-64.5 -11t-21.5 -3.5q-56 -8 -63 18q-2 7 -2 13t1 10t4.5 7.5l5.5 5.5t7.5 4t8.5 2.5t9.5 2t8.5 2.5 q116 23 247 43q22 33 58.5 91t48.5 77q21 33 45 74.5t47 85t47 90t45.5 90.5t41.5 85t36 75l28 59.5t18 39.5l7 14q3 5 6 21t7.5 25t23 17.5t49.5 7.5q62 -3 74.5 -20.5t13.5 -93.5v-21q5 -310 101 -670q96 0 116 -2q47 -4 26 -32q-18 -25 -53 -36q-7 -3 -13 -3l-54 -4 q87 -305 191 -486q12 -12 -15 -26q-38 -20 -70 -4q-10 5 -16 12q-85 96 -186 504q-48 -1 -161.5 -5.5t-141.5 -5.5q-90 -2 -260 -22q-31 -45 -64 -88t-85 -99t-102.5 -96.5t-111.5 -67.5t-116 -24q-46 2 -85 17.5t-64 38t-45 49.5t-31 53t-18 47.5t-9 34.5zM682 453 q100 13 162 16q299 11 336 12q-33 143 -64 305.5t-46 253.5l-15 90zM956 1423q10 14 34.5 26.5t49.5 12.5q28 -1 66.5 -18.5t48.5 -18.5q18 -3 32 2t20.5 10.5t23.5 22.5q13 10 22 2.5t13.5 -22.5t1.5 -17q-31 -31 -59 -46t-64 -7q-5 1 -27 10.5t-39.5 15.5t-42.5 8t-37 -11 q-14 -10 -24 -3.5t-15.5 19t-3.5 14.5z" />
<glyph unicode="&#xc4;" horiz-adv-x="1505" d="M-100 252v10t6.5 16.5t19.5 10.5q15 -1 24 -7t11 -12l2 -6q0 -4 1.5 -11t6.5 -27t12.5 -38t22.5 -40t34 -37.5t48 -26t64 -10.5q166 3 364 282q-39 -6 -84 -13.5t-64.5 -11t-21.5 -3.5q-56 -8 -63 18q-2 7 -2 13t1 10t4.5 7.5l5.5 5.5t7.5 4t8.5 2.5t9.5 2t8.5 2.5 q116 23 247 43q22 33 58.5 91t48.5 77q21 33 45 74.5t47 85t47 90t45.5 90.5t41.5 85t36 75l28 59.5t18 39.5l7 14q3 5 6 21t7.5 25t23 17.5t49.5 7.5q62 -3 74.5 -20.5t13.5 -93.5v-21q5 -310 101 -670q96 0 116 -2q47 -4 26 -32q-18 -25 -53 -36q-7 -3 -13 -3l-54 -4 q87 -305 191 -486q12 -12 -15 -26q-38 -20 -70 -4q-10 5 -16 12q-85 96 -186 504q-48 -1 -161.5 -5.5t-141.5 -5.5q-90 -2 -260 -22q-31 -45 -64 -88t-85 -99t-102.5 -96.5t-111.5 -67.5t-116 -24q-46 2 -85 17.5t-64 38t-45 49.5t-31 53t-18 47.5t-9 34.5zM682 453 q100 13 162 16q299 11 336 12q-33 143 -64 305.5t-46 253.5l-15 90zM950 1427q2 22 19 45.5t45 18.5q53 -7 43 -78q-3 -22 -21 -35t-41 -10q-45 7 -45 59zM1139 1421q0 18 18 46.5t45 25.5t38 -23.5t9 -44.5q0 -30 -24 -46.5t-43 -12.5q-25 4 -35 20.5t-8 34.5z" />
<glyph unicode="&#xc5;" horiz-adv-x="1505" d="M-100 252v10t6.5 16.5t19.5 10.5q15 -1 24 -7t11 -12l2 -6q0 -4 1.5 -11t6.5 -27t12.5 -38t22.5 -40t34 -37.5t48 -26t64 -10.5q166 3 364 282q-39 -6 -84 -13.5t-64.5 -11t-21.5 -3.5q-56 -8 -63 18q-2 7 -2 13t1 10t4.5 7.5l5.5 5.5t7.5 4t8.5 2.5t9.5 2t8.5 2.5 q116 23 247 43q22 33 58.5 91t48.5 77q21 33 45 74.5t47 85t47 90t45.5 90.5t41.5 85t36 75l28 59.5t18 39.5l7 14q3 5 6 21t7.5 25t23 17.5t49.5 7.5q62 -3 74.5 -20.5t13.5 -93.5v-21q5 -310 101 -670q96 0 116 -2q47 -4 26 -32q-18 -25 -53 -36q-7 -3 -13 -3l-54 -4 q87 -305 191 -486q12 -12 -15 -26q-38 -20 -70 -4q-10 5 -16 12q-85 96 -186 504q-48 -1 -161.5 -5.5t-141.5 -5.5q-90 -2 -260 -22q-31 -45 -64 -88t-85 -99t-102.5 -96.5t-111.5 -67.5t-116 -24q-46 2 -85 17.5t-64 38t-45 49.5t-31 53t-18 47.5t-9 34.5zM682 453 q100 13 162 16q299 11 336 12q-33 143 -64 305.5t-46 253.5l-15 90zM1044 1464q7 29 32.5 51.5t60.5 18.5q33 -3 47 -28.5t12 -55.5q-1 -41 -26.5 -61t-59.5 -15q-34 4 -53 31t-13 59zM1092 1452q-2 -10 3.5 -20t20.5 -13q12 -2 22 5.5t11 19.5q5 39 -23 43q-16 3 -25 -10.5 t-9 -24.5z" />
<glyph unicode="&#xc6;" horiz-adv-x="2504" d="M-100 252v10t6.5 16.5t19.5 10.5q15 -1 24 -7t11 -12l2 -6q0 -4 1.5 -11t6.5 -27t12.5 -38t22.5 -40t34 -37.5t48 -26t64 -10.5q166 3 364 282q-39 -6 -84 -13.5t-64.5 -11t-21.5 -3.5q-56 -8 -63 18q-5 8 -2 15t2 11t5.5 7.5t8 5.5t9.5 4l10 2.5t10 1.5q116 23 247 43 q22 33 58.5 91t48.5 77q21 33 45 74.5t47 85t47 90t45.5 90.5t41.5 85t36 75l28 59.5t18 39.5l7 14q3 5 6 21t7.5 25t23 17.5t49.5 7.5q21 -1 33 -2t21 -6t12 -9.5t4.5 -17t1 -22.5t-2 -34t-1.5 -44v-129q91 90 277 165t395 114t379 32q80 -4 137.5 -20t84.5 -39t38 -43.5 t10 -38.5q-1 -33 -29.5 -64.5t-73.5 -54.5t-74.5 -35t-58.5 -22q-32 -9 -48.5 0t-31.5 33q-8 13 39 25q6 2 17 4q3 1 4 1q54 14 95.5 37.5t59 42t17.5 27.5t-2.5 15.5t-15 16t-35 16.5t-65.5 13t-103 8q-154 6 -330 -27.5t-316 -86.5t-242.5 -115.5t-127.5 -114.5l2 -61 q46 -90 360 -102q204 77 412 104q266 37 264 -16q-1 -36 -112 -71t-170 -40q-216 -19 -328 -22q-337 -101 -395 -338q10 -112 24 -197q47 -69 157.5 -117.5t299.5 -52.5q136 -3 264.5 14.5t207.5 40t153.5 55.5t92 44t34.5 22q41 27 44 15q1 -9 -18 -29q-4 -6 -13 -15 t-42 -36t-72.5 -51.5t-107.5 -53.5t-144 -49t-184 -31.5t-227 -7.5q-104 3 -217.5 30t-198.5 79q12 -51 35 -107q10 -13 -14 -27q-33 -19 -59 -1q-6 4 -11 10q-9 12 -16.5 28.5t-14.5 40.5t-12 44t-11 55.5t-9 57t-8.5 66.5t-8 66t-8.5 73.5t-8 72.5q-229 -6 -457 -33 q-31 -45 -64 -88t-85 -99t-102.5 -96.5t-111.5 -67.5t-116 -24q-46 2 -85 17.5t-64 38t-45 49.5t-31 53t-18 47.5t-9 34.5zM682 453q151 20 401 28q-13 143 -20 305.5t-7 253.5l-1 90zM1153 762q8 -158 14 -242q79 113 240 187q-174 11 -254 55z" />
<glyph unicode="&#xc7;" horiz-adv-x="1447" d="M-8 430q3 103 47 209.5t117 200.5t174.5 176.5t216 141t246 90t260.5 26.5q10 0 24.5 -0.5t47.5 -5t63.5 -11.5t65.5 -21.5t61 -34.5t43.5 -51.5t17.5 -70.5q1 -53 -30.5 -109.5t-73 -97.5t-93 -79.5t-79.5 -55.5t-45 -26q-17 -10 -39 -17.5t-47.5 -6t-34.5 21.5 q-3 6 -4 10.5t-2 8t0 6.5t2 5.5t4.5 4.5t5.5 3.5t8 3.5t9 2.5t10.5 3t11.5 3.5v-2q13 5 34 15t75 42.5t95.5 67t76 87t36.5 105.5q6 6 2 31t-63 57.5t-178 36.5q-145 5 -291 -36.5t-266.5 -118t-216 -175.5t-150.5 -214.5t-59 -227.5q0 -1 -0.5 -23t0.5 -46t5.5 -60.5 t17 -71t31 -73t51.5 -70.5t75.5 -59t106 -43t139.5 -19q133 -4 272 26t242.5 76.5t188.5 94t129 80.5l44 34q21 16 29 -4q2 0 0 -11.5t-18.5 -36t-47.5 -50.5q-13 -11 -52 -37.5t-120.5 -70.5t-171.5 -82t-210.5 -65t-231.5 -26l-8 -22q23 5 41.5 -10t17.5 -39 q-3 -38 -39.5 -52.5t-93.5 5.5q-9 4 2 14q8 9 16 6q52 -16 72 9q13 16 -3 30q-17 13 -52 4l-5 1q0 1 1 3l20 51q-118 5 -214 38.5t-170 97t-112.5 166.5t-33.5 237z" />
<glyph unicode="&#xc8;" horiz-adv-x="1515" d="M2 272q4 119 118.5 233t303.5 202q-71 4 -128 15t-105.5 31t-74 53.5t-24.5 78.5q3 90 119.5 178t286.5 148t365.5 95t353.5 29q80 -4 137.5 -20t84.5 -39t38 -43.5t10 -38.5q-1 -33 -29.5 -64.5t-73.5 -54.5t-74.5 -35t-58.5 -22q-32 -9 -48.5 0t-31.5 33q-8 13 39 25 q4 1 21 5q54 14 95.5 37.5t59 42t17.5 27.5t-2.5 15.5t-15 16t-35 16.5t-65.5 13t-103 8q-164 6 -351.5 -32t-331.5 -95.5t-241 -124.5t-98 -118q-1 -35 29.5 -61t85.5 -41.5t116.5 -23.5t136.5 -11q204 77 412 104q266 37 264 -16q-1 -36 -112 -71t-170 -40 q-216 -19 -328 -22q-112 -34 -204 -83.5t-146.5 -98.5t-92 -100t-52 -87t-15.5 -60t8 -53.5t41 -69t83 -71.5t145.5 -55.5t216.5 -26.5q136 -3 272.5 14t232.5 41.5t177.5 53.5t117.5 45.5t43 21.5q42 28 45 14q2 -8 -18 -28q-12 -11 -36 -28.5t-107 -62t-177.5 -77.5 t-247 -57.5t-315.5 -18.5q-68 3 -138.5 14t-150.5 37.5t-140 64t-98.5 99.5t-35.5 139zM929 1602.5q-1 15.5 11 29.5q13 17 20.5 21t15 -1.5t19.5 -25.5q7 -9 38.5 -80.5t35.5 -83.5q2 -6 -1.5 -23t-12.5 -26q-30 -18 -56 41l-59 119q-3 3 -6.5 8.5t-4.5 21z" />
<glyph unicode="&#xc9;" horiz-adv-x="1515" d="M2 272q4 119 118.5 233t303.5 202q-71 4 -128 15t-105.5 31t-74 53.5t-24.5 78.5q3 90 119.5 178t286.5 148t365.5 95t353.5 29q80 -4 137.5 -20t84.5 -39t38 -43.5t10 -38.5q-1 -33 -29.5 -64.5t-73.5 -54.5t-74.5 -35t-58.5 -22q-32 -9 -48.5 0t-31.5 33q-8 13 39 25 q4 1 21 5q54 14 95.5 37.5t59 42t17.5 27.5t-2.5 15.5t-15 16t-35 16.5t-65.5 13t-103 8q-164 6 -351.5 -32t-331.5 -95.5t-241 -124.5t-98 -118q-1 -35 29.5 -61t85.5 -41.5t116.5 -23.5t136.5 -11q204 77 412 104q266 37 264 -16q-1 -36 -112 -71t-170 -40 q-216 -19 -328 -22q-112 -34 -204 -83.5t-146.5 -98.5t-92 -100t-52 -87t-15.5 -60t8 -53.5t41 -69t83 -71.5t145.5 -55.5t216.5 -26.5q136 -3 272.5 14t232.5 41.5t177.5 53.5t117.5 45.5t43 21.5q42 28 45 14q2 -8 -18 -28q-12 -11 -36 -28.5t-107 -62t-177.5 -77.5 t-247 -57.5t-315.5 -18.5q-68 3 -138.5 14t-150.5 37.5t-140 64t-98.5 99.5t-35.5 139zM905 1450q6 15 37 84.5t37 79.5q17 27 26.5 28t28.5 -22q12 -15 12 -29.5t-6 -22.5l-6 -7q-41 -78 -59 -119q-27 -62 -55 -41q-10 8 -13.5 25t-1.5 24z" />
<glyph unicode="&#xca;" horiz-adv-x="1515" d="M2 272q4 119 118.5 233t303.5 202q-71 4 -128 15t-105.5 31t-74 53.5t-24.5 78.5q3 90 119.5 178t286.5 148t365.5 95t353.5 29q80 -4 137.5 -20t84.5 -39t38 -43.5t10 -38.5q-1 -33 -29.5 -64.5t-73.5 -54.5t-74.5 -35t-58.5 -22q-32 -9 -48.5 0t-31.5 33q-8 13 39 25 q4 1 21 5q54 14 95.5 37.5t59 42t17.5 27.5t-2.5 15.5t-15 16t-35 16.5t-65.5 13t-103 8q-164 6 -351.5 -32t-331.5 -95.5t-241 -124.5t-98 -118q-1 -35 29.5 -61t85.5 -41.5t116.5 -23.5t136.5 -11q204 77 412 104q266 37 264 -16q-1 -36 -112 -71t-170 -40 q-216 -19 -328 -22q-112 -34 -204 -83.5t-146.5 -98.5t-92 -100t-52 -87t-15.5 -60t8 -53.5t41 -69t83 -71.5t145.5 -55.5t216.5 -26.5q136 -3 272.5 14t232.5 41.5t177.5 53.5t117.5 45.5t43 21.5q42 28 45 14q2 -8 -18 -28q-12 -11 -36 -28.5t-107 -62t-177.5 -77.5 t-247 -57.5t-315.5 -18.5q-68 3 -138.5 14t-150.5 37.5t-140 64t-98.5 99.5t-35.5 139zM955.5 1423q-4.5 10 2.5 21q8 9 51 52.5t48 49.5q21 19 31.5 18.5t21.5 -18.5q6 -9 26.5 -47t22.5 -43q11 -22 -14 -47q-27 -27 -51 16q-26 42 -33 50q-34 -34 -70 -66q-7 -7 -19 -1.5 t-16.5 15.5z" />
<glyph unicode="&#xcb;" horiz-adv-x="1515" d="M2 272q4 119 118.5 233t303.5 202q-71 4 -128 15t-105.5 31t-74 53.5t-24.5 78.5q3 90 119.5 178t286.5 148t365.5 95t353.5 29q80 -4 137.5 -20t84.5 -39t38 -43.5t10 -38.5q-1 -33 -29.5 -64.5t-73.5 -54.5t-74.5 -35t-58.5 -22q-32 -9 -48.5 0t-31.5 33q-8 13 39 25 q4 1 21 5q54 14 95.5 37.5t59 42t17.5 27.5t-2.5 15.5t-15 16t-35 16.5t-65.5 13t-103 8q-164 6 -351.5 -32t-331.5 -95.5t-241 -124.5t-98 -118q-1 -35 29.5 -61t85.5 -41.5t116.5 -23.5t136.5 -11q204 77 412 104q266 37 264 -16q-1 -36 -112 -71t-170 -40 q-216 -19 -328 -22q-112 -34 -204 -83.5t-146.5 -98.5t-92 -100t-52 -87t-15.5 -60t8 -53.5t41 -69t83 -71.5t145.5 -55.5t216.5 -26.5q136 -3 272.5 14t232.5 41.5t177.5 53.5t117.5 45.5t43 21.5q42 28 45 14q2 -8 -18 -28q-12 -11 -36 -28.5t-107 -62t-177.5 -77.5 t-247 -57.5t-315.5 -18.5q-68 3 -138.5 14t-150.5 37.5t-140 64t-98.5 99.5t-35.5 139zM995 1489q0 19 18 43t46 20q48 -9 43 -77q-3 -23 -20.5 -35.5t-41.5 -9.5q-27 4 -37 21.5t-8 37.5zM1182 1481q2 21 20 47.5t45 23.5q47 -5 47 -65q-1 -31 -24.5 -47.5t-44.5 -14.5 q-43 7 -43 56z" />
<glyph unicode="&#xcc;" horiz-adv-x="1253" d="M-55 272q0 17 4.5 33t11.5 28t13.5 21.5t11.5 15.5l4 5q1 1 2.5 3t6.5 6t10.5 6t13.5 1.5t16 -4.5t11 -9.5t1 -11.5t-4 -10.5t-6.5 -10.5t-5.5 -7q-4 -10 -7.5 -19t-7.5 -37.5t1.5 -51.5t27 -54t59.5 -52t109 -38t166 -20q143 -5 273 40.5t227 126t170.5 185.5t113 220 t43.5 228q3 89 -22.5 160.5t-65.5 113.5t-93 70.5t-97 39.5t-84 12q-113 5 -229.5 -30.5t-208.5 -94t-166 -126.5t-115 -132t-43 -107q-4 -104 92.5 -158.5t282.5 -60.5q68 -2 135.5 4t116 16.5t87 21t58.5 18.5l19 8q15 6 27 4t10 -14.5t-21 -26.5q-10 -7 -24.5 -16 t-55 -27t-86 -30.5t-118 -21.5t-150.5 -6q-122 4 -219 37.5t-156 99.5t-55 154q2 55 46.5 130t125 152t180.5 142.5t226 105t247 35.5q192 -8 315.5 -142t116.5 -329q-6 -171 -81 -333t-195 -283t-285.5 -192t-341.5 -64q-113 5 -198 30t-129 56t-71 71.5t-33.5 67.5 t-6.5 51zM714 1602.5q-1 15.5 11 29.5q13 17 20.5 21t15 -1.5t19.5 -25.5q7 -9 38.5 -80.5t35.5 -83.5q2 -6 -1.5 -23t-12.5 -26q-30 -18 -56 41l-59 119q-3 3 -6.5 8.5t-4.5 21z" />
<glyph unicode="&#xcd;" horiz-adv-x="1253" d="M-55 272q0 17 4.5 33t11.5 28t13.5 21.5t11.5 15.5l4 5q1 1 2.5 3t6.5 6t10.5 6t13.5 1.5t16 -4.5t11 -9.5t1 -11.5t-4 -10.5t-6.5 -10.5t-5.5 -7q-4 -10 -7.5 -19t-7.5 -37.5t1.5 -51.5t27 -54t59.5 -52t109 -38t166 -20q143 -5 273 40.5t227 126t170.5 185.5t113 220 t43.5 228q3 89 -22.5 160.5t-65.5 113.5t-93 70.5t-97 39.5t-84 12q-113 5 -229.5 -30.5t-208.5 -94t-166 -126.5t-115 -132t-43 -107q-4 -104 92.5 -158.5t282.5 -60.5q68 -2 135.5 4t116 16.5t87 21t58.5 18.5l19 8q15 6 27 4t10 -14.5t-21 -26.5q-10 -7 -24.5 -16 t-55 -27t-86 -30.5t-118 -21.5t-150.5 -6q-122 4 -219 37.5t-156 99.5t-55 154q2 55 46.5 130t125 152t180.5 142.5t226 105t247 35.5q192 -8 315.5 -142t116.5 -329q-6 -171 -81 -333t-195 -283t-285.5 -192t-341.5 -64q-113 5 -198 30t-129 56t-71 71.5t-33.5 67.5 t-6.5 51zM946 1456q6 15 37 84.5t37 79.5q17 27 26.5 28t28.5 -22q12 -15 12 -29.5t-6 -22.5l-6 -7q-41 -78 -59 -119q-27 -62 -55 -41q-10 8 -13.5 25t-1.5 24z" />
<glyph unicode="&#xce;" horiz-adv-x="1253" d="M-55 272q0 17 4.5 33t11.5 28t13.5 21.5t11.5 15.5l4 5q1 1 2.5 3t6.5 6t10.5 6t13.5 1.5t16 -4.5t11 -9.5t1 -11.5t-4 -10.5t-6.5 -10.5t-5.5 -7q-4 -10 -7.5 -19t-7.5 -37.5t1.5 -51.5t27 -54t59.5 -52t109 -38t166 -20q143 -5 273 40.5t227 126t170.5 185.5t113 220 t43.5 228q3 89 -22.5 160.5t-65.5 113.5t-93 70.5t-97 39.5t-84 12q-113 5 -229.5 -30.5t-208.5 -94t-166 -126.5t-115 -132t-43 -107q-4 -104 92.5 -158.5t282.5 -60.5q68 -2 135.5 4t116 16.5t87 21t58.5 18.5l19 8q15 6 27 4t10 -14.5t-21 -26.5q-10 -7 -24.5 -16 t-55 -27t-86 -30.5t-118 -21.5t-150.5 -6q-122 4 -219 37.5t-156 99.5t-55 154q2 55 46.5 130t125 152t180.5 142.5t226 105t247 35.5q192 -8 315.5 -142t116.5 -329q-6 -171 -81 -333t-195 -283t-285.5 -192t-341.5 -64q-113 5 -198 30t-129 56t-71 71.5t-33.5 67.5 t-6.5 51zM781.5 1423q-4.5 10 2.5 21q8 9 51 52.5t48 49.5q21 19 31.5 18.5t21.5 -18.5q6 -9 26.5 -47t22.5 -43q11 -22 -14 -47q-27 -27 -51 16q-26 42 -33 50q-34 -34 -70 -66q-7 -7 -19 -1.5t-16.5 15.5z" />
<glyph unicode="&#xcf;" horiz-adv-x="1253" d="M-55 272q0 17 4.5 33t11.5 28t13.5 21.5t11.5 15.5l4 5q1 1 2.5 3t6.5 6t10.5 6t13.5 1.5t16 -4.5t11 -9.5t1 -11.5t-4 -10.5t-6.5 -10.5t-5.5 -7q-4 -10 -7.5 -19t-7.5 -37.5t1.5 -51.5t27 -54t59.5 -52t109 -38t166 -20q143 -5 273 40.5t227 126t170.5 185.5t113 220 t43.5 228q3 89 -22.5 160.5t-65.5 113.5t-93 70.5t-97 39.5t-84 12q-113 5 -229.5 -30.5t-208.5 -94t-166 -126.5t-115 -132t-43 -107q-4 -104 92.5 -158.5t282.5 -60.5q68 -2 135.5 4t116 16.5t87 21t58.5 18.5l19 8q15 6 27 4t10 -14.5t-21 -26.5q-10 -7 -24.5 -16 t-55 -27t-86 -30.5t-118 -21.5t-150.5 -6q-122 4 -219 37.5t-156 99.5t-55 154q2 55 46.5 130t125 152t180.5 142.5t226 105t247 35.5q192 -8 315.5 -142t116.5 -329q-6 -171 -81 -333t-195 -283t-285.5 -192t-341.5 -64q-113 5 -198 30t-129 56t-71 71.5t-33.5 67.5 t-6.5 51zM760 1468q0 20 17.5 44t45.5 20q48 -9 43 -78q-3 -23 -20.5 -35.5t-40.5 -9.5q-27 4 -37 21.5t-8 37.5zM946 1460q2 21 20.5 48t45.5 24q47 -5 47 -66q-1 -30 -25 -46.5t-45 -14.5q-43 7 -43 55z" />
<glyph unicode="&#xd0;" />
<glyph unicode="&#xd1;" horiz-adv-x="1329" d="M-268 902q1 34 24 81q9 14 33.5 48t77.5 94t110 110.5t132.5 87.5t142.5 35q125 -4 206 -92.5t107.5 -211.5t35.5 -245.5t1 -207.5l-8 -85q2 11 6 29.5t18 76.5t30.5 113.5t44 131.5t57 140.5t70.5 130.5t84.5 111.5t98.5 73t113 25.5q80 -3 133 -67.5t69 -148t3 -161.5 q-13 -79 -74 -625q-8 -79 -2.5 -134t20.5 -89.5t31 -53.5t28 -25l13 -7q3 -1 6 -3t9 -11t-2 -21q-2 -3 -11.5 -4.5t-23.5 0t-30 6t-33 15t-29 26.5q-37 47 -49.5 172t8.5 301q4 29 13 85.5t15.5 101.5t14.5 107.5t11 112t3.5 104.5t-7 96t-21 75.5t-38.5 54t-59 21.5 q-57 4 -114 -35.5t-103.5 -108.5t-86.5 -147.5t-70.5 -162.5t-49.5 -143t-28 -99q-24 -102 -50.5 -248.5t-27.5 -192.5q-5 -39 -19 -52.5t-28 -8.5q-21 6 -38.5 20.5t-17.5 36.5q17 99 43 352q6 63 7 150.5t-10.5 202t-36 210t-77 164.5t-126.5 76q-56 5 -113.5 -12 t-103.5 -45.5t-92.5 -70.5t-77.5 -77t-61 -76t-40 -56.5t-18 -28.5q-5 -7 -12.5 -19t-14.5 -18q-16 -8 -16 15zM537 1403q10 14 34.5 26.5t49.5 12.5q28 -1 66 -18.5t48 -18.5q18 -3 32 2t20.5 10.5t23.5 22.5q13 10 22 2.5t13.5 -22.5t1.5 -17q-31 -31 -59 -46t-64 -7 q-5 1 -26.5 10.5t-39 15t-42.5 7.5t-37 -11q-14 -10 -24 -3t-15.5 19.5t-3.5 14.5z" />
<glyph unicode="&#xd2;" horiz-adv-x="1462" d="M-25 559q3 96 44.5 197t107 188.5t152.5 165.5t180 133t190.5 85t181.5 26q14 -1 24 -6t13 -10.5t2 -8.5q0 -24 -45 -22q-49 2 -124 -23t-160 -69.5t-170.5 -112.5t-155 -147t-115 -179.5t-49.5 -202.5q-3 -91 16.5 -165t52 -122.5t80.5 -85.5t93.5 -57t99.5 -32.5 t89.5 -16t72.5 -4.5q155 -6 309.5 46.5t274 144.5t196.5 225.5t82 279.5q4 112 -24 197.5t-70 132.5t-99.5 77t-101 39.5t-86.5 10.5q-92 3 -174 -9.5t-134 -33t-91 -41.5t-55 -36l-17 -15q-3 -3 -7.5 -6.5t-16 -10t-15.5 0.5q-11 10 -9 22t10 22l8 11q8 7 23.5 18.5t67 40 t106 50t137 38t165.5 13.5q144 -5 252 -75.5t162 -185.5t49 -253q-5 -149 -84.5 -294t-206 -254.5t-300.5 -174.5t-355 -58q-103 4 -189 27t-144.5 58t-104 82t-71.5 95.5t-42 102t-21 97t-4 85.5zM847 1602.5q-1 15.5 11 29.5q13 17 20.5 21t15 -1.5t19.5 -25.5 q7 -9 38.5 -80.5t35.5 -83.5q2 -6 -1.5 -23t-12.5 -26q-29 -18 -55 41l-60 119q-3 3 -6.5 8.5t-4.5 21z" />
<glyph unicode="&#xd3;" horiz-adv-x="1462" d="M-25 559q3 96 44.5 197t107 188.5t152.5 165.5t180 133t190.5 85t181.5 26q14 -1 24 -6t13 -10.5t2 -8.5q0 -24 -45 -22q-49 2 -124 -23t-160 -69.5t-170.5 -112.5t-155 -147t-115 -179.5t-49.5 -202.5q-3 -91 16.5 -165t52 -122.5t80.5 -85.5t93.5 -57t99.5 -32.5 t89.5 -16t72.5 -4.5q155 -6 309.5 46.5t274 144.5t196.5 225.5t82 279.5q4 112 -24 197.5t-70 132.5t-99.5 77t-101 39.5t-86.5 10.5q-92 3 -174 -9.5t-134 -33t-91 -41.5t-55 -36l-17 -15q-3 -3 -7.5 -6.5t-16 -10t-15.5 0.5q-11 10 -9 22t10 22l8 11q8 7 23.5 18.5t67 40 t106 50t137 38t165.5 13.5q144 -5 252 -75.5t162 -185.5t49 -253q-5 -149 -84.5 -294t-206 -254.5t-300.5 -174.5t-355 -58q-103 4 -189 27t-144.5 58t-104 82t-71.5 95.5t-42 102t-21 97t-4 85.5zM1042 1473q6 14 37 83.5t37 79.5q17 27 26.5 28t28.5 -22q12 -15 12 -29.5 t-6 -22.5l-6 -7q-41 -78 -59 -119q-27 -62 -55 -41q-10 8 -13.5 25.5t-1.5 24.5z" />
<glyph unicode="&#xd4;" horiz-adv-x="1462" d="M-25 559q3 96 44.5 197t107 188.5t152.5 165.5t180 133t190.5 85t181.5 26q14 -1 24 -6t13 -10.5t2 -8.5q0 -24 -45 -22q-49 2 -124 -23t-160 -69.5t-170.5 -112.5t-155 -147t-115 -179.5t-49.5 -202.5q-3 -91 16.5 -165t52 -122.5t80.5 -85.5t93.5 -57t99.5 -32.5 t89.5 -16t72.5 -4.5q155 -6 309.5 46.5t274 144.5t196.5 225.5t82 279.5q4 112 -24 197.5t-70 132.5t-99.5 77t-101 39.5t-86.5 10.5q-92 3 -174 -9.5t-134 -33t-91 -41.5t-55 -36l-17 -15q-3 -3 -7.5 -6.5t-16 -10t-15.5 0.5q-11 10 -9 22t10 22l8 11q8 7 23.5 18.5t67 40 t106 50t137 38t165.5 13.5q144 -5 252 -75.5t162 -185.5t49 -253q-5 -149 -84.5 -294t-206 -254.5t-300.5 -174.5t-355 -58q-103 4 -189 27t-144.5 58t-104 82t-71.5 95.5t-42 102t-21 97t-4 85.5zM955.5 1423q-4.5 10 2.5 21q8 9 51 52.5t48 49.5q21 19 31.5 18.5 t21.5 -18.5q6 -9 26.5 -47t22.5 -43q11 -22 -14 -47q-27 -27 -51 16q-26 42 -33 50q-34 -34 -70 -66q-7 -7 -19 -1.5t-16.5 15.5z" />
<glyph unicode="&#xd5;" horiz-adv-x="1462" d="M-25 559q3 96 44.5 197t107 188.5t152.5 165.5t180 133t190.5 85t181.5 26q14 -1 24 -6t13 -10.5t2 -8.5q0 -24 -45 -22q-49 2 -124 -23t-160 -69.5t-170.5 -112.5t-155 -147t-115 -179.5t-49.5 -202.5q-3 -91 16.5 -165t52 -122.5t80.5 -85.5t93.5 -57t99.5 -32.5 t89.5 -16t72.5 -4.5q155 -6 309.5 46.5t274 144.5t196.5 225.5t82 279.5q4 112 -24 197.5t-70 132.5t-99.5 77t-101 39.5t-86.5 10.5q-92 3 -174 -9.5t-134 -33t-91 -41.5t-55 -36l-17 -15q-3 -3 -7.5 -6.5t-16 -10t-15.5 0.5q-11 10 -9 22t10 22l8 11q8 7 23.5 18.5t67 40 t106 50t137 38t165.5 13.5q144 -5 252 -75.5t162 -185.5t49 -253q-5 -149 -84.5 -294t-206 -254.5t-300.5 -174.5t-355 -58q-103 4 -189 27t-144.5 58t-104 82t-71.5 95.5t-42 102t-21 97t-4 85.5zM913 1454q10 14 34.5 26.5t49.5 12.5q28 -1 66.5 -18.5t48.5 -18.5 q18 -3 32 2t20.5 10.5t23.5 22.5q13 10 22 2.5t13.5 -22.5t1.5 -17q-31 -31 -59 -46t-64 -7q-5 1 -27 10.5t-39.5 15t-43 7.5t-36.5 -11q-14 -10 -24 -3t-15.5 19.5t-3.5 14.5z" />
<glyph unicode="&#xd6;" horiz-adv-x="1462" d="M-25 559q3 96 44.5 197t107 188.5t152.5 165.5t180 133t190.5 85t181.5 26q14 -1 24 -6t13 -10.5t2 -8.5q0 -24 -45 -22q-49 2 -124 -23t-160 -69.5t-170.5 -112.5t-155 -147t-115 -179.5t-49.5 -202.5q-3 -91 16.5 -165t52 -122.5t80.5 -85.5t93.5 -57t99.5 -32.5 t89.5 -16t72.5 -4.5q155 -6 309.5 46.5t274 144.5t196.5 225.5t82 279.5q4 112 -24 197.5t-70 132.5t-99.5 77t-101 39.5t-86.5 10.5q-92 3 -174 -9.5t-134 -33t-91 -41.5t-55 -36l-17 -15q-3 -3 -7.5 -6.5t-16 -10t-15.5 0.5q-11 10 -9 22t10 22l8 11q8 7 23.5 18.5t67 40 t106 50t137 38t165.5 13.5q144 -5 252 -75.5t162 -185.5t49 -253q-5 -149 -84.5 -294t-206 -254.5t-300.5 -174.5t-355 -58q-103 4 -189 27t-144.5 58t-104 82t-71.5 95.5t-42 102t-21 97t-4 85.5zM872 1479q0 19 18 43t46 20q29 -4 38 -27t5 -51q-3 -22 -20.5 -35 t-40.5 -10q-26 4 -37 22.5t-9 37.5zM1061 1470q0 20 18 47.5t45 24.5q47 -5 47 -65q-1 -30 -24.5 -47t-42.5 -15q-25 4 -35 21t-8 34z" />
<glyph unicode="&#xd7;" horiz-adv-x="532" d="M95 591.5q-2 8.5 1 16.5q3 15 10 20t13 3t10 -6q1 -1 18 -12.5t37.5 -25t49.5 -35.5t53 -42q70 73 96 88q31 16 63 0q31 -17 -10 -51q-12 -10 -92 -94q80 -73 98 -105q8 -14 9 -27t-1 -18.5t-8 -17.5q-15 -34 -49 10q-21 23 -102 98q-99 -110 -107 -117q-4 -3 -10.5 -10 t-8.5 -8t-9.5 -5.5t-13 -2.5t-19.5 2q-15 2 -20 8.5t-3 12.5t6 10q55 92 125 166q-96 82 -108 98q-3 3 -9 8.5t-7.5 7.5t-6 7.5t-4 9t-1.5 12z" />
<glyph unicode="&#xd8;" horiz-adv-x="1462" d="M-25 559q3 96 44.5 197t107 188.5t152.5 165.5t180 133t190.5 85t181.5 26q14 -1 24 -6t13 -10.5t2 -8.5q0 -24 -45 -22q-49 2 -124 -23t-160 -69.5t-170.5 -112.5t-155 -147t-115 -179.5t-49.5 -202.5q-8 -246 146 -372q117 114 511.5 503.5t503.5 495.5q-77 38 -176 43 q-92 3 -174 -9.5t-134 -33t-91 -41.5t-55 -36l-17 -15q-3 -3 -7.5 -6.5t-16 -10t-15.5 0.5q-11 10 -9 22t10 22l8 11q8 7 23.5 18.5t67 40t106 50t137 38t165.5 13.5q123 -3 226 -60l22 22l12 11q8 7 23 20.5t20.5 18t17 12t23 11t27.5 6.5q16 2 22.5 -2.5t3.5 -12.5 t-8.5 -16t-11.5 -14q-14 -14 -45 -45.5t-49 -49.5q91 -70 138 -178.5t42 -236.5q-5 -149 -84.5 -294t-206 -254.5t-300.5 -174.5t-355 -58q-206 8 -344 92q-11 -9 -22.5 -19t-23.5 -21.5t-18 -16.5v2q-27 -20 -47 -28t-29 -7.5t-22 4.5q-43 7 45 80q2 2 19.5 19t33.5 33 q-66 57 -106.5 136t-52 144.5t-9.5 128.5zM264 158q121 -63 291 -68q155 -6 309.5 46.5t274 144.5t196.5 225.5t82 279.5q10 260 -145 377q-27 -28 -132 -134t-154.5 -156t-148 -150t-162 -163t-144 -143t-146.5 -143.5t-121 -115.5z" />
<glyph unicode="&#xd9;" horiz-adv-x="868" d="M4 567q-3 125 19 280.5t45 248.5l24 94q2 4 6.5 9t20.5 11t33 2q17 -5 27.5 -19t12.5 -25l1 -11q-3 -7 -9 -21.5t-21.5 -67.5t-28 -115t-25.5 -165t-19 -217q-5 -39 -1.5 -93t8 -112t23 -115t44 -103t71 -76t103.5 -33q76 -3 141.5 43t110.5 121t81.5 173t57.5 193.5 t36 188t20 150.5t6 87q4 95 -9 267q-2 38 34 3q32 -31 45 -57l1 -4q14 -65 -4 -303q-22 -263 -94 -476.5t-190.5 -339.5t-260.5 -112q-48 5 -87 19.5t-68.5 34t-52.5 51.5t-38.5 61.5t-27 74.5t-17.5 80t-10 89t-5.5 90t-2.5 94zM356 1602.5q-1 15.5 11 29.5q13 17 20.5 21 t15 -1.5t19.5 -25.5q7 -9 38.5 -80.5t35.5 -83.5q2 -6 -2 -23t-13 -26q-29 -18 -55 41l-59 119q-3 3 -6.5 8.5t-4.5 21z" />
<glyph unicode="&#xda;" horiz-adv-x="868" d="M4 567q-3 125 19 280.5t45 248.5l24 94q2 4 6.5 9t20.5 11t33 2q17 -5 27.5 -19t12.5 -25l1 -11q-3 -7 -9 -21.5t-21.5 -67.5t-28 -115t-25.5 -165t-19 -217q-5 -39 -1.5 -93t8 -112t23 -115t44 -103t71 -76t103.5 -33q76 -3 141.5 43t110.5 121t81.5 173t57.5 193.5 t36 188t20 150.5t6 87q4 95 -9 267q-2 38 34 3q32 -31 45 -57l1 -4q14 -65 -4 -303q-22 -263 -94 -476.5t-190.5 -339.5t-260.5 -112q-48 5 -87 19.5t-68.5 34t-52.5 51.5t-38.5 61.5t-27 74.5t-17.5 80t-10 89t-5.5 90t-2.5 94zM498 1356q7 16 37 85t36 79q17 27 27 28 t29 -22q12 -15 12 -30t-6 -22l-6 -8q-42 -77 -60 -118q-27 -62 -55 -41q-10 8 -13 25t-1 24z" />
<glyph unicode="&#xdb;" horiz-adv-x="868" d="M4 567q-3 125 19 280.5t45 248.5l24 94q2 4 6.5 9t20.5 11t33 2q17 -5 27.5 -19t12.5 -25l1 -11q-3 -7 -9 -21.5t-21.5 -67.5t-28 -115t-25.5 -165t-19 -217q-5 -39 -1.5 -93t8 -112t23 -115t44 -103t71 -76t103.5 -33q76 -3 141.5 43t110.5 121t81.5 173t57.5 193.5 t36 188t20 150.5t6 87q4 95 -9 267q-2 38 34 3q32 -31 45 -57l1 -4q14 -65 -4 -303q-22 -263 -94 -476.5t-190.5 -339.5t-260.5 -112q-48 5 -87 19.5t-68.5 34t-52.5 51.5t-38.5 61.5t-27 74.5t-17.5 80t-10 89t-5.5 90t-2.5 94zM424.5 1371.5q-4.5 10.5 1.5 21.5 q16 18 98 100q21 21 32 20.5t22 -18.5q20 -30 51 -92q3 -8 -1.5 -22t-15.5 -25q-26 -29 -51 16q-6 13 -33 51q-7 -8 -35.5 -35t-33.5 -32q-7 -7 -18.5 -1t-16 16.5z" />
<glyph unicode="&#xdc;" horiz-adv-x="868" d="M4 567q-3 125 19 280.5t45 248.5l24 94q2 4 6.5 9t20.5 11t33 2q17 -5 27.5 -19t12.5 -25l1 -11q-3 -7 -9 -21.5t-21.5 -67.5t-28 -115t-25.5 -165t-19 -217q-5 -39 -1.5 -93t8 -112t23 -115t44 -103t71 -76t103.5 -33q76 -3 141.5 43t110.5 121t81.5 173t57.5 193.5 t36 188t20 150.5t6 87q4 95 -9 267q-2 38 34 3q32 -31 45 -57l1 -4q14 -65 -4 -303q-22 -263 -94 -476.5t-190.5 -339.5t-260.5 -112q-48 5 -87 19.5t-68.5 34t-52.5 51.5t-38.5 61.5t-27 74.5t-17.5 80t-10 89t-5.5 90t-2.5 94zM340 1409q0 20 17.5 44.5t45.5 19.5 q29 -4 38 -27t5 -51q-3 -22 -20.5 -35t-40.5 -10q-27 4 -37 21.5t-8 37.5zM526 1401q2 21 20.5 48t45.5 24q26 -1 36.5 -21t10.5 -45q-1 -31 -25 -47t-45 -12q-43 7 -43 53z" />
<glyph unicode="&#xdd;" horiz-adv-x="870" d="M-18 -506q-10 14 3 27t31 19.5t19 2.5q3 -6 9 -16t29 -36t51.5 -45.5t78.5 -36t108 -17.5q29 0 49.5 1.5t60 11t69 27t66.5 54.5t62.5 87.5t46.5 130.5t29 181q8 109 27 523q-185 -449 -438 -441q-90 2 -153 55t-92 139t-38 196t4 229.5t38 235.5t60.5 217.5t75.5 172.5 l9 12q29 27 75 -61q-48 -88 -87.5 -206t-64.5 -242.5t-29.5 -246.5t12.5 -218.5t65.5 -157t124.5 -63.5q69 -2 135 40.5t113 105t90 148t67.5 151t44.5 132.5q13 160 33 277q1 5 4.5 28t6 36.5t7.5 39.5t10 43t12 40t15 37t18 28t21.5 19.5t24.5 4.5q10 -1 17.5 -9t11 -26 t3 -44t-7.5 -65.5t-20 -88.5q-60 -214 -101 -340q-2 -94 -3 -326.5t-3 -345.5q-2 -134 -42 -246t-105 -184.5t-149 -111t-175 -34.5q-68 2 -126.5 19t-93.5 37.5t-61.5 44.5t-36.5 37.5t-11 17.5zM559 1346q6 14 37 83.5t37 79.5q18 27 26 28.5t29 -21.5q11 -15 11 -30 t-5 -22l-6 -8q-41 -78 -59 -119q-28 -63 -56 -41q-10 8 -13 25.5t-1 24.5z" />
<glyph unicode="&#xde;" />
<glyph unicode="&#xe0;" horiz-adv-x="608" d="M4 260q9 68 35 124t59 88t66 49t59 16q33 -1 57 -12.5t33 -27.5t14.5 -33t3.5 -28.5t-1 -15.5q-2 -8 -5 -14t-5 -10.5t-5.5 -7t-5.5 -4.5t-5.5 -2.5t-5 -1t-5.5 1t-5 1.5t-5 2l-4 2q-2 3 0.5 22t-12.5 42t-46 24q-43 1 -83 -53.5t-56 -126.5q-18 -71 -6.5 -131t47.5 -60 q26 0 53 32t46 77t31.5 84.5t16.5 62.5q5 8 22.5 8.5t36.5 -10.5t17 -26q-1 0 -7.5 -22.5t-10.5 -55t-2 -64.5t23 -54.5t59 -22.5q105 0 249 262q11 20 21 5q16 -23 -6 -78l-10 -21q-17 -33 -39 -66t-57 -75.5t-78 -69t-85 -27.5q-34 -1 -61.5 11.5t-41.5 31t-23.5 36.5 t-12.5 31l-2 13q-3 -5 -8.5 -14.5t-22 -32.5t-32.5 -40.5t-39 -32t-43 -13.5q-18 0 -38 9t-42 31t-32 70.5t-1 116.5zM120 817.5q-1 15.5 11 30.5q13 16 20.5 20t15 -1.5t19.5 -24.5q6 -10 37 -79.5t37 -84.5q2 -7 -1 -24t-13 -25q-28 -22 -56 41l-59 118q-3 3 -6.5 8.5 t-4.5 21z" />
<glyph unicode="&#xe1;" horiz-adv-x="608" d="M4 260q9 68 35 124t59 88t66 49t59 16q33 -1 57 -12.5t33 -27.5t14.5 -33t3.5 -28.5t-1 -15.5q-2 -8 -5 -14t-5 -10.5t-5.5 -7t-5.5 -4.5t-5.5 -2.5t-5 -1t-5.5 1t-5 1.5t-5 2l-4 2q-2 3 0.5 22t-12.5 42t-46 24q-43 1 -83 -53.5t-56 -126.5q-18 -71 -6.5 -131t47.5 -60 q26 0 53 32t46 77t31.5 84.5t16.5 62.5q5 8 22.5 8.5t36.5 -10.5t17 -26q-1 0 -7.5 -22.5t-10.5 -55t-2 -64.5t23 -54.5t59 -22.5q105 0 249 262q11 20 21 5q16 -23 -6 -78l-10 -21q-17 -33 -39 -66t-57 -75.5t-78 -69t-85 -27.5q-34 -1 -61.5 11.5t-41.5 31t-23.5 36.5 t-12.5 31l-2 13q-3 -5 -8.5 -14.5t-22 -32.5t-32.5 -40.5t-39 -32t-43 -13.5q-18 0 -38 9t-42 31t-32 70.5t-1 116.5zM279 678q7 16 37 85t36 79q17 27 27 28t29 -22q12 -15 12 -30t-6 -22l-6 -8q-42 -77 -60 -118q-27 -62 -55 -41q-10 8 -13 25t-1 24z" />
<glyph unicode="&#xe2;" horiz-adv-x="608" d="M4 260q9 68 35 124t59 88t66 49t59 16q33 -1 57 -12.5t33 -27.5t14.5 -33t3.5 -28.5t-1 -15.5q-2 -8 -5 -14t-5 -10.5t-5.5 -7t-5.5 -4.5t-5.5 -2.5t-5 -1t-5.5 1t-5 1.5t-5 2l-4 2q-2 3 0.5 22t-12.5 42t-46 24q-43 1 -83 -53.5t-56 -126.5q-18 -71 -6.5 -131t47.5 -60 q26 0 53 32t46 77t31.5 84.5t16.5 62.5q5 8 22.5 8.5t36.5 -10.5t17 -26q-1 0 -7.5 -22.5t-10.5 -55t-2 -64.5t23 -54.5t59 -22.5q105 0 249 262q11 20 21 5q16 -23 -6 -78l-10 -21q-17 -33 -39 -66t-57 -75.5t-78 -69t-85 -27.5q-34 -1 -61.5 11.5t-41.5 31t-23.5 36.5 t-12.5 31l-2 13q-3 -5 -8.5 -14.5t-22 -32.5t-32.5 -40.5t-39 -32t-43 -13.5q-18 0 -38 9t-42 31t-32 70.5t-1 116.5zM178 662q16 18 98 100q35 38 54 2q20 -30 51 -92q5 -7 0.5 -21t-16.5 -26q-12 -14 -26 -9.5t-24 25.5q-5 10 -17 27.5t-15 23.5q-3 -3 -32 -29.5 t-38 -37.5q-13 -11 -30 4.5t-5 32.5z" />
<glyph unicode="&#xe3;" horiz-adv-x="608" d="M4 260q9 68 35 124t59 88t66 49t59 16q33 -1 57 -12.5t33 -27.5t14.5 -33t3.5 -28.5t-1 -15.5q-2 -8 -5 -14t-5 -10.5t-5.5 -7t-5.5 -4.5t-5.5 -2.5t-5 -1t-5.5 1t-5 1.5t-5 2l-4 2q-2 3 0.5 22t-12.5 42t-46 24q-43 1 -83 -53.5t-56 -126.5q-18 -71 -6.5 -131t47.5 -60 q26 0 53 32t46 77t31.5 84.5t16.5 62.5q5 8 22.5 8.5t36.5 -10.5t17 -26q-1 0 -7.5 -22.5t-10.5 -55t-2 -64.5t23 -54.5t59 -22.5q105 0 249 262q11 20 21 5q16 -23 -6 -78l-10 -21q-17 -33 -39 -66t-57 -75.5t-78 -69t-85 -27.5q-34 -1 -61.5 11.5t-41.5 31t-23.5 36.5 t-12.5 31l-2 13q-3 -5 -8.5 -14.5t-22 -32.5t-32.5 -40.5t-39 -32t-43 -13.5q-18 0 -38 9t-42 31t-32 70.5t-1 116.5zM90 674q10 14 34.5 26.5t49.5 12.5q28 -1 66.5 -18.5t48.5 -18.5q18 -3 32 2t20.5 10.5t23.5 22.5q13 10 21.5 2.5t13 -22.5t1.5 -17q-21 -21 -35.5 -32 t-38 -19t-48.5 -2q-5 1 -27 10.5t-39.5 15t-43 7.5t-36.5 -11q-14 -10 -24 -3t-15.5 19.5t-3.5 14.5z" />
<glyph unicode="&#xe4;" horiz-adv-x="608" d="M4 260q9 68 35 124t59 88t66 49t59 16q33 -1 57 -12.5t33 -27.5t14.5 -33t3.5 -28.5t-1 -15.5q-2 -8 -5 -14t-5 -10.5t-5.5 -7t-5.5 -4.5t-5.5 -2.5t-5 -1t-5.5 1t-5 1.5t-5 2l-4 2q-2 3 0.5 22t-12.5 42t-46 24q-43 1 -83 -53.5t-56 -126.5q-18 -71 -6.5 -131t47.5 -60 q26 0 53 32t46 77t31.5 84.5t16.5 62.5q5 8 22.5 8.5t36.5 -10.5t17 -26q-1 0 -7.5 -22.5t-10.5 -55t-2 -64.5t23 -54.5t59 -22.5q105 0 249 262q11 20 21 5q16 -23 -6 -78l-10 -21q-17 -33 -39 -66t-57 -75.5t-78 -69t-85 -27.5q-34 -1 -61.5 11.5t-41.5 31t-23.5 36.5 t-12.5 31l-2 13q-3 -5 -8.5 -14.5t-22 -32.5t-32.5 -40.5t-39 -32t-43 -13.5q-18 0 -38 9t-42 31t-32 70.5t-1 116.5zM98 682q2 21 19 44t45 19q53 -7 43 -77q-3 -22 -21 -35t-41 -10q-45 7 -45 59zM287 674q0 19 18 46.5t45 24.5t38 -22.5t9 -42.5q0 -30 -24 -47t-43 -15 q-25 4 -35 21.5t-8 34.5z" />
<glyph unicode="&#xe5;" horiz-adv-x="608" d="M4 260q9 68 35 124t59 88t66 49t59 16q33 -1 57 -12.5t33 -27.5t14.5 -33t3.5 -28.5t-1 -15.5q-2 -8 -5 -14t-5 -10.5t-5.5 -7t-5.5 -4.5t-5.5 -2.5t-5 -1t-5.5 1t-5 1.5t-5 2l-4 2q-2 3 0.5 22t-12.5 42t-46 24q-43 1 -83 -53.5t-56 -126.5q-18 -71 -6.5 -131t47.5 -60 q26 0 53 32t46 77t31.5 84.5t16.5 62.5q5 8 22.5 8.5t36.5 -10.5t17 -26q-1 0 -7.5 -22.5t-10.5 -55t-2 -64.5t23 -54.5t59 -22.5q105 0 249 262q11 20 21 5q16 -23 -6 -78l-10 -21q-17 -33 -39 -66t-57 -75.5t-78 -69t-85 -27.5q-34 -1 -61.5 11.5t-41.5 31t-23.5 36.5 t-12.5 31l-2 13q-3 -5 -8.5 -14.5t-22 -32.5t-32.5 -40.5t-39 -32t-43 -13.5q-18 0 -38 9t-42 31t-32 70.5t-1 116.5zM217 715q7 29 32 51t60 18q33 -3 47.5 -28.5t12.5 -55.5q-1 -41 -26.5 -60.5t-59.5 -14.5q-34 4 -53 31t-13 59zM264 702q0 -28 25 -32q12 -2 22 5t11 19 q5 39 -23 43q-16 3 -25.5 -10.5t-9.5 -24.5z" />
<glyph unicode="&#xe6;" horiz-adv-x="690" d="M4 260q9 68 35 124t59 88t66 49t59 16q77 -3 101 -56q77 123 155 74q14 -9 24 -19.5t14.5 -23.5t8 -23t1.5 -27.5t-2.5 -26t-7.5 -28.5t-9 -26.5t-11 -28t-10 -24.5q-35 -89 -118 -189q31 -28 86 -28q27 0 53 8.5t46 20t43 33.5t37 38t33.5 45t27.5 42.5t25.5 43 t20.5 35.5q11 20 20 6q15 -23 -7 -79q-5 -11 -11 -23q-9 -18 -19.5 -37.5t-38.5 -60.5t-57.5 -70.5t-73 -53t-87.5 -22.5q-162 3 -195 151l-10 -22q-3 -5 -8.5 -14.5t-22 -32.5t-32.5 -40.5t-39 -32t-43 -13.5q-18 0 -38 9t-42 31t-32 70.5t-1 116.5zM75.5 164 q11.5 -60 47.5 -60q26 0 53 32t46 77t31.5 84.5t16.5 62.5q0 7 6 7q1 4 3.5 12t3.5 12q2 12 -1 29t-18 35.5t-43 19.5q-43 1 -83 -53.5t-56 -126.5q-18 -71 -6.5 -131zM340 190q20 22 33.5 39.5t23.5 37.5l13.5 27t12 31.5t9.5 26.5q14 35 21.5 64.5t4.5 53.5t-20 28 q-21 3 -49.5 -49t-45 -128t-3.5 -131z" />
<glyph unicode="&#xe7;" horiz-adv-x="509" d="M0 248q2 70 30.5 141t86 122t129.5 48q51 -1 79.5 -30t28.5 -74q0 -29 -10.5 -54t-19 -35.5t-25.5 -27.5q-30 -30 -55 -12q-7 6 -4 24.5t12 30.5q16 20 24 46t1 46.5t-33 22.5q-59 3 -109 -66t-53 -162q-3 -95 29.5 -137t119.5 -43q34 0 66 9t57 22t50.5 36.5t41.5 41.5 t36 48.5t29.5 46t25.5 45t20 36.5q11 21 21 8q16 -20 -5 -74l-10 -24q-5 -13 -15 -31t-39.5 -59t-64 -73t-90.5 -60t-118 -33l-9 -21q24 5 43.5 -9.5t16.5 -39.5q-2 -38 -38 -52t-93 7q-9 4 3 15q7 5 13 5q53 -17 73 8q14 17 -3 30q-17 14 -52 5l-5 -1q-2 0 -1 3l21 50 q-92 3 -150 64t-55 157z" />
<glyph unicode="&#xe8;" horiz-adv-x="282" d="M-145 297q2 42 19.5 96t47 100t68 66.5t80.5 -4.5q36 -24 43 -65t-0.5 -67.5t-28.5 -78.5q-4 -11 -6 -16q-34 -86 -119 -189q32 -28 86 -28q24 0 46.5 5.5t43.5 18.5t38.5 25t36 34t31 36t29 40.5t24 37.5t22.5 37.5t18 31.5q11 20 20 6q15 -23 -7 -79q-5 -11 -11 -23 q-9 -18 -19.5 -37.5t-39 -60.5t-58 -70.5t-73 -53t-87.5 -22.5q-213 5 -204 260zM-70 190q16 18 29.5 35.5t21 28.5t15 28t10 22.5t9 24.5t8.5 23q14 35 21.5 64.5t4.5 53.5t-20 28q-21 3 -49.5 -49t-45.5 -128t-4 -131zM-44 817.5q-1 15.5 11 30.5q13 16 21 20t15.5 -2 t19.5 -24q6 -10 36 -79t37 -85q2 -7 -1 -24t-13 -25q-28 -21 -55 41l-60 118q-3 3 -6.5 8.5t-4.5 21z" />
<glyph unicode="&#xe9;" horiz-adv-x="282" d="M-145 297q2 42 19.5 96t47 100t68 66.5t80.5 -4.5q36 -24 43 -65t-0.5 -67.5t-28.5 -78.5q-4 -11 -6 -16q-34 -86 -119 -189q32 -28 86 -28q24 0 46.5 5.5t43.5 18.5t38.5 25t36 34t31 36t29 40.5t24 37.5t22.5 37.5t18 31.5q11 20 20 6q15 -23 -7 -79q-5 -11 -11 -23 q-9 -18 -19.5 -37.5t-39 -60.5t-58 -70.5t-73 -53t-87.5 -22.5q-213 5 -204 260zM-70 190q16 18 29.5 35.5t21 28.5t15 28t10 22.5t9 24.5t8.5 23q14 35 21.5 64.5t4.5 53.5t-20 28q-21 3 -49.5 -49t-45.5 -128t-4 -131zM94 678q6 15 37 84.5t37 79.5q17 27 26.5 28 t28.5 -22q12 -15 12 -30t-6 -22l-6 -8q-41 -77 -59 -118q-27 -62 -55 -41q-10 8 -13.5 25t-1.5 24z" />
<glyph unicode="&#xea;" horiz-adv-x="282" d="M-145 297q2 42 19.5 96t47 100t68 66.5t80.5 -4.5q36 -24 43 -65t-0.5 -67.5t-28.5 -78.5q-4 -11 -6 -16q-34 -86 -119 -189q32 -28 86 -28q24 0 46.5 5.5t43.5 18.5t38.5 25t36 34t31 36t29 40.5t24 37.5t22.5 37.5t18 31.5q11 20 20 6q15 -23 -7 -79q-5 -11 -11 -23 q-9 -18 -19.5 -37.5t-39 -60.5t-58 -70.5t-73 -53t-87.5 -22.5q-213 5 -204 260zM-70 190q16 18 29.5 35.5t21 28.5t15 28t10 22.5t9 24.5t8.5 23q14 35 21.5 64.5t4.5 53.5t-20 28q-21 3 -49.5 -49t-45.5 -128t-4 -131zM-37 662q16 18 98 100q35 38 54 2q20 -30 51 -92 q5 -7 0.5 -21t-16.5 -26q-12 -14 -26 -9.5t-24 25.5q-5 10 -17 27.5t-15 23.5q-3 -3 -32 -29.5t-38 -37.5q-13 -11 -30 4.5t-5 32.5z" />
<glyph unicode="&#xeb;" horiz-adv-x="282" d="M-145 297q2 42 19.5 96t47 100t68 66.5t80.5 -4.5q36 -24 43 -65t-0.5 -67.5t-28.5 -78.5q-4 -11 -6 -16q-34 -86 -119 -189q32 -28 86 -28q24 0 46.5 5.5t43.5 18.5t38.5 25t36 34t31 36t29 40.5t24 37.5t22.5 37.5t18 31.5q11 20 20 6q15 -23 -7 -79q-5 -11 -11 -23 q-9 -18 -19.5 -37.5t-39 -60.5t-58 -70.5t-73 -53t-87.5 -22.5q-213 5 -204 260zM-70 190q16 18 29.5 35.5t21 28.5t15 28t10 22.5t9 24.5t8.5 23q14 35 21.5 64.5t4.5 53.5t-20 28q-21 3 -49.5 -49t-45.5 -128t-4 -131zM-55 682q2 21 18.5 44t44.5 19q53 -7 43 -77 q-3 -22 -20.5 -35t-40.5 -10q-45 7 -45 59zM133 674q0 19 18.5 46.5t45.5 24.5t38 -22.5t9 -42.5q0 -30 -24 -47t-44 -15q-25 4 -35 21.5t-8 34.5z" />
<glyph unicode="&#xec;" horiz-adv-x="395" d="M1 696.5q-1 15.5 11 30.5q13 16 21 20t15.5 -2t19.5 -24q6 -10 36 -79t37 -85q2 -7 -1 -24t-13 -25q-28 -21 -55 41l-60 119q-3 3 -6.5 8t-4.5 20.5zM43 260l20 137q7 18 26 24t35.5 -2t16.5 -26l-5 -25q-5 -26 -9.5 -57t-4 -70t8 -69.5t31 -51t61.5 -18.5q31 1 64.5 23 t59 49.5t55.5 71t44.5 69t34.5 62.5q11 21 21 7q16 -23 -5 -79l-10 -22q-8 -16 -20 -37.5t-40 -61.5t-57.5 -71t-71.5 -54.5t-83 -23.5q-38 0 -68.5 13.5t-48.5 36t-30.5 48t-17.5 52t-6.5 45.5t-0.5 30z" />
<glyph unicode="&#xed;" horiz-adv-x="395" d="M2 260l21 137q7 18 26 24t35 -2t16 -26l-5 -25q-5 -26 -9.5 -57t-4 -70t8 -69.5t31 -51t61.5 -18.5q31 1 64.5 23t59 49.5t55.5 71t44.5 69t34.5 62.5q11 21 21 7q16 -23 -5 -79l-10 -22q-8 -16 -20 -37.5t-40 -61.5t-57.5 -71t-71.5 -54.5t-83 -23.5q-38 0 -68.5 13.5 t-48.5 36t-30.5 48t-17.5 52t-6.5 45.5t-0.5 30zM94 553q6 15 37 84.5t37 79.5q17 27 26.5 28t28.5 -22q12 -15 12 -29.5t-6 -21.5l-6 -8q-41 -78 -59 -119q-27 -62 -55 -41q-10 8 -13.5 25t-1.5 24z" />
<glyph unicode="&#xee;" horiz-adv-x="395" d="M6 539q16 18 98 100q35 38 54 2q20 -30 51 -92q5 -7 0.5 -21t-16.5 -26q-12 -14 -26 -9.5t-24 25.5q-5 10 -17 27.5t-15 23.5q-3 -3 -32 -29.5t-38 -37.5q-13 -11 -30 4.5t-5 32.5zM45 260l21 137q7 18 26 24t35 -2t16 -26l-5 -25q-5 -26 -9.5 -57t-4 -70t8 -69.5t31 -51 t61.5 -18.5q31 1 64.5 23t59 49.5t55.5 71t44.5 69t34.5 62.5q11 21 21 7q16 -23 -5 -79l-10 -22q-8 -16 -20 -37.5t-40 -61.5t-57.5 -71t-71.5 -54.5t-83 -23.5q-38 0 -68.5 13.5t-48.5 36t-30.5 48t-17.5 52t-6.5 45.5t-0.5 30z" />
<glyph unicode="&#xef;" horiz-adv-x="395" d="M0 563q2 22 18.5 45.5t44.5 18.5q53 -7 43 -78q-3 -22 -20.5 -35t-40.5 -10q-45 7 -45 59zM70 260l20 137q7 18 26 24t35.5 -2t16.5 -26l-5 -25q-5 -26 -9.5 -57t-4 -70t8 -69.5t31 -51t61.5 -18.5q31 1 64.5 23t59 49.5t55.5 71t44.5 69t34.5 62.5q11 21 21 7 q16 -23 -5 -79l-10 -22q-8 -16 -20 -37.5t-40 -61.5t-57.5 -71t-71.5 -54.5t-83 -23.5q-38 0 -68.5 13.5t-48.5 36t-30.5 48t-17.5 52t-6.5 45.5t-0.5 30zM188 555q0 19 18.5 47t45.5 27q27 -3 38 -23.5t9 -44.5q0 -30 -24.5 -46.5t-43.5 -12.5q-25 4 -35 20t-8 33z" />
<glyph unicode="&#xf0;" />
<glyph unicode="&#xf1;" horiz-adv-x="700" d="M25 334q7 13 45 76q8 14 20 23t26 10.5t28 -10t24 -36.5q11 -33 10.5 -74t-6.5 -77t-5 -62.5t15 -29.5q9 -2 24.5 23t34 66t34.5 80.5t31.5 78t19.5 47.5q14 33 42.5 32.5t53.5 -30.5q5 -8 3.5 -35t-10 -63.5t-11 -77.5t0 -76t23.5 -59t59 -27q42 -3 82 18.5t78.5 73 t53.5 76t47 82.5q4 7 6 10q11 20 20 5q16 -25 -7 -82q-4 -10 -9 -20q-8 -17 -19 -36.5t-38 -57t-56 -65.5t-72 -49t-86 -19q-59 2 -94 29t-44 65t-10.5 76t-1 66t-7.5 30q-4 1 -11.5 -17t-16.5 -46t-23.5 -60.5t-31 -60t-39 -45t-46.5 -16.5q-17 1 -28.5 9t-17.5 23.5 t-9.5 29.5t-3 39t1 39t3 42t3.5 37q7 73 -11 73q-2 0 -4.5 -3.5t-7 -11.5l-9 -16t-12 -23t-14.5 -27q-11 -12 -25 5q-16 21 -3 48zM78 590q10 14 34.5 26.5t49.5 12.5q28 -1 66 -18.5t48 -18.5q18 -3 32 2t20.5 10.5t23.5 22.5q13 10 22 2.5t13.5 -22.5t1.5 -17 q-31 -31 -59 -46t-64 -7q-5 1 -26.5 10.5t-39 15t-42.5 7.5t-37 -11q-14 -10 -24 -3t-15.5 19.5t-3.5 14.5z" />
<glyph unicode="&#xf2;" horiz-adv-x="483" d="M-16 221q6 73 37.5 154t76.5 88q14 72 92 78q49 4 91.5 -58t33.5 -182q0 -13 -4 -37q36 -12 71.5 -13t70.5 21t57 66l20 35q10 19 21 6q15 -17 4 -57q-9 -28 -28.5 -53t-52.5 -48t-76.5 -29t-102.5 5q-24 -77 -73 -125.5t-120 -44.5q-46 3 -75 37t-37.5 75t-5.5 82z M48 817.5q-1 15.5 11 30.5q13 16 21 20t15.5 -2t19.5 -24q6 -10 36 -79t37 -85q2 -7 -1 -24t-13 -25q-28 -21 -55 41l-60 118q-3 3 -6.5 8.5t-4.5 21zM53 215q-6 -125 68 -129q36 -3 68 37.5t47 93.5q-87 51 -123 145q-17 -12 -37.5 -63.5t-22.5 -83.5zM166 440.5 q-7 -29.5 4 -55.5q15 -51 78 -92q5 183 -51 178q-24 -1 -31 -30.5z" />
<glyph unicode="&#xf3;" horiz-adv-x="483" d="M-16 221q6 73 37.5 154t76.5 88q14 72 92 78q49 4 91.5 -58t33.5 -182q0 -13 -4 -37q36 -12 71.5 -13t70.5 21t57 66l20 35q10 19 21 6q15 -17 4 -57q-9 -28 -28.5 -53t-52.5 -48t-76.5 -29t-102.5 5q-24 -77 -73 -125.5t-120 -44.5q-46 3 -75 37t-37.5 75t-5.5 82z M53 215q-6 -125 68 -129q36 -3 68 37.5t47 93.5q-87 51 -123 145q-17 -12 -37.5 -63.5t-22.5 -83.5zM166 440.5q-7 -29.5 4 -55.5q15 -51 78 -92q5 183 -51 178q-24 -1 -31 -30.5zM238 676q7 16 37 85t36 79q17 27 27 28t29 -22q12 -15 12 -30t-6 -22l-6 -8 q-42 -77 -60 -118q-27 -62 -55 -41q-10 8 -13 25t-1 24z" />
<glyph unicode="&#xf4;" horiz-adv-x="483" d="M-16 221q6 73 37.5 154t76.5 88q14 72 92 78q49 4 91.5 -58t33.5 -182q0 -13 -4 -37q36 -12 71.5 -13t70.5 21t57 66l20 35q10 19 21 6q15 -17 4 -57q-9 -28 -28.5 -53t-52.5 -48t-76.5 -29t-102.5 5q-24 -77 -73 -125.5t-120 -44.5q-46 3 -75 37t-37.5 75t-5.5 82z M53 215q-6 -125 68 -129q36 -3 68 37.5t47 93.5q-87 51 -123 145q-17 -12 -37.5 -63.5t-22.5 -83.5zM127 662q16 18 98 100q35 38 54 2q20 -30 51 -92q5 -8 0 -21.5t-17 -25.5q-12 -14 -25.5 -9.5t-23.5 25.5q-5 10 -17 27.5t-16 23.5q-2 -2 -31 -29t-38 -38 q-13 -11 -30 4.5t-5 32.5zM166 440.5q-7 -29.5 4 -55.5q15 -51 78 -92q5 183 -51 178q-24 -1 -31 -30.5z" />
<glyph unicode="&#xf5;" horiz-adv-x="483" d="M-16 221q6 73 37.5 154t76.5 88q14 72 92 78q49 4 91.5 -58t33.5 -182q0 -13 -4 -37q36 -12 71.5 -13t70.5 21t57 66l20 35q10 19 21 6q15 -17 4 -57q-9 -28 -28.5 -53t-52.5 -48t-76.5 -29t-102.5 5q-24 -77 -73 -125.5t-120 -44.5q-46 3 -75 37t-37.5 75t-5.5 82z M53 215q-6 -125 68 -129q36 -3 68 37.5t47 93.5q-87 51 -123 145q-17 -12 -37.5 -63.5t-22.5 -83.5zM78 655q10 14 34.5 26.5t49.5 12.5q28 -1 66 -18.5t48 -18.5q18 -3 32 2t20.5 10.5t23.5 22.5q13 10 22 2.5t13.5 -22.5t1.5 -17q-31 -31 -59 -46t-64 -7q-5 1 -26.5 10.5 t-39 15.5t-42.5 8t-37 -11q-14 -10 -24 -3.5t-15.5 19t-3.5 14.5zM166 440.5q-7 -29.5 4 -55.5q15 -51 78 -92q5 183 -51 178q-24 -1 -31 -30.5z" />
<glyph unicode="&#xf6;" horiz-adv-x="483" d="M-16 221q6 73 37.5 154t76.5 88q14 72 92 78q49 4 91.5 -58t33.5 -182q0 -13 -4 -37q36 -12 71.5 -13t70.5 21t57 66l20 35q10 19 21 6q15 -17 4 -57q-9 -28 -28.5 -53t-52.5 -48t-76.5 -29t-102.5 5q-24 -77 -73 -125.5t-120 -44.5q-46 3 -75 37t-37.5 75t-5.5 82z M53 215q-6 -125 68 -129q36 -3 68 37.5t47 93.5q-87 51 -123 145q-17 -12 -37.5 -63.5t-22.5 -83.5zM98 682q2 21 19 44t45 19q53 -7 43 -77q-3 -22 -21 -35t-41 -10q-45 7 -45 59zM166 440.5q-7 -29.5 4 -55.5q15 -51 78 -92q5 183 -51 178q-24 -1 -31 -30.5zM287 674 q0 19 18 46.5t45 24.5t38 -22.5t9 -42.5q0 -30 -24 -47t-43 -15q-25 4 -35 21.5t-8 34.5z" />
<glyph unicode="&#xf7;" horiz-adv-x="522" d="M33 426q-22 30 12 37q189 39 416 24q16 -5 26 -14t12 -14t7 -19q5 -15 -4.5 -22t-38.5 -4t-195.5 -5.5t-175.5 -7.5q-13 -1 -22 -1t-17.5 5.5t-19.5 20.5zM195 594q-5 24 8.5 43t36.5 20q21 2 37.5 -8.5t19.5 -30.5q3 -25 -10.5 -46.5t-34.5 -24.5q-22 -1 -38 12t-19 35z M209 281q-5 23 9.5 43.5t37.5 23.5q21 3 36.5 -8.5t18.5 -32.5q5 -25 -8.5 -45.5t-36.5 -23.5q-22 -1 -38 12t-19 33v-2z" />
<glyph unicode="&#xf8;" horiz-adv-x="366" d="M-17 -30q1 21 27 77q6 6 10 21q-29 39 -32.5 107t18.5 144q8 28 24 62t41 72.5t60 63.5t72 24q2 -1 5.5 -1.5t6 -1.5t6 -1.5t6.5 -1.5q5 9 12.5 25t11.5 22.5t11 16.5t15.5 18t21.5 16q15 8 22 7t8 -10.5t-0.5 -18t-4.5 -17.5l-41 -100q56 -74 20 -244 q-20 -102 -78.5 -165.5t-128.5 -59.5q-8 0 -14 2l-2 -4q-14 -29 -31 -45t-23.5 -18t-23.5 -5q-20 -3 -19 15zM59 150q80 186 140 319q-39 -4 -70.5 -52.5t-52.5 -127.5q-25 -90 -17 -139zM113 86h4q34 -3 72.5 49.5t58.5 128.5q22 87 2 152q-112 -275 -137 -330z" />
<glyph unicode="&#xf9;" horiz-adv-x="612" d="M4 283q9 61 45 182q8 46 55 31q11 -3 16 -8t5 -14.5t-1.5 -16t-7 -22.5t-7.5 -23q-10 -34 -17 -71.5t-11.5 -84t6.5 -78.5t38 -35q24 -3 52.5 34.5t47 79.5t25.5 71q4 16 11 48t11 48q12 51 52 41q16 -4 22 -11.5t6 -12.5t-5 -20t-7 -22q0 -2 -8 -143q0 -119 69 -127 q25 -3 48.5 3.5t41.5 16t38 29t32.5 34.5t29.5 42t24.5 40.5t22.5 41.5t19 35q11 20 22 5q17 -22 -2 -73q-5 -13 -13 -27q-18 -32 -41 -63t-55 -65t-70.5 -55.5t-75.5 -22.5q-38 -1 -68 15t-46 38.5t-27 45t-14 38.5l-3 16q-2 -6 -6 -16.5t-18.5 -37.5t-30.5 -47t-42.5 -35 t-55.5 -13q-59 6 -88 72.5t-19 136.5zM95 786.5q-1 15.5 11 30.5q13 16 21 20t15.5 -2t19.5 -24q6 -10 37 -79.5t37 -84.5q2 -7 -1.5 -24t-13.5 -25q-28 -21 -55 41l-60 119q-3 3 -6.5 8t-4.5 20.5z" />
<glyph unicode="&#xfa;" horiz-adv-x="612" d="M4 283q9 61 45 182q8 46 55 31q11 -3 16 -8t5 -14.5t-1.5 -16t-7 -22.5t-7.5 -23q-10 -34 -17 -71.5t-11.5 -84t6.5 -78.5t38 -35q24 -3 52.5 34.5t47 79.5t25.5 71q4 16 11 48t11 48q12 51 52 41q16 -4 22 -11.5t6 -12.5t-5 -20t-7 -22q0 -2 -8 -143q0 -119 69 -127 q25 -3 48.5 3.5t41.5 16t38 29t32.5 34.5t29.5 42t24.5 40.5t22.5 41.5t19 35q11 20 22 5q17 -22 -2 -73q-5 -13 -13 -27q-18 -32 -41 -63t-55 -65t-70.5 -55.5t-75.5 -22.5q-38 -1 -68 15t-46 38.5t-27 45t-14 38.5l-3 16q-2 -6 -6 -16.5t-18.5 -37.5t-30.5 -47t-42.5 -35 t-55.5 -13q-59 6 -88 72.5t-19 136.5zM205 635q6 15 37 84.5t37 79.5q17 27 26.5 28t28.5 -22q12 -15 12 -30t-6 -23l-6 -7q-42 -77 -60 -118q-27 -62 -55 -41q-10 8 -13 25t-1 24z" />
<glyph unicode="&#xfb;" horiz-adv-x="612" d="M4 283q9 61 45 182q8 46 55 31q11 -3 16 -8t5 -14.5t-1.5 -16t-7 -22.5t-7.5 -23q-10 -34 -17 -71.5t-11.5 -84t6.5 -78.5t38 -35q24 -3 52.5 34.5t47 79.5t25.5 71q4 16 11 48t11 48q12 51 52 41q16 -4 22 -11.5t6 -12.5t-5 -20t-7 -22q0 -2 -8 -143q0 -119 69 -127 q25 -3 48.5 3.5t41.5 16t38 29t32.5 34.5t29.5 42t24.5 40.5t22.5 41.5t19 35q11 20 22 5q17 -22 -2 -73q-5 -13 -13 -27q-18 -32 -41 -63t-55 -65t-70.5 -55.5t-75.5 -22.5q-38 -1 -68 15t-46 38.5t-27 45t-14 38.5l-3 16q-2 -6 -6 -16.5t-18.5 -37.5t-30.5 -47t-42.5 -35 t-55.5 -13q-59 6 -88 72.5t-19 136.5zM133 662q16 18 98 100q35 38 54 2q20 -30 51 -92q5 -8 0 -21.5t-17 -25.5q-12 -14 -25.5 -9.5t-23.5 25.5q-5 10 -17 27.5t-15 23.5q-3 -3 -32 -29.5t-38 -37.5q-13 -11 -30 4.5t-5 32.5z" />
<glyph unicode="&#xfc;" horiz-adv-x="612" d="M4 283q9 61 45 182q8 46 55 31q11 -3 16 -8t5 -14.5t-1.5 -16t-7 -22.5t-7.5 -23q-10 -34 -17 -71.5t-11.5 -84t6.5 -78.5t38 -35q24 -3 52.5 34.5t47 79.5t25.5 71q4 16 11 48t11 48q12 51 52 41q16 -4 22 -11.5t6 -12.5t-5 -20t-7 -22q0 -2 -8 -143q0 -119 69 -127 q25 -3 48.5 3.5t41.5 16t38 29t32.5 34.5t29.5 42t24.5 40.5t22.5 41.5t19 35q11 20 22 5q17 -22 -2 -73q-5 -13 -13 -27q-18 -32 -41 -63t-55 -65t-70.5 -55.5t-75.5 -22.5q-38 -1 -68 15t-46 38.5t-27 45t-14 38.5l-3 16q-2 -6 -6 -16.5t-18.5 -37.5t-30.5 -47t-42.5 -35 t-55.5 -13q-59 6 -88 72.5t-19 136.5zM94 641q2 21 19 44.5t45 19.5q53 -7 43 -78q-3 -22 -21 -35t-41 -10q-45 7 -45 59zM283 633q0 20 18 47.5t45 24.5q26 -3 37.5 -23t9.5 -43q0 -30 -23.5 -46.5t-43.5 -14.5q-25 4 -35 21t-8 34z" />
<glyph unicode="&#xfd;" horiz-adv-x="438" d="M-61 -510q14 100 52 188.5t89.5 152.5t93.5 103.5t86 71.5q5 78 16 203q-42 -78 -79 -118.5t-84 -39.5q-57 2 -87.5 54t-23.5 139q6 61 18.5 111t30 77.5t35.5 20.5q16 -5 20 -21.5t1 -30.5t-5 -14q-30 -113 -30 -172q0 -28 0.5 -44t3.5 -35.5t10 -28t18 -7.5 q90 5 183 250q8 58 23 96t32 50.5t33 7.5q17 -6 25 -26t-3 -64q0 -2 -16.5 -61.5t-25 -94.5t-18.5 -84t-11 -74q0 -17 -7 -57q27 11 56 -18q6 -7 1 -14t-14 -12l-10 -5q-16 -9 -41 -27q-4 -24 -4 -37q-5 -40 -6 -120t-2 -105q-2 -50 -8.5 -100.5t-22.5 -110.5t-39.5 -104 t-63 -73.5t-89.5 -27.5q-72 3 -109 68t-28 133zM6 -481q-5 -90 13 -124q18 -32 55 -32q28 0 51 15.5t37 36t25.5 52.5t16 52t10.5 49l5 29q9 39 15.5 85.5t9 78.5t5.5 88t5 81q-241 -183 -248 -411zM199 625q6 16 36.5 84.5t36.5 78.5q18 27 27.5 28.5t28.5 -21.5 q12 -15 12 -30t-6 -23l-6 -7q-42 -78 -60 -119q-27 -62 -55 -41q-10 8 -13 25.5t-1 24.5z" />
<glyph unicode="&#xfe;" />
<glyph unicode="&#xff;" horiz-adv-x="438" d="M-61 -510q14 100 52 188.5t89.5 152.5t93.5 103.5t86 71.5q5 78 16 203q-42 -78 -79 -118.5t-84 -39.5q-57 2 -87.5 54t-23.5 139q6 61 18.5 111t30 77.5t35.5 20.5q16 -5 20 -21.5t1 -30.5t-5 -14q-30 -113 -30 -172q0 -28 0.5 -44t3.5 -35.5t10 -28t18 -7.5 q90 5 183 250q8 58 23 96t32 50.5t33 7.5q17 -6 25 -26t-3 -64q0 -2 -16.5 -61.5t-25 -94.5t-18.5 -84t-11 -74q0 -17 -7 -57q27 11 56 -18q6 -7 1 -14t-14 -12l-10 -5q-16 -9 -41 -27q-4 -24 -4 -37q-5 -40 -6 -120t-2 -105q-2 -50 -8.5 -100.5t-22.5 -110.5t-39.5 -104 t-63 -73.5t-89.5 -27.5q-72 3 -109 68t-28 133zM6 -481q-5 -90 13 -124q18 -32 55 -32q28 0 51 15.5t37 36t25.5 52.5t16 52t10.5 49l5 29q9 39 15.5 85.5t9 78.5t5.5 88t5 81q-241 -183 -248 -411zM88 641q2 21 19 44.5t45 19.5q53 -7 43 -78q-3 -22 -21 -35t-41 -10 q-45 7 -45 59zM276 633q0 19 18.5 47t45.5 25q26 -3 37.5 -23t9.5 -43q0 -30 -24 -46.5t-44 -14.5q-25 4 -35 21t-8 34z" />
<glyph unicode="&#x152;" horiz-adv-x="2846" d="M-25 559q3 96 44.5 197t107 188.5t152.5 165.5t180 133t190.5 85t181.5 26q14 -1 24 -6t13 -10.5t2 -8.5q0 -24 -45 -22q-49 2 -124 -23t-160 -69.5t-170.5 -112.5t-155 -147t-115 -179.5t-49.5 -202.5q-3 -91 16.5 -165t52 -122.5t80.5 -85.5t93.5 -57t99.5 -32.5 t89.5 -16t72.5 -4.5q155 -6 309.5 46.5t274 144.5t196.5 225.5t82 279.5q4 112 -24 197.5t-70 132.5t-99.5 77t-101 39.5t-86.5 10.5q-92 3 -174 -9.5t-134 -33t-91 -41.5t-55 -36l-17 -15q-3 -3 -7.5 -6.5t-16 -10t-15.5 0.5q-11 10 -9 22t10 22l8 11q8 7 23.5 18.5t67 40 t106 50t137 38t165.5 13.5q159 -6 272 -90t160 -220q82 97 274 179t412.5 124t399.5 35q80 -4 137.5 -20t84.5 -39t38 -43.5t10 -38.5q-1 -33 -29.5 -64.5t-73 -54.5t-74 -35t-58.5 -22q-32 -9 -48.5 0t-31.5 33q-8 13 38 25q7 2 18 4l3 1q54 14 95.5 37.5t59 42t17.5 27.5 t-2.5 15.5t-15 16t-35 16.5t-65.5 13t-103 8q-205 8 -441 -51t-396.5 -143t-188.5 -154l6 -75q24 -41 92 -60t183 -24q204 78 411 104q266 37 264 -16q-1 -36 -112 -71t-170 -40q-216 -19 -328 -22q-112 -34 -204 -83.5t-146.5 -98.5t-92 -100t-52 -87t-15.5 -60t8 -53.5 t41 -69t83 -71.5t145.5 -55.5t216.5 -26.5q136 -3 272.5 14t232.5 41.5t177.5 53.5t117.5 45.5t43 21.5q42 28 45 14q2 -8 -18 -28q-12 -11 -36 -28.5t-107 -62t-177.5 -77.5t-247 -57.5t-315.5 -18.5q-68 3 -139 14t-151 37.5t-140.5 64t-98.5 99.5t-34 139v9 q-135 -130 -317 -203t-377 -66q-103 4 -189 27t-144.5 58t-104 82t-71.5 95.5t-42 102t-21 97t-4 85.5zM1452 580q89 69 215 127q-117 6 -174 34q-8 -74 -41 -161z" />
<glyph unicode="&#x153;" horiz-adv-x="686" d="M-18 227q12 137 77 217q16 21 39 25q2 30 27 52.5t65 25.5q26 2 57.5 -20t49.5 -70q2 3 5 9t5 9q24 40 52.5 63.5t54 26.5t49.5 -6t38.5 -33t20.5 -55t-4 -72q-16 -68 -63.5 -119t-126.5 -75q17 -94 114 -94q30 0 58.5 9t54.5 30t44 37t41.5 50.5t32.5 48t30.5 51 t23.5 40.5q11 20 20 6q15 -23 -7 -79q-5 -11 -11 -23q-9 -18 -19.5 -37.5t-38.5 -60.5t-57.5 -70.5t-73 -53t-87.5 -22.5q-136 3 -181 108q-28 -53 -73.5 -85.5t-96.5 -26.5q-36 4 -62 24.5t-38 51t-17 60.5t-3 58zM53 173.5q1 -27.5 19 -53t49 -28.5q30 -3 64 34.5t46 84.5 q-46 16 -79 56.5t-39 101.5q-6 -1 -16.5 -16t-24.5 -51t-19 -81q-1 -20 0 -47.5zM168 431.5q-6 -43.5 13 -94.5t61 -69q11 89 -1.5 150.5t-43.5 58.5q-23 -2 -29 -45.5zM328 270q66 24 112 95q38 60 25 109q-9 33 -34 28q-38 -8 -73 -99q-24 -60 -30 -133z" />
<glyph unicode="&#x178;" horiz-adv-x="870" d="M-18 -506q-10 14 3 27t31 19.5t19 2.5q3 -6 9 -16t29 -36t51.5 -45.5t78.5 -36t108 -17.5q29 0 49.5 1.5t60 11t69 27t66.5 54.5t62.5 87.5t46.5 130.5t29 181q8 109 27 523q-185 -449 -438 -441q-90 2 -153 55t-92 139t-38 196t4 229.5t38 235.5t60.5 217.5t75.5 172.5 l9 12q29 27 75 -61q-48 -88 -87.5 -206t-64.5 -242.5t-29.5 -246.5t12.5 -218.5t65.5 -157t124.5 -63.5q69 -2 135 40.5t113 105t90 148t67.5 151t44.5 132.5q13 160 33 277q1 5 4.5 28t6 36.5t7.5 39.5t10 43t12 40t15 37t18 28t21.5 19.5t24.5 4.5q10 -1 17.5 -9t11 -26 t3 -44t-7.5 -65.5t-20 -88.5q-60 -214 -101 -340q-2 -94 -3 -326.5t-3 -345.5q-2 -134 -42 -246t-105 -184.5t-149 -111t-175 -34.5q-68 2 -126.5 19t-93.5 37.5t-61.5 44.5t-36.5 37.5t-11 17.5zM430 1280q0 19 18 43t46 20q52 -9 43 -77q-3 -23 -20.5 -35.5t-41.5 -9.5 q-26 4 -36.5 22t-8.5 37zM618 1272q0 18 18.5 46t45.5 25q47 -5 47 -65q-1 -31 -25 -48t-42 -13q-25 4 -35.5 20.5t-8.5 34.5z" />
<glyph unicode="&#x2c6;" horiz-adv-x="593" />
<glyph unicode="&#x2dc;" horiz-adv-x="684" />
<glyph unicode="&#x2000;" horiz-adv-x="832" />
<glyph unicode="&#x2001;" horiz-adv-x="1664" />
<glyph unicode="&#x2002;" horiz-adv-x="832" />
<glyph unicode="&#x2003;" horiz-adv-x="1664" />
<glyph unicode="&#x2004;" horiz-adv-x="554" />
<glyph unicode="&#x2005;" horiz-adv-x="416" />
<glyph unicode="&#x2006;" horiz-adv-x="277" />
<glyph unicode="&#x2007;" horiz-adv-x="277" />
<glyph unicode="&#x2008;" horiz-adv-x="208" />
<glyph unicode="&#x2009;" horiz-adv-x="332" />
<glyph unicode="&#x200a;" horiz-adv-x="92" />
<glyph unicode="&#x2010;" horiz-adv-x="522" d="M33 426q-22 30 12 37q189 39 416 24q16 -5 26 -14t12 -14t7 -19q5 -15 -4.5 -22t-38.5 -4t-195.5 -5.5t-175.5 -7.5q-13 -1 -22 -1t-17.5 5.5t-19.5 20.5z" />
<glyph unicode="&#x2011;" horiz-adv-x="522" d="M33 426q-22 30 12 37q189 39 416 24q16 -5 26 -14t12 -14t7 -19q5 -15 -4.5 -22t-38.5 -4t-195.5 -5.5t-175.5 -7.5q-13 -1 -22 -1t-17.5 5.5t-19.5 20.5z" />
<glyph unicode="&#x2012;" horiz-adv-x="522" d="M33 426q-22 30 12 37q189 39 416 24q16 -5 26 -14t12 -14t7 -19q5 -15 -4.5 -22t-38.5 -4t-195.5 -5.5t-175.5 -7.5q-13 -1 -22 -1t-17.5 5.5t-19.5 20.5z" />
<glyph unicode="&#x2013;" horiz-adv-x="522" d="M33 426q-22 30 12 37q189 39 416 24q16 -5 26 -14t12 -14t7 -19q5 -15 -4.5 -22t-38.5 -4t-195.5 -5.5t-175.5 -7.5q-13 -1 -22 -1t-17.5 5.5t-19.5 20.5z" />
<glyph unicode="&#x2014;" horiz-adv-x="1026" d="M10 459q-16 22 26 27q22 3 62 1q61 -2 405.5 7t366.5 8q9 0 30 -0.5t27.5 -1t20.5 -3t24.5 -8t24.5 -14.5t15.5 -16.5t-6.5 -11.5t-16.5 -6t-18.5 -3q-243 -24 -424 -28q-363 -6 -445 4h2q-33 4 -54 12t-26 14t-14 19z" />
<glyph unicode="&#x2018;" horiz-adv-x="172" d="M37 1178q2 23 8.5 31.5t22.5 2.5q8 -4 16 -12.5t12 -15.5l4 -6l2 2q29 -281 31 -312q3 -48 -29 -51q-31 0 -43 57q-4 26 -14 153.5t-10 150.5z" />
<glyph unicode="&#x2019;" horiz-adv-x="215" d="M55 854q2 18 28.5 178.5t31.5 181.5q4 14 11.5 17.5t14.5 1t21 -9.5q6 -3 9.5 -7t5 -9.5t2 -8t-0.5 -9.5v-7q-2 -15 -29 -179.5t-28 -168.5q-2 -7 -13.5 -18.5t-19.5 -8.5q-33 12 -33 47z" />
<glyph unicode="&#x201a;" horiz-adv-x="819" />
<glyph unicode="&#x201c;" horiz-adv-x="374" d="M37 1178q2 23 8.5 31.5t22.5 2.5q8 -4 16 -12.5t12 -15.5l4 -6l2 2q29 -281 31 -312q3 -48 -29 -51q-31 0 -43 57q-4 26 -14 153.5t-10 150.5zM152 1174q-1 10 1.5 16.5t11.5 9.5t13.5 4t16.5 2q13 3 18.5 -5.5t9.5 -26.5q0 -3 5.5 -53.5t11.5 -106t12.5 -107t9.5 -61.5 q4 -12 -2.5 -29t-21.5 -18q-18 -2 -27 3t-16 23q-5 16 -22 166t-19 183h-2z" />
<glyph unicode="&#x201d;" horiz-adv-x="374" d="M14 854q2 18 28.5 178.5t31.5 181.5q4 14 11.5 17.5t14.5 1t21 -9.5q6 -3 9.5 -7t5 -9.5t2 -8t0.5 -9.5l-1 -7q-2 -15 -29 -179.5t-28 -168.5q-2 -7 -13.5 -18.5t-19.5 -8.5q-33 12 -33 47zM135 858q5 30 36 182t34 160v-2q7 22 35 16q29 -3 26 -40q-1 -20 -25 -152 t-30 -156q-5 -19 -10 -31.5t-15.5 -21t-23.5 -2.5q-21 7 -25 15t-2 32z" />
<glyph unicode="&#x201e;" horiz-adv-x="512" />
<glyph unicode="&#x2026;" horiz-adv-x="1781" />
<glyph unicode="&#x202f;" horiz-adv-x="332" />
<glyph unicode="&#x2039;" horiz-adv-x="450" />
<glyph unicode="&#x203a;" horiz-adv-x="423" />
<glyph unicode="&#x205f;" horiz-adv-x="416" />
<glyph unicode="&#x25fc;" horiz-adv-x="624" d="M0 0v625h625v-625h-625z" />
<glyph unicode="&#xfb01;" horiz-adv-x="923" />
<glyph unicode="&#xfb02;" horiz-adv-x="1105" />
</font>
</defs>
</svg>
